<?xml version="1.0" encoding="UTF-8" standalone="no"?>
<!DOCTYPE svg  PUBLIC '-//W3C//DTD SVG 1.1//EN'  'http://www.w3.org/Graphics/SVG/1.1/DTD/svg11.dtd'>
<svg xmlns="http://www.w3.org/2000/svg" version="1.1">
<defs>
<font id="HelveticaNeueLTCom-Roman" horiz-adv-x="556">
<font-face underline-thickness="50" panose-1="2 11 6 4 2 2 2 2 2 4" bbox="-166 -214 1076 973" font-weight="400" unicode-range="U+0020-FB02" descent="-200" font-family="HelveticaNeueLTCom" units-per-em="1000" cap-height="714" ascent="800" x-height="517" underline-position="-150"/>
<missing-glyph horiz-adv-x="512" d="M512 718v-718h-512v718h512zM462 50v617h-412v-617h412zM225 234l-2 17q0 55 13 81t46 59q32 31 41 47.5t9 35.5q0 36 -22.5 60.5t-53.5 24.5t-53.5 -22t-28.5 -73l-50 8q7 71 44 104t91 33q53 0 88.5 -36t35.5 -95q0 -32 -12.5 -58.5t-50.5 -61.5q-37 -33 -43 -52 t-6 -72h-46zM222 117v67h56v-67h-56z"/>
<glyph unicode="IJ" horiz-adv-x="780" d="M82 714h95v-714h-95v714zM702 178q0 -36 -10.5 -71t-35 -62.5t-65 -44.5t-100.5 -17q-100 0 -154 53.5t-54 154.5v44h95v-30q0 -31 5 -57t17.5 -45t35 -29.5t57.5 -10.5q65 0 89.5 35t24.5 94v522h95v-536z" glyph-name="IJ"/>
<glyph unicode="ij" horiz-adv-x="430" d="M69 517h85v-517h-85v517zM154 610h-85v104h85v-104zM362 -66q0 -69 -33.5 -100.5t-90.5 -31.5q-11 0 -22 1t-22 3v73q9 -2 17 -2h18q28 0 38 15.5t10 55.5v569h85v-583zM362 610h-85v104h85v-104z" glyph-name="ij"/>
<glyph unicode='&quot;n' horiz-adv-x="578" d="M86 517h80v-82h2q27 48 69.5 71t98.5 23q51 0 85 -14t55 -39t29.5 -59.5t8.5 -76.5v-340h-85v350q0 48 -28 76t-77 28q-39 0 -67.5 -12t-47.5 -34t-28.5 -51.5t-9.5 -64.5v-292h-85v517zM15 802h111v-77q0 -43 -27.5 -63t-71.5 -20v35q22 6 29 12t9 12.5t2 12.5h-52v88z " glyph-name="napostrophe"/>
<glyph unicode="fi" horiz-adv-x="518" d="M99 442h-87v75h87v77q0 63 36.5 95.5t106.5 32.5q12 0 27.5 -2t27.5 -6v-74q-11 4 -24 5.5t-24 1.5q-31 0 -48 -12t-17 -46v-72h100v-75h-100v-442h-85v442zM365 610v104h85v-104h-85zM365 0v517h85v-517h-85z" glyph-name="fi"/>
<glyph unicode="fl" horiz-adv-x="518" d="M99 442h-87v75h87v77q0 63 36.5 95.5t106.5 32.5q12 0 27.5 -2t27.5 -6v-74q-11 4 -24 5.5t-24 1.5q-31 0 -48 -12t-17 -46v-72h100v-75h-100v-442h-85v442zM365 714h85v-714h-85v714z" glyph-name="fl"/>
<glyph horiz-adv-x="512" d="M512 718v-718h-512v718h512zM462 50v617h-412v-617h412zM225 234l-2 17q0 55 13 81t46 59q32 31 41 47.5t9 35.5q0 36 -22.5 60.5t-53.5 24.5t-53.5 -22t-28.5 -73l-50 8q7 71 44 104t91 33q53 0 88.5 -36t35.5 -95q0 -32 -12.5 -58.5t-50.5 -61.5q-37 -33 -43 -52 t-6 -72h-46zM222 117v67h56v-67h-56z" glyph-name=".notdef"/>
<glyph horiz-adv-x="500" glyph-name=".null"/>
<glyph horiz-adv-x="0" glyph-name="nonmarkingreturn"/>
<glyph unicode=" " horiz-adv-x="278" glyph-name="space"/>
<glyph unicode="!" horiz-adv-x="259" d="M177 494l-25 -311h-45l-25 311v220h95v-220zM74 111h111v-111h-111v111z" glyph-name="exclam"/>
<glyph unicode='&quot;' horiz-adv-x="426" d="M109 714h68v-258h-68v258zM249 714h68v-258h-68v258z" glyph-name="quotedbl"/>
<glyph unicode="#" d="M131 206h-97v68h107l21 150h-102v68h111l29 205h69l-29 -205h124l29 205h69l-29 -205h89v-68h-98l-21 -150h91v-68h-101l-29 -206h-69l29 206h-124l-29 -206h-69zM231 424l-21 -150h124l21 150h-124z" glyph-name="numbersign"/>
<glyph unicode="$" d="M251 651q-48 -5 -81.5 -34.5t-33.5 -86.5q0 -27 8.5 -45t24 -30.5t36.5 -21.5t46 -16v234zM306 63q28 2 51.5 10.5t41 23.5t27 38.5t9.5 55.5q0 28 -10 48t-27 34t-41 23.5t-51 17.5v-251zM110 218q2 -67 41.5 -106t99.5 -49v265q-53 13 -91.5 28t-64 37t-37.5 53t-12 75 q0 45 16 82.5t43.5 65t65 43.5t80.5 19v66h55v-67q81 -10 129 -60.5t68 -137.5h-85q-20 99 -112 116v-246l60 -16q19 -5 46.5 -17.5t52.5 -34.5t42.5 -55t17.5 -79q0 -48 -16.5 -86.5t-45.5 -66.5t-69 -44t-88 -20v-82h-55v82q-99 10 -158.5 70.5t-67.5 164.5h85z" glyph-name="dollar"/>
<glyph unicode="%" horiz-adv-x="1000" d="M726 722h85l-537 -744h-86zM586 186q0 40 8 77t27 65t50 44.5t77 16.5t77 -16t49.5 -43t26 -63.5t7.5 -77.5q0 -39 -8.5 -75.5t-28 -64t-50 -44.5t-73.5 -17q-45 0 -76 15.5t-50 42.5t-27.5 63t-8.5 77zM661 188q0 -22 2.5 -47.5t11.5 -47t25.5 -36t44.5 -14.5t45.5 14 t27 35.5t12.5 47.5t3 49q0 22 -2.5 47.5t-11.5 47t-26 36t-45 14.5t-45 -14.5t-26.5 -36t-12.5 -47.5t-3 -48zM92 506q0 40 8 77t27 65t50 44.5t77 16.5t77 -16t49.5 -43t26 -63.5t7.5 -77.5q0 -39 -8.5 -75.5t-28 -64t-50 -44.5t-73.5 -17q-45 0 -76 15.5t-50 42.5 t-27.5 63t-8.5 77zM167 508q0 -22 2.5 -47.5t11.5 -47t25.5 -36t44.5 -14.5t45.5 14t27 35.5t12.5 47.5t3 49q0 22 -2.5 47.5t-11.5 47t-26 36t-45 14.5t-45 -14.5t-26.5 -36t-12.5 -47.5t-3 -48z" glyph-name="percent"/>
<glyph unicode="&amp;" horiz-adv-x="630" d="M247 345q-25 -14 -47.5 -29t-39.5 -34t-27 -42.5t-10 -55.5q0 -27 11.5 -49.5t30.5 -38t43.5 -24.5t50.5 -9q49 0 87.5 23t64.5 62zM458 89q-16 -25 -38.5 -44t-49 -31.5t-56 -19t-58.5 -6.5q-72 0 -116 22.5t-68 53.5t-31.5 64t-7.5 55q0 42 13.5 74t36 57.5t53 46 t64.5 38.5q-15 21 -29 40t-25.5 38t-18 41t-6.5 49q0 29 10.5 55.5t31 47t50.5 32.5t69 12q33 0 64.5 -9t55.5 -27.5t38.5 -46t14.5 -63.5q0 -32 -11 -59.5t-30 -50.5t-43 -41.5t-50 -33.5l129 -157q20 54 23 111h81q-3 -32 -6.5 -54.5t-9 -41.5t-13.5 -37.5t-19 -42.5 l139 -161h-111zM275 439q15 10 32 22t31 27t23 33.5t9 41.5q0 31 -22 53.5t-60 22.5q-30 0 -56 -18.5t-26 -57.5q0 -16 6.5 -32t16.5 -31.5t22 -30.5z" glyph-name="ampersand"/>
<glyph unicode="&apos;" horiz-adv-x="278" d="M105 714h68v-258h-68v258z" glyph-name="quotesingle"/>
<glyph unicode="(" horiz-adv-x="259" d="M204 -198q-72 112 -114.5 224.5t-42.5 243.5q0 118 40 238t117 223h65q-72 -113 -102 -226t-30 -235q0 -126 30.5 -239.5t101.5 -228.5h-65z" glyph-name="parenleft"/>
<glyph unicode=")" horiz-adv-x="259" d="M-10 -198q72 113 102 226t30 235q0 126 -30.5 239.5t-101.5 228.5h65q36 -56 65 -111.5t49.5 -113t31.5 -117.5t11 -126q0 -118 -40 -238t-117 -223h-65z" glyph-name="parenright"/>
<glyph unicode="*" horiz-adv-x="352" d="M201 601l107 40l20 -48l-109 -38l66 -91l-41 -31l-69 96l-65 -96l-45 31l65 91l-106 38l18 48l106 -40v113h53v-113z" glyph-name="asterisk"/>
<glyph unicode="+" horiz-adv-x="600" d="M334 287h218v-68h-218v-219h-68v219h-218v68h218v219h68v-219z" glyph-name="plus"/>
<glyph unicode="," horiz-adv-x="278" d="M83 111h111v-101q0 -57 -26 -98.5t-84 -58.5v50q17 6 28.5 17t18 25t9.5 28.5t2 26.5h-59v111z" glyph-name="comma"/>
<glyph unicode="-" horiz-adv-x="389" d="M50 318h289v-80h-289v80z" glyph-name="hyphen"/>
<glyph unicode="." horiz-adv-x="278" d="M83 111h111v-111h-111v111z" glyph-name="period"/>
<glyph unicode="/" horiz-adv-x="333" d="M278 731h73l-296 -748h-73z" glyph-name="slash"/>
<glyph unicode="0" d="M42 348q0 59 5.5 122.5t29 116.5t71 87.5t130.5 34.5t130.5 -34.5t71 -87.5t29 -116.5t5.5 -122.5q0 -39 -2 -81t-10 -82t-23 -75.5t-41 -62.5t-65.5 -43t-94.5 -16t-94.5 16t-65.5 43t-41 62.5t-23 75.5t-10 82t-2 81zM132 349q0 -40 2.5 -89.5t16 -93t43.5 -73.5 t84 -30t84 30t43.5 73.5t16 93t2.5 89.5q0 26 -0.5 57.5t-5 63t-13 61.5t-25 52.5t-41.5 36.5t-61 14t-61 -14t-41.5 -36.5t-25 -52.5t-13 -61.5t-5 -63t-0.5 -57.5z" glyph-name="zero"/>
<glyph unicode="1" d="M356 0h-85v508h-184v68q36 0 70 5.5t61.5 20.5t46.5 41t26 66h65v-709z" glyph-name="one"/>
<glyph unicode="2" d="M44 458q-1 9 -1 18q0 44 13.5 86t42.5 75.5t73 52.5t100 19q46 0 86.5 -13.5t70.5 -39t47.5 -64t17.5 -87.5q0 -47 -14.5 -83t-38.5 -64.5t-55 -51.5t-64 -44q-33 -20 -66 -39.5t-60.5 -41.5t-47 -47.5t-25.5 -58.5h364v-75h-463q5 63 23 107.5t44.5 77.5t60 57.5 t71.5 47.5q45 28 79 51.5t56.5 47.5t34 52t11.5 65q0 29 -11 52.5t-29.5 40.5t-43.5 26t-53 9q-37 0 -63.5 -15.5t-43.5 -40.5t-24 -54.5t-7 -57.5v-8h-85z" glyph-name="two"/>
<glyph unicode="3" d="M218 405q10 -1 19 -1h18q27 0 51.5 7.5t43 22t29.5 36t11 50.5q0 56 -36 85t-90 29q-35 0 -60 -12.5t-41.5 -33.5t-24.5 -49t-8 -59h-85q2 51 16.5 93t41.5 72t67.5 47t93.5 17q46 0 85.5 -11.5t68.5 -34.5t45.5 -59t16.5 -85q0 -47 -28.5 -84.5t-69.5 -56.5v-2 q65 -14 96.5 -61t31.5 -111q0 -53 -19.5 -93.5t-52.5 -67.5t-77.5 -41t-94.5 -14q-54 0 -98 15.5t-75 45t-47 71.5t-16 93v6h85q2 -69 40 -112.5t111 -43.5q31 0 59 9.5t49 27t33.5 43t12.5 57.5q0 33 -12 58.5t-32 43t-48 26t-59 8.5q-27 0 -51 -3v72z" glyph-name="three"/>
<glyph unicode="4" d="M419 241h96v-75h-96v-166h-80v166h-311v82l323 461h68v-468zM339 241v347h-2l-236 -347h238z" glyph-name="four"/>
<glyph unicode="5" d="M470 622h-286l-38 -204l2 -2q23 26 59.5 38.5t72.5 12.5q47 0 89 -15t73 -45.5t49 -76t18 -106.5q0 -45 -15.5 -87.5t-46.5 -75.5t-77.5 -53t-108.5 -20q-46 0 -86.5 13.5t-71.5 40t-49 64t-19 85.5h85q2 -27 13.5 -50.5t31 -41t46 -27t58.5 -9.5q30 0 57.5 10.5t48 31.5 t32.5 52.5t12 73.5q0 35 -11.5 64.5t-32.5 51t-50.5 33.5t-65.5 12q-41 0 -74 -18.5t-58 -48.5l-73 4l66 368h350v-75z" glyph-name="five"/>
<glyph unicode="6" d="M286 381q-36 0 -63 -12.5t-46 -34t-28.5 -51t-9.5 -62.5t10 -62t28.5 -50t46 -33.5t62.5 -12.5q34 0 61 12.5t45 34.5t27.5 50t9.5 60q0 33 -8.5 62.5t-26.5 51t-45 34.5t-63 13zM414 528q-6 48 -37 77t-82 29q-54 0 -87.5 -26.5t-51.5 -67t-25 -87.5t-8 -88l2 -2 q30 49 74.5 71t102.5 22q51 0 91.5 -17.5t68 -48.5t42.5 -73t15 -91q0 -39 -12 -81t-39.5 -77t-73 -57.5t-112.5 -22.5q-79 0 -127 32.5t-74 82.5t-34.5 110t-8.5 116q0 73 12.5 141.5t42.5 121.5t80 85t126 32q88 0 140 -47t60 -134h-85z" glyph-name="six"/>
<glyph unicode="7" d="M509 624q-54 -53 -101 -126t-83.5 -156t-59.5 -171t-28 -171h-95q6 90 29.5 175.5t60.5 164t85.5 148.5t104.5 129h-372v80h459v-73z" glyph-name="seven"/>
<glyph unicode="8" d="M130 200q0 -64 42.5 -100.5t108.5 -36.5q32 0 58.5 10.5t46 29t30 43.5t10.5 55q0 29 -11.5 53.5t-31.5 42.5t-46.5 28.5t-56.5 10.5q-32 0 -59 -9.5t-47.5 -27.5t-32 -43t-11.5 -56zM65 528q0 44 17 77.5t46 56.5t66.5 35t78.5 12q58 0 99 -15.5t66.5 -41t37.5 -58 t12 -66.5q0 -48 -27 -87.5t-71 -59.5q64 -20 95 -65.5t31 -111.5q0 -51 -18.5 -91.5t-50 -68t-74.5 -42t-92 -14.5q-51 0 -95 13.5t-76.5 40.5t-51 67.5t-18.5 94.5q0 63 32 109.5t92 67.5q-45 18 -72 58.5t-27 88.5zM155 525q0 -29 10 -50.5t27 -35.5t40 -21t49 -7 q51 0 84 30t33 84t-33.5 81.5t-85.5 27.5q-26 0 -48.5 -7t-39 -21t-26.5 -34t-10 -47z" glyph-name="eight"/>
<glyph unicode="9" d="M409 472q0 33 -9.5 62t-28 51.5t-45.5 35.5t-63 13q-38 0 -64.5 -14t-43 -37.5t-24 -53.5t-7.5 -63q0 -29 10.5 -56t29 -48t44 -33.5t56.5 -12.5q33 0 60 12.5t46 34t29 49.5t10 60zM134 171q5 -52 42 -80t88 -28q78 0 117 68t43 206l-2 2q-24 -45 -68 -71.5t-96 -26.5 q-54 0 -96 17.5t-70.5 48.5t-43 74.5t-14.5 96.5q0 51 17 93.5t48 73t74 47.5t94 17q49 0 93.5 -15.5t77.5 -53.5t52.5 -104t19.5 -166q0 -184 -58.5 -283t-187.5 -99q-45 0 -82.5 11.5t-65.5 34.5t-45.5 57t-21.5 80h85z" glyph-name="nine"/>
<glyph unicode=":" horiz-adv-x="278" d="M83 111h111v-111h-111v111zM194 406h-111v111h111v-111z" glyph-name="colon"/>
<glyph unicode=";" horiz-adv-x="278" d="M83 111h111v-101q1 -57 -25.5 -98.5t-84.5 -58.5v50q17 6 28.5 17t18 25t9.5 28.5t2 26.5h-59v111zM194 406h-111v111h111v-111z" glyph-name="semicolon"/>
<glyph unicode="&lt;" horiz-adv-x="600" d="M554 446l-425 -193l425 -193v-68l-508 230v62l508 230v-68z" glyph-name="less"/>
<glyph unicode="=" horiz-adv-x="600" d="M552 320h-504v68h504v-68zM48 186h504v-68h-504v68z" glyph-name="equal"/>
<glyph unicode="&gt;" horiz-adv-x="600" d="M46 60l425 193l-425 193v68l508 -230v-62l-508 -230v68z" glyph-name="greater"/>
<glyph unicode="?" d="M55 491v6q0 48 15 90.5t44 75t70.5 50.5t94.5 18q46 0 85 -13.5t67 -39t43.5 -62.5t15.5 -85q0 -31 -7.5 -55.5t-19.5 -44.5t-27.5 -37t-31.5 -33q-16 -15 -31.5 -30.5t-28 -33t-20 -38.5t-7.5 -46v-39h-85v47q0 31 8.5 55t21.5 44t29 36.5t31 31.5t29.5 30t26 32.5 t17 36.5t5.5 39v13q-4 55 -35.5 86t-85.5 31q-36 0 -62 -13t-43.5 -35t-25.5 -52.5t-8 -64.5h-85zM218 111h111v-111h-111v111z" glyph-name="question"/>
<glyph unicode="@" horiz-adv-x="800" d="M420 505q-35 0 -64.5 -20.5t-50.5 -51.5t-33 -67.5t-12 -69.5q0 -42 24 -69.5t62 -27.5q33 0 61 21.5t49 54t33 69.5t12 68q0 18 -7 35t-18 29.5t-25.5 20.5t-30.5 8zM534 270q-4 -13 -7.5 -26.5t-3.5 -24.5q0 -14 5.5 -22.5t18.5 -8.5q23 0 47.5 21t44.5 54t33 74t13 81 q0 59 -22.5 107t-60.5 81.5t-87 51.5t-101 18q-64 0 -119.5 -25.5t-96.5 -69.5t-64.5 -102t-23.5 -124q0 -67 24.5 -125t67 -100.5t98.5 -67t119 -24.5q36 0 71 8.5t67.5 24.5t60.5 38.5t49 49.5h63q-24 -41 -58 -74t-74.5 -55.5t-86.5 -34.5t-94 -12q-79 0 -147.5 29 t-119 80t-79.5 120t-29 148q0 77 29.5 144.5t80 118t118 79.5t143.5 29q69 0 131 -23t108.5 -63.5t73.5 -97.5t27 -124q0 -65 -23.5 -118.5t-58.5 -91.5t-76 -59t-76 -21q-26 0 -44 16t-20 49h-3q-23 -26 -55 -46.5t-69 -20.5q-32 0 -58.5 12.5t-45 33.5t-29 50t-10.5 62 q0 52 17 103t47.5 91t74 65t96.5 25q35 0 65 -18.5t47 -63.5l23 63h63z" glyph-name="at"/>
<glyph unicode="A" horiz-adv-x="648" d="M272 714h105l279 -714h-105l-78 215h-302l-80 -215h-98zM201 295h242l-119 333h-2z" glyph-name="A"/>
<glyph unicode="B" horiz-adv-x="685" d="M173 80h238q62 0 98 34.5t36 93.5q0 35 -13 58t-34.5 36.5t-49.5 19t-58 5.5h-217v-247zM78 714h259q24 0 50 -0.5t51.5 -3t48.5 -7.5t39 -15q35 -21 59.5 -58.5t24.5 -90.5q0 -57 -28 -98.5t-78 -61.5v-2q66 -14 101 -60t35 -112q0 -39 -14 -76t-41.5 -65.5t-68 -46 t-93.5 -17.5h-345v714zM173 407h190q81 0 116.5 28.5t35.5 85.5q0 37 -12 59.5t-33 34.5t-48.5 15.5t-58.5 3.5h-190v-227z" glyph-name="B"/>
<glyph unicode="C" horiz-adv-x="722" d="M580 499q-8 38 -26 66.5t-44.5 47.5t-59.5 28.5t-70 9.5q-64 0 -109.5 -24t-75 -64.5t-43.5 -92.5t-14 -108q0 -61 14 -115.5t43.5 -95t75.5 -64.5t110 -24q47 0 83.5 15.5t63 43t41.5 65.5t18 82h95q-14 -134 -93.5 -210t-215.5 -76q-83 0 -145 29t-103 79t-61.5 118 t-20.5 146t22 146.5t64.5 119.5t105.5 80.5t146 29.5q56 0 106 -15t89 -44t65 -72.5t34 -100.5h-95z" glyph-name="C"/>
<glyph unicode="D" horiz-adv-x="704" d="M78 714h245q165 0 254 -84t89 -256q0 -90 -20 -159.5t-62 -117t-107 -72.5t-154 -25h-245v714zM173 80h158q16 0 40 2.5t51 12t53.5 27.5t47.5 49t34.5 77.5t13.5 112.5q0 64 -12.5 114.5t-41 85.5t-73.5 54t-111 19h-160v-554z" glyph-name="D"/>
<glyph unicode="E" horiz-adv-x="611" d="M78 714h493v-80h-398v-227h371v-80h-371v-247h401v-80h-496v714z" glyph-name="E"/>
<glyph unicode="F" horiz-adv-x="574" d="M78 714h469v-80h-374v-227h328v-80h-328v-327h-95v714z" glyph-name="F"/>
<glyph unicode="G" horiz-adv-x="759" d="M612 89q-21 -28 -47.5 -48t-56.5 -33t-62 -19t-63 -6q-80 0 -143 30t-107 80t-67 115t-23 135q0 78 21.5 148.5t64 123.5t106 84.5t148.5 31.5q58 0 109.5 -13.5t92 -42.5t68 -73.5t37.5 -107.5h-95q-7 40 -26 70t-47 49t-63.5 28.5t-75.5 9.5q-65 0 -111.5 -26 t-76 -68.5t-43.5 -97t-14 -111.5q0 -56 16 -107.5t47 -91t76.5 -63t105.5 -23.5q55 0 98.5 18t73.5 49q31 32 45 74q13 37 12 80v12h-228v80h313v-376h-60z" glyph-name="G"/>
<glyph unicode="H" horiz-adv-x="722" d="M78 714h95v-307h376v307h95v-714h-95v327h-376v-327h-95v714z" glyph-name="H"/>
<glyph unicode="I" horiz-adv-x="259" d="M82 714h95v-714h-95v714z" glyph-name="I"/>
<glyph unicode="J" horiz-adv-x="519" d="M441 178q0 -36 -10.5 -71t-35 -62.5t-65 -44.5t-100.5 -17q-100 0 -154 53.5t-54 154.5v44h95v-30q0 -31 5 -57t17.5 -45t35 -29.5t57.5 -10.5q65 0 89.5 35t24.5 94v522h95v-536z" glyph-name="J"/>
<glyph unicode="K" horiz-adv-x="667" d="M78 714h95v-356l362 356h123l-301 -288l313 -426h-120l-258 361l-119 -111v-250h-95v714z" glyph-name="K"/>
<glyph unicode="L" d="M78 714h95v-634h378v-80h-473v714z" glyph-name="L"/>
<glyph unicode="M" horiz-adv-x="871" d="M80 714h130l225 -600l226 600h130v-714h-90v594h-2l-223 -594h-81l-223 594h-2v-594h-90v714z" glyph-name="M"/>
<glyph unicode="N" horiz-adv-x="722" d="M77 714h101l376 -579h2v579h90v-714h-104l-373 573h-2v-573h-90v714z" glyph-name="N"/>
<glyph unicode="O" horiz-adv-x="760" d="M38 357q0 73 21.5 140.5t64.5 119.5t107 83t149 31t149 -31t107 -83t64.5 -119.5t21.5 -140.5t-21.5 -140.5t-64.5 -119.5t-107 -83t-149 -31t-149 31t-107 83t-64.5 119.5t-21.5 140.5zM133 357q0 -54 14 -106.5t44 -94.5t77 -67.5t112 -25.5t112 25.5t77 67.5t44 94.5 t14 106.5t-14 106.5t-44 94.5t-77 67.5t-112 25.5t-112 -25.5t-77 -67.5t-44 -94.5t-14 -106.5z" glyph-name="O"/>
<glyph unicode="P" horiz-adv-x="648" d="M78 714h313q107 0 163 -55.5t56 -155.5t-55.5 -155.5t-159.5 -55.5h-4h-218v-292h-95v714zM173 372h186h5q77 0 114 33.5t37 97.5t-37.5 97.5t-118.5 33.5h-186v-262z" glyph-name="P"/>
<glyph unicode="Q" horiz-adv-x="760" d="M660 -62l-109 88q-72 -43 -171 -43q-85 0 -149 31t-107 83t-64.5 119.5t-21.5 140.5t21.5 140.5t64.5 119.5t107 83t149 31t149 -31t107 -83t64.5 -119.5t21.5 -140.5q0 -82 -27 -156.5t-81 -127.5l94 -75zM450 204l95 -76q42 42 62 103t20 126q0 54 -14 106.5t-44 94.5 t-77 67.5t-112 25.5t-112 -25.5t-77 -67.5t-44 -94.5t-14 -106.5t14 -106.5t44 -94.5t77 -67.5t112 -25.5q53 0 99 20l-79 63z" glyph-name="Q"/>
<glyph unicode="R" horiz-adv-x="685" d="M371 385q33 0 63 5t52.5 19.5t36 39t13.5 63.5q0 53 -30 87.5t-97 34.5h-236v-249h198zM78 714h336q101 0 159 -50.5t58 -136.5q0 -65 -29.5 -114t-94.5 -67v-2q31 -6 50.5 -20t31.5 -33.5t17 -43.5t8 -50q2 -26 3.5 -53.5t5 -53t11 -49t22.5 -41.5h-106q-10 11 -13.5 30 t-4.5 42.5t-2 50.5t-6 53q-4 26 -10 49.5t-19 41t-34.5 28t-55.5 10.5h-232v-305h-95v714z" glyph-name="R"/>
<glyph unicode="S" horiz-adv-x="648" d="M491 505q-8 77 -55.5 111.5t-121.5 34.5q-30 0 -59 -6t-51.5 -20t-36 -37.5t-13.5 -58.5q0 -33 19.5 -53.5t52 -33.5t73.5 -21.5t84 -18.5t84 -23.5t73 -36.5t51.5 -58.5t19.5 -87.5q0 -57 -25.5 -97.5t-65.5 -66t-89.5 -37.5t-98.5 -12q-60 0 -113.5 15t-94 46t-64 78.5 t-23.5 112.5h90q0 -45 17.5 -77.5t46 -53.5t66 -31t78.5 -10q32 0 64.5 6t58.5 20.5t42 39.5t16 64q0 37 -19.5 60t-51.5 37.5t-73 24t-84 18.5t-84 21.5t-73.5 33.5t-52 53t-19.5 81q0 54 22 93.5t58.5 65t83 38t95.5 12.5q55 0 102 -13t82 -41t56 -70.5t23 -101.5h-90z " glyph-name="S"/>
<glyph unicode="T" horiz-adv-x="574" d="M240 634h-238v80h571v-80h-238v-634h-95v634z" glyph-name="T"/>
<glyph unicode="U" horiz-adv-x="722" d="M648 258q0 -136 -73.5 -205.5t-207.5 -69.5q-69 0 -123.5 16t-92 50t-57.5 86t-20 123v456h95v-456q0 -95 51.5 -145t146.5 -50q91 0 138.5 50t47.5 145v456h95v-456z" glyph-name="U"/>
<glyph unicode="V" horiz-adv-x="611" d="M359 0h-108l-252 714h103l204 -619h2l206 619h99z" glyph-name="V"/>
<glyph unicode="W" horiz-adv-x="926" d="M723 0h-99l-163 600h-2l-165 -600h-99l-183 714h97l140 -594h2l160 594h103l158 -594h2l145 594h95z" glyph-name="W"/>
<glyph unicode="X" horiz-adv-x="611" d="M248 367l-235 347h114l178 -279l186 279h106l-236 -347l251 -367h-116l-192 295l-198 -295h-107z" glyph-name="X"/>
<glyph unicode="Y" horiz-adv-x="648" d="M373 292v-292h-95v292l-276 422h113l214 -340l209 340h108z" glyph-name="Y"/>
<glyph unicode="Z" horiz-adv-x="611" d="M22 80l444 554h-410v80h522v-80l-443 -554h455v-80h-568v80z" glyph-name="Z"/>
<glyph unicode="[" horiz-adv-x="259" d="M259 663h-107v-793h107v-68h-187v929h187v-68z" glyph-name="bracketleft"/>
<glyph unicode="\" horiz-adv-x="333" d="M351 -17h-73l-296 748h73z" glyph-name="backslash"/>
<glyph unicode="]" horiz-adv-x="259" d="M0 -130h107v793h-107v68h187v-929h-187v68z" glyph-name="bracketright"/>
<glyph unicode="^" horiz-adv-x="600" d="M268 697h64l218 -433h-70l-181 360l-178 -360h-71z" glyph-name="asciicircum"/>
<glyph unicode="_" horiz-adv-x="500" d="M0 -75h500v-50h-500v50z" glyph-name="underscore"/>
<glyph unicode="`" horiz-adv-x="222" d="M-23 732h109l86 -143h-64z" glyph-name="grave"/>
<glyph unicode="a" horiz-adv-x="537" d="M384 267q-12 -9 -30 -14t-38 -8.5t-42.5 -6t-43.5 -6.5t-40 -10t-33 -16.5t-22.5 -26.5t-8.5 -40q0 -21 8.5 -35.5t22 -23.5t31.5 -13t38 -4q42 0 72 11.5t49 29t28 38t9 38.5v87zM522 2q-23 -14 -61 -14q-33 0 -52.5 19t-19.5 61q-35 -42 -81.5 -61t-100.5 -19 q-35 0 -66.5 8t-54.5 25.5t-36.5 45t-13.5 66.5q0 44 15 72t39.5 45t56 26.5t64.5 15.5q35 7 66.5 10.5t55.5 10t38 19t14 36.5q0 28 -10.5 45t-27 26t-37 12t-40.5 3q-54 0 -90 -20.5t-39 -77.5h-85q2 48 20 81t48 53.5t69 29.5t82 9q35 0 69.5 -5t62.5 -20.5t45 -43.5 t17 -73v-266q0 -30 3.5 -44t23.5 -14q12 0 26 5v-66z" glyph-name="a"/>
<glyph unicode="b" horiz-adv-x="593" d="M467 263q0 36 -9.5 70.5t-29 61.5t-50 43t-71.5 16q-43 0 -73 -17t-49 -44.5t-27.5 -62.5t-8.5 -71q0 -38 9 -73.5t28.5 -62.5t50.5 -43.5t75 -16.5q43 0 73 17t48 45t26 64t8 74zM67 714h85v-267h2q21 43 66 62.5t99 19.5q60 0 104.5 -22t74 -59.5t44.5 -86.5t15 -104 t-14.5 -104t-44 -85.5t-74 -58t-103.5 -21.5q-20 0 -43 4t-46 13.5t-43.5 25t-34.5 38.5h-2v-69h-85v714z" glyph-name="b"/>
<glyph unicode="c" horiz-adv-x="537" d="M415 351q-10 49 -42.5 76t-85.5 27q-46 0 -77 -17t-49.5 -45t-26.5 -64.5t-8 -75.5q0 -36 8.5 -70t26.5 -60.5t46.5 -42.5t69.5 -16q62 0 98 33.5t44 92.5h87q-14 -95 -72 -148t-156 -53q-59 0 -104.5 19.5t-76 54.5t-46 83.5t-15.5 106.5t15 108.5t45.5 88t76 59 t107.5 21.5q44 0 82.5 -10.5t68.5 -32.5t48.5 -55.5t23.5 -79.5h-88z" glyph-name="c"/>
<glyph unicode="d" horiz-adv-x="593" d="M526 0h-85v70h-2q-21 -43 -66 -62.5t-99 -19.5q-60 0 -104.5 22t-74 59.5t-44.5 86.5t-15 104t14.5 103.5t44 85.5t74 58.5t103.5 21.5q20 0 43 -4t46 -13.5t43.5 -25t34.5 -38.5h2v266h85v-714zM126 254q0 -36 9.5 -70.5t29 -61.5t50 -43t71.5 -16q43 0 73 17t49 44.5 t27.5 62.5t8.5 71q0 38 -9 73.5t-28.5 62.5t-50.5 43.5t-75 16.5t-73.5 -17t-47.5 -45t-26 -64t-8 -74z" glyph-name="d"/>
<glyph unicode="e" horiz-adv-x="537" d="M505 164q-17 -86 -75 -131t-146 -45q-62 0 -107.5 20.5t-76.5 56.5t-46.5 86t-17.5 109q0 58 18 107.5t50.5 85.5t77 56t97.5 20q69 0 114.5 -28.5t73 -72.5t37.5 -96q9 -44 9 -84v-15h-387v-7q0 -30 8 -58q9 -30 29 -53.5t51 -37.5t73 -14q53 0 88 25t46 76h84zM423 308 q-2 30 -13.5 57t-31 46.5t-46.5 31t-58 11.5q-33 0 -59.5 -11.5t-45.5 -31.5t-30 -46.5t-13 -56.5h297z" glyph-name="e"/>
<glyph unicode="f" horiz-adv-x="296" d="M99 442h-87v75h87v77q0 63 36.5 95.5t106.5 32.5q12 0 27.5 -2t27.5 -6v-74q-11 4 -24 5.5t-24 1.5q-31 0 -48 -12t-17 -46v-72h100v-75h-100v-442h-85v442z" glyph-name="f"/>
<glyph unicode="g" horiz-adv-x="574" d="M272 69q42 0 71.5 17.5t47.5 46t26.5 64.5t8.5 72q0 34 -8 67t-25.5 59.5t-45.5 42.5t-68 16q-41 0 -70 -15.5t-47.5 -41.5t-27 -60t-8.5 -71q0 -35 7 -70t24 -63.5t45 -46t70 -17.5zM510 44q0 -127 -58.5 -190.5t-181.5 -63.5q-36 0 -73.5 8t-68 26t-50.5 47t-22 71h85 q1 -23 14.5 -39t33 -26t42.5 -14.5t44 -4.5q42 0 71 14.5t48 40t27.5 61.5t8.5 80v34h-2q-11 -24 -28 -41.5t-38.5 -29t-46 -17.5t-48.5 -6q-58 0 -101 21t-72 57t-43.5 83.5t-14.5 100.5q0 46 12 94t40 88t74 65.5t113 25.5q49 0 90 -21.5t64 -64.5h1v74h80v-473z" glyph-name="g"/>
<glyph unicode="h" d="M64 714h85v-273h2q10 23 28.5 40t40.5 27.5t46.5 15.5t47.5 5q51 0 85 -14t55 -39t29.5 -59.5t8.5 -76.5v-340h-85v350q0 48 -28 76t-77 28q-39 0 -67.5 -12t-47.5 -34t-28.5 -51.5t-9.5 -64.5v-292h-85v714z" glyph-name="h"/>
<glyph unicode="i" horiz-adv-x="222" d="M69 517h85v-517h-85v517zM154 610h-85v104h85v-104z" glyph-name="i"/>
<glyph unicode="j" horiz-adv-x="222" d="M154 -66q0 -69 -33.5 -100.5t-90.5 -31.5q-11 0 -22 1t-22 3v73q9 -2 17 -2h18q28 0 38 15.5t10 55.5v569h85v-583zM154 610h-85v104h85v-104z" glyph-name="j"/>
<glyph unicode="k" horiz-adv-x="519" d="M69 714h85v-423l236 226h114l-205 -188l220 -329h-108l-177 270l-80 -74v-196h-85v714z" glyph-name="k"/>
<glyph unicode="l" horiz-adv-x="222" d="M69 714h85v-714h-85v714z" glyph-name="l"/>
<glyph unicode="m" horiz-adv-x="853" d="M64 517h80v-76h2q58 88 167 88q48 0 87 -20t55 -68q26 42 69 65t93 23q39 0 70.5 -8.5t54 -26.5t35 -46.5t12.5 -68.5v-379h-85v339q0 24 -4 45t-15 36.5t-30.5 24.5t-50.5 9q-62 0 -98.5 -36t-36.5 -96v-322h-85v339q0 25 -4.5 46t-15.5 36.5t-30 24t-47 8.5 q-38 0 -64 -15t-42.5 -36t-24 -43.5t-7.5 -37.5v-322h-85v517z" glyph-name="m"/>
<glyph unicode="n" d="M64 517h80v-82h2q27 48 69.5 71t98.5 23q51 0 85 -14t55 -39t29.5 -59.5t8.5 -76.5v-340h-85v350q0 48 -28 76t-77 28q-39 0 -67.5 -12t-47.5 -34t-28.5 -51.5t-9.5 -64.5v-292h-85v517z" glyph-name="n"/>
<glyph unicode="o" horiz-adv-x="574" d="M36 258q0 57 16 106.5t48 86t78.5 57.5t108.5 21q61 0 108 -21t79 -57.5t48 -86t16 -106.5t-16 -106t-48 -85.5t-79 -57.5t-108 -21q-62 0 -108.5 21t-78.5 57.5t-48 85.5t-16 106zM126 258q0 -47 12.5 -83.5t34.5 -61t51.5 -37.5t62.5 -13t62.5 13t51.5 37.5t34.5 61 t12.5 83.5t-12.5 83.5t-34.5 61.5t-51.5 38t-62.5 13t-62.5 -13t-51.5 -38t-34.5 -61.5t-12.5 -83.5z" glyph-name="o"/>
<glyph unicode="p" horiz-adv-x="593" d="M467 263q0 36 -9.5 70.5t-29 61.5t-50 43t-71.5 16q-43 0 -73 -17t-49 -44.5t-27.5 -62.5t-8.5 -71q0 -38 9 -73.5t28.5 -62.5t50.5 -43.5t75 -16.5q43 0 73 17t48 45t26 64t8 74zM67 517h85v-70h2q21 43 66 62.5t99 19.5q60 0 104.5 -22t74 -59.5t44.5 -86.5t15 -104 t-14.5 -104t-44 -85.5t-74 -58t-103.5 -21.5q-20 0 -43 4t-46 13.5t-43.5 25t-34.5 38.5h-2v-267h-85v715z" glyph-name="p"/>
<glyph unicode="q" horiz-adv-x="593" d="M526 -198h-85v268h-2q-21 -43 -66 -62.5t-99 -19.5q-60 0 -104.5 22t-74 59.5t-44.5 86.5t-15 104t14.5 103.5t44 85.5t74 58.5t103.5 21.5q20 0 43 -4t46 -13.5t43.5 -25t34.5 -38.5h2v69h85v-715zM126 254q0 -36 9.5 -70.5t29 -61.5t50 -43t71.5 -16q43 0 73 17 t49 44.5t27.5 62.5t8.5 71q0 38 -9 73.5t-28.5 62.5t-50.5 43.5t-75 16.5t-73.5 -17t-47.5 -45t-26 -64t-8 -74z" glyph-name="q"/>
<glyph unicode="r" horiz-adv-x="333" d="M61 517h80v-109h2q31 63 76 93q42 28 105 28h9v-90q-51 0 -87 -14t-58 -41t-32 -66t-10 -88v-230h-85v517z" glyph-name="r"/>
<glyph unicode="s" horiz-adv-x="500" d="M116 163q1 -29 13 -48t31.5 -30.5t44 -16.5t50.5 -5q20 0 42 3t40.5 11t30.5 23.5t12 39.5q0 25 -14.5 40.5t-38 25.5t-54 16.5t-62.5 13.5t-62 17t-54 26t-38.5 41t-14.5 62q0 39 17.5 67t45 45.5t62 26t68.5 8.5q43 0 80.5 -7.5t66 -26t45.5 -50t20 -78.5h-85 q-2 25 -13.5 41.5t-28 26.5t-37 14.5t-41.5 4.5q-19 0 -38.5 -3t-35.5 -10.5t-26 -20.5t-10 -32q0 -23 15.5 -37t39.5 -23.5t54 -16t60 -13.5q32 -7 62.5 -17t54 -26.5t38 -41.5t14.5 -62q0 -46 -19.5 -77.5t-51 -50.5t-71 -27t-78.5 -8q-44 0 -82.5 9.5t-68.5 30t-48 54 t-20 81.5h85z" glyph-name="s"/>
<glyph unicode="t" horiz-adv-x="315" d="M182 517h103v-75h-103v-321q0 -15 2.5 -24t9.5 -14t19.5 -6.5t32.5 -1.5h39v-75h-65q-33 0 -56.5 4.5t-38 16.5t-21.5 34t-7 58v329h-88v75h88v155h85v-155z" glyph-name="t"/>
<glyph unicode="u" d="M492 0h-80v82h-2q-27 -48 -69.5 -71t-98.5 -23q-51 0 -85 14t-55 39t-29.5 59.5t-8.5 76.5v340h85v-350q0 -48 28 -76t77 -28q39 0 67.5 12t47.5 34t28.5 51.5t9.5 64.5v292h85v-517z" glyph-name="u"/>
<glyph unicode="v" horiz-adv-x="500" d="M297 0h-91l-192 517h95l145 -431h2l141 431h89z" glyph-name="v"/>
<glyph unicode="w" horiz-adv-x="758" d="M576 0h-90l-105 411h-2l-104 -411h-92l-166 517h94l117 -423h2l104 423h93l108 -423h2l116 423h88z" glyph-name="w"/>
<glyph unicode="x" horiz-adv-x="518" d="M203 272l-180 245h109l124 -181l129 181h102l-178 -238l200 -279h-109l-144 214l-144 -214h-103z" glyph-name="x"/>
<glyph unicode="y" horiz-adv-x="500" d="M267 -69q-15 -38 -29.5 -64t-31.5 -42.5t-39 -24t-50 -7.5q-15 0 -30 2t-29 7v78q12 -4 24.5 -8t25.5 -4q26 0 42 12t28 35l35 88l-205 514h96l151 -423h2l145 423h90z" glyph-name="y"/>
<glyph unicode="z" horiz-adv-x="480" d="M22 65l312 377h-292v75h402v-58l-316 -384h330v-75h-436v65z" glyph-name="z"/>
<glyph unicode="{" horiz-adv-x="333" d="M309 671h-50q-15 0 -24 -7.5t-14.5 -19.5t-7.5 -27.5t-2 -31.5v-183q0 -35 -10.5 -59.5t-24.5 -40.5t-28.5 -24t-23.5 -10v-3q9 -1 23.5 -8t28.5 -22t24.5 -40.5t10.5 -63.5v-183q0 -15 2 -30.5t7.5 -28t14.5 -20t24 -7.5h50v-60h-70q-19 0 -38 8.5t-34.5 25t-25.5 41 t-10 56.5v182q0 55 -25.5 86t-57.5 31v68q16 0 31 8.5t26.5 24t18.5 37.5t7 48v182q0 32 10 56.5t25.5 41t34.5 25t38 8.5h70v-60z" glyph-name="braceleft"/>
<glyph unicode="|" horiz-adv-x="222" d="M77 786h68v-1000h-68v1000z" glyph-name="bar"/>
<glyph unicode="}" horiz-adv-x="333" d="M24 -138h50q15 0 24 7.5t14.5 19.5t7.5 27.5t2 31.5v183q0 35 10.5 59.5t24.5 40.5t28.5 24t23.5 10v3q-9 1 -23.5 8t-28.5 22t-24.5 40.5t-10.5 63.5v181q0 16 -2 32t-7.5 28.5t-14.5 20t-24 7.5h-50v60h70q19 0 38 -8.5t34.5 -25t25.5 -41t10 -56.5v-182q0 -27 7 -49 t18.5 -37.5t26.5 -23.5t31 -8v-68q-16 0 -31 -8.5t-26.5 -24t-18.5 -37t-7 -47.5v-182q0 -32 -10 -56.5t-25.5 -41t-34.5 -25t-38 -8.5h-70v60z" glyph-name="braceright"/>
<glyph unicode="~" horiz-adv-x="600" d="M531 269q-11 -16 -23.5 -31.5t-27 -27.5t-33 -19.5t-41.5 -7.5q-28 0 -52.5 9.5t-49.5 23.5q-24 14 -52 26.5t-63 12.5q-17 0 -29.5 -7t-23 -18t-18 -24.5t-13.5 -26.5l-36 50q8 16 19.5 31.5t26.5 27.5t34.5 19.5t44.5 7.5q26 0 54 -9.5t57 -22.5q28 -12 55 -26t47 -14 q15 0 27.5 7t23 18t19.5 24.5t18 26.5z" glyph-name="asciitilde"/>
<glyph unicode=" " horiz-adv-x="278" glyph-name="uni00A0"/>
<glyph unicode="¡" horiz-adv-x="259" d="M82 22l25 311h45l25 -311v-220h-95v220zM185 406h-111v111h111v-111z" glyph-name="exclamdown"/>
<glyph unicode="¢" d="M272 454q-39 -5 -65 -23t-41.5 -45.5t-22.5 -62t-7 -71.5q0 -34 7.5 -67t24 -59t42.5 -43t62 -20v391zM272 -12q-55 2 -97 23t-70.5 56t-43.5 82t-15 103q0 54 14 102.5t42.5 86t71 61t98.5 27.5v95h39v-95q82 -2 137 -44.5t66 -133.5h-87q-10 46 -39 73.5t-77 29.5v-391 q54 5 83.5 40t37.5 86h85q-4 -37 -19 -73t-41 -64.5t-62.5 -46t-83.5 -17.5v-104h-39v104z" glyph-name="cent"/>
<glyph unicode="£" d="M47 372h58q-20 34 -33.5 71.5t-13.5 84.5q0 48 18.5 85.5t50 63.5t72.5 40t87 14q111 0 173.5 -63.5t62.5 -186.5v-8h-85q-2 87 -38 135t-108 48q-30 0 -56 -10t-45.5 -27.5t-30.5 -41.5t-11 -52q0 -25 5 -45t12.5 -38t16.5 -35t18 -35h159v-45h-137q8 -16 14 -35t6 -40 q0 -34 -9.5 -60.5t-26 -49t-37.5 -41.5t-43 -37l2 -2q26 11 50.5 20t54.5 9q29 0 52 -5t43 -10q20 -6 40.5 -12t43.5 -6q24 0 47.5 11.5t41.5 25.5l43 -66q-30 -26 -68.5 -36t-77.5 -10q-25 0 -49 6t-50 14q-25 8 -50.5 14.5t-54.5 6.5t-53 -9.5t-47 -25.5l-47 66 q21 14 41 33t35.5 42t24.5 49t9 55q0 23 -8 48t-17 45h-85v45z" glyph-name="sterling"/>
<glyph unicode="¤" d="M74 604l56 -56q29 24 69 37.5t82 13.5q40 0 78 -13.5t65 -36.5l57 56l50 -51l-55 -55q26 -28 39 -67t13 -81t-13 -80.5t-39 -69.5l55 -56l-47 -47l-56 58q-29 -27 -67.5 -41t-80.5 -14q-44 0 -83 13.5t-69 40.5l-55 -58l-48 48l55 58q-25 30 -38.5 67t-13.5 79t13 81 t41 67l-57 58zM281 524q-36 0 -66.5 -13.5t-53 -37t-35.5 -55.5t-13 -69q0 -36 13 -68t35.5 -55t53 -36.5t65.5 -13.5t65 14t51.5 37.5t34 55.5t12.5 68q0 35 -12.5 66.5t-34 55t-51.5 37.5t-64 14z" glyph-name="currency"/>
<glyph unicode="¥" d="M232 174h-141v60h141v42l-18 33h-123v60h92l-183 345h109l174 -353l169 353h104l-178 -345h93v-60h-126l-18 -33v-42h144v-60h-144v-174h-95v174z" glyph-name="yen"/>
<glyph unicode="¦" horiz-adv-x="222" d="M77 161h68v-250h-68v250zM145 411h-68v250h68v-250z" glyph-name="brokenbar"/>
<glyph unicode="§" d="M190 420q-29 -10 -51 -34.5t-22 -56.5q0 -24 9.5 -42t24.5 -32t34 -25.5t37 -22.5q36 -19 71 -39.5t69 -43.5q29 12 50.5 35.5t21.5 57.5q0 21 -10.5 38.5t-26.5 32t-34.5 26t-34.5 21.5q-35 21 -69.5 41.5t-68.5 43.5zM380 546q-1 46 -27 78t-74 32q-40 0 -67.5 -21 t-27.5 -65q0 -24 14 -43.5t37.5 -37t53 -33.5t61.5 -33q31 -17 61 -35.5t53 -41.5t37.5 -52t14.5 -65q0 -24 -8 -47t-21.5 -42.5t-33 -34t-41.5 -23.5q59 -44 59 -120q0 -36 -14 -65.5t-39 -50.5t-59.5 -32.5t-74.5 -11.5q-89 0 -142 50.5t-59 138.5h85q1 -51 32 -82.5 t82 -31.5q18 0 36.5 5t32.5 15.5t23 26t9 36.5q0 26 -15 47t-39.5 39t-55.5 35t-64 35q-32 17 -63.5 36.5t-56 44.5t-39.5 56t-15 72q0 23 8.5 45.5t23 41t34 32t41.5 19.5q-22 23 -34 48.5t-12 57.5q0 39 16 69t42 51t59 31.5t68 10.5q82 0 132 -45.5t52 -139.5h-85z" glyph-name="section"/>
<glyph unicode="¨" horiz-adv-x="222" d="M160 706h90v-104h-90v104zM-28 706h90v-104h-90v104z" glyph-name="dieresis"/>
<glyph unicode="©" horiz-adv-x="800" d="M24 359q0 79 30 147t81.5 118t120 78.5t145.5 28.5q76 0 144.5 -28.5t119.5 -78.5t81 -118t30 -147q0 -81 -30 -149.5t-81 -119t-119.5 -79t-144.5 -28.5q-77 0 -145.5 28.5t-120 79t-81.5 119t-30 149.5zM92 359q0 -69 23.5 -127.5t65 -101.5t98 -67.5t122.5 -24.5 q65 0 121 24.5t97.5 67.5t65 101.5t23.5 127.5q0 67 -23.5 124.5t-65 100.5t-97.5 67.5t-121 24.5q-66 0 -122.5 -24.5t-98 -67.5t-65 -100.5t-23.5 -124.5zM599 285q-16 -73 -66.5 -115t-119.5 -42q-51 0 -92 17.5t-70 48t-44.5 72.5t-15.5 91q0 50 15 92t43 72t69 47 t92 17q36 0 67.5 -9.5t56.5 -29t41.5 -48t22.5 -65.5h-63q-8 42 -41 69.5t-83 27.5q-37 0 -65.5 -13t-47.5 -36.5t-29 -54.5t-10 -67q0 -35 10.5 -67t30.5 -56t48.5 -38.5t64.5 -14.5q50 0 82.5 28.5t39.5 73.5h64z" glyph-name="copyright"/>
<glyph unicode="ª" horiz-adv-x="378" d="M317 462q0 -18 3 -25t11 -7h11t11 2v-44q-10 -4 -20 -6t-23 -2q-48 0 -51 46q-44 -46 -117 -46q-24 0 -45 5t-37 16t-25.5 28t-9.5 40q0 26 10.5 44t27.5 29.5t38.5 17.5t43.5 8q35 4 57.5 7t35 7.5t17.5 11t5 16.5q0 16 -6.5 26t-17.5 15t-25 6.5t-28 1.5 q-36 0 -58.5 -12t-24.5 -44h-60q1 29 13.5 49t32.5 33t46 18.5t55 5.5q22 0 45.5 -3.5t42 -13t30.5 -26.5t12 -44v-160zM155 430q28 0 47.5 6.5t31.5 16.5t17.5 22.5t5.5 23.5v47q-16 -10 -44 -14t-56 -9q-27 -5 -45.5 -15.5t-18.5 -36.5t18.5 -33.5t43.5 -7.5z" glyph-name="ordfeminine"/>
<glyph unicode="«" horiz-adv-x="463" d="M246 234v88l152 120v-86l-100 -78l100 -78v-86zM50 234v88l152 120v-86l-100 -78l100 -78v-86z" glyph-name="guillemotleft"/>
<glyph unicode="¬" horiz-adv-x="600" d="M552 109h-68v211h-436v68h504v-279z" glyph-name="logicalnot"/>
<glyph unicode="­" horiz-adv-x="389" d="M50 318h289v-80h-289v80z" glyph-name="uni00AD"/>
<glyph unicode="®" horiz-adv-x="800" d="M24 359q0 79 30 147t81.5 118t120 78.5t145.5 28.5q76 0 144.5 -28.5t119.5 -78.5t81 -118t30 -147q0 -81 -30 -149.5t-81 -119t-119.5 -79t-144.5 -28.5q-77 0 -145.5 28.5t-120 79t-81.5 119t-30 149.5zM92 359q0 -69 23.5 -127.5t65 -101.5t98 -67.5t122.5 -24.5 q65 0 121 24.5t97.5 67.5t65 101.5t23.5 127.5q0 67 -23.5 125t-65 100.5t-97.5 67t-121 24.5q-66 0 -122.5 -24.5t-98 -67t-65 -100.5t-23.5 -125zM255 576h169q78 0 115.5 -31t37.5 -94q0 -59 -33 -86.5t-82 -32.5l125 -193h-73l-119 188h-72v-188h-68v437zM323 382h71 q22 0 43 1.5t37 8.5t25.5 21.5t9.5 40.5q0 22 -8.5 35t-22 20t-31 9.5t-34.5 2.5h-90v-139z" glyph-name="registered"/>
<glyph unicode="¯" horiz-adv-x="222" d="M-59 682h341v-55h-341v55z" glyph-name="macron"/>
<glyph unicode="°" horiz-adv-x="400" d="M56 565q0 30 11 56t30.5 45.5t46 31t56.5 11.5t56 -11.5t45.5 -31t31 -45.5t11.5 -56t-11.5 -56.5t-31 -46t-45.5 -30.5t-56 -11t-56.5 11t-46 30.5t-30.5 46t-11 56.5zM106 565q0 -18 6.5 -34.5t18.5 -30t29.5 -21.5t39.5 -8t39.5 8t29.5 21.5t18.5 30t6.5 34.5 t-6.5 34.5t-18.5 30t-29.5 21.5t-39.5 8t-39.5 -8t-29.5 -21.5t-18.5 -30t-6.5 -34.5z" glyph-name="degree"/>
<glyph unicode="±" horiz-adv-x="600" d="M48 339h218v166h68v-166h218v-68h-218v-167h-68v167h-218v68zM48 68h504v-68h-504v68z" glyph-name="plusminus"/>
<glyph unicode="²" horiz-adv-x="333" d="M22 555q0 69 41.5 111.5t111.5 42.5q30 0 57 -8.5t47.5 -24.5t32 -39.5t11.5 -53.5q0 -28 -10 -49.5t-25.5 -38.5t-36 -31t-41.5 -26q-21 -13 -42.5 -25t-39 -24t-30 -25.5t-16.5 -28.5h235v-55h-303q2 38 12.5 64.5t27.5 46.5t39 34.5t46 28.5q29 17 51 31t36.5 28.5 t21.5 31.5t7 39q0 32 -24 51t-59 19q-45 0 -63.5 -30t-18.5 -69h-68z" glyph-name="twosuperior"/>
<glyph unicode="³" horiz-adv-x="333" d="M132 527h24q33 0 58 15t25 50q0 30 -22 46t-55 16q-41 0 -60.5 -24.5t-19.5 -61.5h-68q4 65 42.5 103t105.5 38q31 0 57.5 -7.5t46 -22t30.5 -36.5t11 -51t-20 -51.5t-48 -33.5v-2q44 -8 65.5 -36t21.5 -66q0 -33 -13.5 -57.5t-36 -40.5t-52 -24t-60.5 -8q-33 0 -62.5 9 t-51 26.5t-34 44t-12.5 61.5h68q1 -42 24.5 -64t67.5 -22q38 0 66 19t28 53q0 21 -8 35.5t-21 24t-29.5 13.5t-34.5 4h-33v50z" glyph-name="threesuperior"/>
<glyph unicode="´" horiz-adv-x="222" d="M136 732h109l-131 -143h-64z" glyph-name="acute"/>
<glyph unicode="µ" d="M492 0h-80v82h-2q-27 -48 -69.5 -71t-98.5 -23q-32 0 -55 9t-36 29h-2v-224h-85v715h85v-350q0 -48 28 -76t77 -28q39 0 67.5 12t47.5 34t28.5 51.5t9.5 64.5v292h85v-517z" glyph-name="mu"/>
<glyph unicode="¶" horiz-adv-x="600" d="M515 -155h-68v814h-122v-814h-68v477q-46 0 -84.5 14.5t-66 39.5t-43 59t-15.5 73q0 98 61 152t167 54h239v-869z" glyph-name="paragraph"/>
<glyph unicode="·" horiz-adv-x="278" d="M75 311q0 26 19 45t45 19t45 -19t19 -45q0 -24 -19 -44t-44 -20q-26 0 -45.5 19t-19.5 45z" glyph-name="periodcentered"/>
<glyph unicode="¸" horiz-adv-x="222" d="M23 -147q12 -5 28.5 -9t32.5 -4q10 0 21 1.5t20 5.5t15 9.5t6 14.5q0 14 -13.5 22.5t-33.5 8.5q-12 0 -21 -2t-20 -6l-17 28l61 78h42l-42 -53l2 -2q10 7 33 7q16 0 31 -4.5t27 -13.5t19 -23t7 -32q0 -25 -11.5 -42t-29.5 -27.5t-40 -15t-43 -4.5q-24 0 -46.5 5.5 t-45.5 13.5z" glyph-name="cedilla"/>
<glyph unicode="¹" horiz-adv-x="333" d="M249 280h-68v308h-115v50q24 0 46 3.5t40 11.5t30 21.5t17 34.5h50v-429z" glyph-name="onesuperior"/>
<glyph unicode="º" horiz-adv-x="384" d="M192 709q41 0 72 -12.5t52 -35t32 -53t11 -65.5q0 -72 -42 -117.5t-124 -45.5q-40 0 -71 12t-52.5 34t-33 51.5t-11.5 65.5q0 35 11 65t32 52.5t52 35.5t72 13zM192 659q-41 0 -70 -28t-29 -88q0 -23 5.5 -43t17.5 -36t31 -25t46 -9t45.5 9t30 24.5t17 35.5t5.5 43 q0 36 -9.5 59t-24 36t-32 17.5t-33.5 4.5z" glyph-name="ordmasculine"/>
<glyph unicode="»" horiz-adv-x="463" d="M217 322v-88l-152 -120v86l100 78l-100 78v86zM413 322v-88l-152 -120v86l100 78l-100 78v86z" glyph-name="guillemotright"/>
<glyph unicode="¼" horiz-adv-x="834" d="M723 151h60v-55h-60v-96h-62v96h-199v58l210 275h51v-278zM511 151h150v193h-2zM585 725h64l-435 -753h-64zM219 280h-68v308h-115v50q24 0 46 3t40 11.5t30 22t17 34.5h50v-429z" glyph-name="onequarter"/>
<glyph unicode="½" horiz-adv-x="834" d="M570 725h64l-435 -753h-64zM219 280h-68v308h-115v50q24 0 46 3t40 11.5t30 22t17 34.5h50v-429zM502 275q0 69 41.5 111.5t111.5 42.5q30 0 57 -8.5t47.5 -24.5t32 -39.5t11.5 -53.5q0 -28 -10 -49.5t-25.5 -38.5t-36 -31t-41.5 -26q-21 -13 -42.5 -25t-39 -24 t-30 -25.5t-16.5 -28.5h235v-55h-303q2 38 12.5 64.5t27.5 46.5t39 34.5t46 28.5q29 17 51 31t36.5 28.5t21.5 31.5t7 39q0 32 -24 51t-59 19q-45 0 -63.5 -30t-18.5 -69h-68z" glyph-name="onehalf"/>
<glyph unicode="¾" horiz-adv-x="834" d="M740 151h60v-55h-60v-96h-62v96h-199v58l210 275h51v-278zM529 147h150v193h-2zM650 725h64l-435 -753h-64zM177 527h24q33 0 58 15t25 50q0 30 -22 46t-55 16q-41 0 -60.5 -24.5t-19.5 -61.5h-68q4 65 42.5 103t105.5 38q31 0 57.5 -7.5t46 -22t30.5 -36.5t11 -51 t-20 -51.5t-48 -33.5v-2q44 -8 65.5 -36t21.5 -66q0 -33 -13.5 -57.5t-36 -40.5t-52 -24t-60.5 -8q-33 0 -62.5 9t-51 26.5t-34 44t-12.5 61.5h68q1 -42 24.5 -64t67.5 -22q38 0 66 19t28 53q0 21 -8 35.5t-21 24t-29.5 13.5t-34.5 4h-33v50z" glyph-name="threequarters"/>
<glyph unicode="¿" d="M503 30v-6q0 -48 -15 -90.5t-44 -75t-71 -50.5t-94 -18q-46 0 -85 13.5t-67 39t-43.5 62.5t-15.5 85q0 31 7 55.5t19 44.5t27.5 37t32.5 33q16 15 31.5 30.5t28 33t20 38t7.5 46.5v31h85v-39q0 -31 -8.5 -55t-21.5 -44t-29 -36.5t-31 -31.5t-29.5 -30t-26 -32.5 t-17 -36.5t-5.5 -39v-13q4 -55 35.5 -86t85.5 -31q36 0 62 13t43.5 35t25.5 52t8 65h85zM337 406h-111v111h111v-111z" glyph-name="questiondown"/>
<glyph unicode="À" horiz-adv-x="648" d="M272 714h105l279 -714h-105l-78 215h-302l-80 -215h-98zM201 295h242l-119 333h-2zM178 922h109l86 -143h-64z" glyph-name="Agrave"/>
<glyph unicode="Á" horiz-adv-x="648" d="M272 714h105l279 -714h-105l-78 215h-302l-80 -215h-98zM201 295h242l-119 333h-2zM362 922h109l-131 -143h-64z" glyph-name="Aacute"/>
<glyph unicode="Â" horiz-adv-x="648" d="M272 714h105l279 -714h-105l-78 215h-302l-80 -215h-98zM201 295h242l-119 333h-2zM279 922h93l104 -143h-84l-69 96l-70 -96h-77z" glyph-name="Acircumflex"/>
<glyph unicode="Ã" horiz-adv-x="648" d="M272 714h105l279 -714h-105l-78 215h-302l-80 -215h-98zM201 295h242l-119 333h-2zM497 907q-6 -44 -32 -79q-13 -16 -29.5 -24t-39.5 -8q-21 0 -39 6t-36 14q-18 7 -35 13t-31 6q-8 0 -16.5 -3t-14.5 -8.5t-9.5 -11.5t-8.5 -19h-52q5 24 13.5 43.5t21 34t30 23.5t41.5 9 q20 0 38 -6t35 -14t33.5 -14t32.5 -6q18 0 29 12t17 32h52z" glyph-name="Atilde"/>
<glyph unicode="Ä" horiz-adv-x="648" d="M272 714h105l279 -714h-105l-78 215h-302l-80 -215h-98zM201 295h242l-119 333h-2zM373 897h90v-104h-90v104zM185 897h90v-104h-90v104z" glyph-name="Adieresis"/>
<glyph unicode="Å" horiz-adv-x="648" d="M257 860q0 -29 19 -48.5t48 -19.5t48 19.5t19 48.5t-19 48.5t-48 19.5t-48 -19.5t-19 -48.5zM211 861q0 23 9 43.5t24.5 36t36 24t43.5 8.5t43.5 -8.5t36 -24t24.5 -36t9 -43.5t-9 -43.5t-24.5 -36t-36 -24t-43.5 -8.5t-43.5 8.5t-36 24t-24.5 36t-9 43.5zM272 714h105 l279 -714h-105l-78 215h-302l-80 -215h-98zM201 295h242l-119 333h-2z" glyph-name="Aring"/>
<glyph unicode="Æ" horiz-adv-x="926" d="M354 714h535v-80h-351v-227h330v-80h-330v-247h357v-80h-447v208h-246l-102 -208h-107zM407 634l-168 -346h209v346h-41z" glyph-name="AE"/>
<glyph unicode="Ç" horiz-adv-x="722" d="M580 499q-8 38 -26 66.5t-44.5 47.5t-59.5 28.5t-70 9.5q-64 0 -109.5 -24t-75 -64.5t-43.5 -92.5t-14 -108q0 -61 14 -115.5t43.5 -95t75.5 -64.5t110 -24q47 0 83.5 15.5t63 43t41.5 65.5t18 82h95q-14 -132 -91.5 -207.5t-209.5 -77.5l-29 -37l2 -2q10 7 33 7 q16 0 31 -4.5t27 -13.5t19 -23t7 -32q0 -25 -11.5 -42t-29.5 -27.5t-40 -15t-43 -4.5q-24 0 -46.5 5.5t-45.5 13.5l18 44q12 -5 28.5 -9t32.5 -4q10 0 21 1.5t20 5.5t15 9.5t6 14.5q0 14 -13.5 22.5t-33.5 8.5q-12 0 -21 -2t-20 -6l-17 28l49 63q-75 6 -131 36.5t-92.5 80 t-55 114.5t-18.5 139q0 78 22 146.5t64.5 119.5t105.5 80.5t146 29.5q56 0 106 -15t89 -44t65 -72.5t34 -100.5h-95z" glyph-name="Ccedilla"/>
<glyph unicode="È" horiz-adv-x="611" d="M78 714h493v-80h-398v-227h371v-80h-371v-247h401v-80h-496v714zM168 922h109l86 -143h-64z" glyph-name="Egrave"/>
<glyph unicode="É" horiz-adv-x="611" d="M78 714h493v-80h-398v-227h371v-80h-371v-247h401v-80h-496v714zM370 922h109l-131 -143h-64z" glyph-name="Eacute"/>
<glyph unicode="Ê" horiz-adv-x="611" d="M78 714h493v-80h-398v-227h371v-80h-371v-247h401v-80h-496v714zM278 922h93l104 -143h-84l-69 96l-70 -96h-77z" glyph-name="Ecircumflex"/>
<glyph unicode="Ë" horiz-adv-x="611" d="M78 714h493v-80h-398v-227h371v-80h-371v-247h401v-80h-496v714zM377 896h90v-104h-90v104zM189 896h90v-104h-90v104z" glyph-name="Edieresis"/>
<glyph unicode="Ì" horiz-adv-x="259" d="M82 714h95v-714h-95v714zM-18 922h109l86 -143h-64z" glyph-name="Igrave"/>
<glyph unicode="Í" horiz-adv-x="259" d="M82 714h95v-714h-95v714zM169 922h109l-131 -143h-64z" glyph-name="Iacute"/>
<glyph unicode="Î" horiz-adv-x="259" d="M82 714h95v-714h-95v714zM87 922h93l104 -143h-84l-69 96l-70 -96h-77z" glyph-name="Icircumflex"/>
<glyph unicode="Ï" horiz-adv-x="259" d="M82 714h95v-714h-95v714zM179 896h90v-104h-90v104zM-9 896h90v-104h-90v104z" glyph-name="Idieresis"/>
<glyph unicode="Ð" horiz-adv-x="704" d="M78 339h-70v68h70v307h245q165 0 254 -84t89 -256q0 -90 -20 -159.5t-62 -117t-107 -72.5t-154 -25h-245v339zM173 407h214v-68h-214v-259h158q16 0 40 2.5t51 12t53.5 27.5t47.5 49t34.5 77.5t13.5 112.5q0 64 -12.5 114.5t-41 85.5t-73.5 54t-111 19h-160v-227z" glyph-name="Eth"/>
<glyph unicode="Ñ" horiz-adv-x="722" d="M77 714h101l376 -579h2v579h90v-714h-104l-373 573h-2v-573h-90v714zM539 907q-6 -44 -32 -79q-13 -16 -29.5 -24t-39.5 -8q-21 0 -39 6t-36 14q-18 7 -35 13t-31 6q-8 0 -16.5 -3t-14.5 -8.5t-9.5 -11.5t-8.5 -19h-52q5 24 13.5 43.5t21 34t30 23.5t41.5 9q20 0 38 -6 t35 -14t33.5 -14t32.5 -6q18 0 29 12t17 32h52z" glyph-name="Ntilde"/>
<glyph unicode="Ò" horiz-adv-x="760" d="M38 357q0 73 21.5 140.5t64.5 119.5t107 83t149 31t149 -31t107 -83t64.5 -119.5t21.5 -140.5t-21.5 -140.5t-64.5 -119.5t-107 -83t-149 -31t-149 31t-107 83t-64.5 119.5t-21.5 140.5zM133 357q0 -54 14 -106.5t44 -94.5t77 -67.5t112 -25.5t112 25.5t77 67.5t44 94.5 t14 106.5t-14 106.5t-44 94.5t-77 67.5t-112 25.5t-112 -25.5t-77 -67.5t-44 -94.5t-14 -106.5zM231 922h109l86 -143h-64z" glyph-name="Ograve"/>
<glyph unicode="Ó" horiz-adv-x="760" d="M38 357q0 73 21.5 140.5t64.5 119.5t107 83t149 31t149 -31t107 -83t64.5 -119.5t21.5 -140.5t-21.5 -140.5t-64.5 -119.5t-107 -83t-149 -31t-149 31t-107 83t-64.5 119.5t-21.5 140.5zM133 357q0 -54 14 -106.5t44 -94.5t77 -67.5t112 -25.5t112 25.5t77 67.5t44 94.5 t14 106.5t-14 106.5t-44 94.5t-77 67.5t-112 25.5t-112 -25.5t-77 -67.5t-44 -94.5t-14 -106.5zM411 922h109l-131 -143h-64z" glyph-name="Oacute"/>
<glyph unicode="Ô" horiz-adv-x="760" d="M38 357q0 73 21.5 140.5t64.5 119.5t107 83t149 31t149 -31t107 -83t64.5 -119.5t21.5 -140.5t-21.5 -140.5t-64.5 -119.5t-107 -83t-149 -31t-149 31t-107 83t-64.5 119.5t-21.5 140.5zM133 357q0 -54 14 -106.5t44 -94.5t77 -67.5t112 -25.5t112 25.5t77 67.5t44 94.5 t14 106.5t-14 106.5t-44 94.5t-77 67.5t-112 25.5t-112 -25.5t-77 -67.5t-44 -94.5t-14 -106.5zM335 922h93l104 -143h-84l-69 96l-70 -96h-77z" glyph-name="Ocircumflex"/>
<glyph unicode="Õ" horiz-adv-x="760" d="M38 357q0 73 21.5 140.5t64.5 119.5t107 83t149 31t149 -31t107 -83t64.5 -119.5t21.5 -140.5t-21.5 -140.5t-64.5 -119.5t-107 -83t-149 -31t-149 31t-107 83t-64.5 119.5t-21.5 140.5zM133 357q0 -54 14 -106.5t44 -94.5t77 -67.5t112 -25.5t112 25.5t77 67.5t44 94.5 t14 106.5t-14 106.5t-44 94.5t-77 67.5t-112 25.5t-112 -25.5t-77 -67.5t-44 -94.5t-14 -106.5zM554 907q-6 -44 -32 -79q-13 -16 -29.5 -24t-39.5 -8q-21 0 -39 6t-36 14q-18 7 -35 13t-31 6q-8 0 -16.5 -3t-14.5 -8.5t-9.5 -11.5t-8.5 -19h-52q5 24 13.5 43.5t21 34 t30 23.5t41.5 9q20 0 38 -6t35 -14t33.5 -14t32.5 -6q18 0 29 12t17 32h52z" glyph-name="Otilde"/>
<glyph unicode="Ö" horiz-adv-x="760" d="M38 357q0 73 21.5 140.5t64.5 119.5t107 83t149 31t149 -31t107 -83t64.5 -119.5t21.5 -140.5t-21.5 -140.5t-64.5 -119.5t-107 -83t-149 -31t-149 31t-107 83t-64.5 119.5t-21.5 140.5zM133 357q0 -54 14 -106.5t44 -94.5t77 -67.5t112 -25.5t112 25.5t77 67.5t44 94.5 t14 106.5t-14 106.5t-44 94.5t-77 67.5t-112 25.5t-112 -25.5t-77 -67.5t-44 -94.5t-14 -106.5zM430 896h90v-104h-90v104zM242 896h90v-104h-90v104z" glyph-name="Odieresis"/>
<glyph unicode="×" horiz-adv-x="600" d="M71 72l182 182l-181 180l48 48l181 -180l180 180l48 -48l-180 -180l181 -182l-48 -48l-181 182l-182 -182z" glyph-name="multiply"/>
<glyph unicode="Ø" horiz-adv-x="760" d="M552 577q-29 34 -72 54t-100 20q-65 0 -112 -25.5t-77 -67.5t-44 -94.5t-14 -106.5q0 -51 12 -99t38 -88zM210 134q29 -33 71 -52t99 -19q65 0 112 25.5t77 67.5t44 94.5t14 106.5q0 49 -11.5 97t-36.5 87zM723 700l-82 -90q41 -52 61 -117t20 -136q0 -73 -21.5 -140.5 t-64.5 -119.5t-107 -83t-149 -31q-73 0 -130 23t-99 63l-81 -89l-33 30l84 92q-42 51 -62.5 117t-20.5 138q0 73 21.5 140.5t64.5 119.5t107 83t149 31q75 0 132.5 -23.5t99.5 -64.5l79 87z" glyph-name="Oslash"/>
<glyph unicode="Ù" horiz-adv-x="722" d="M648 258q0 -136 -73.5 -205.5t-207.5 -69.5q-69 0 -123.5 16t-92 50t-57.5 86t-20 123v456h95v-456q0 -95 51.5 -145t146.5 -50q91 0 138.5 50t47.5 145v456h95v-456zM213 922h109l86 -143h-64z" glyph-name="Ugrave"/>
<glyph unicode="Ú" horiz-adv-x="722" d="M648 258q0 -136 -73.5 -205.5t-207.5 -69.5q-69 0 -123.5 16t-92 50t-57.5 86t-20 123v456h95v-456q0 -95 51.5 -145t146.5 -50q91 0 138.5 50t47.5 145v456h95v-456zM401 922h109l-131 -143h-64z" glyph-name="Uacute"/>
<glyph unicode="Û" horiz-adv-x="722" d="M648 258q0 -136 -73.5 -205.5t-207.5 -69.5q-69 0 -123.5 16t-92 50t-57.5 86t-20 123v456h95v-456q0 -95 51.5 -145t146.5 -50q91 0 138.5 50t47.5 145v456h95v-456zM318 922h93l104 -143h-84l-69 96l-70 -96h-77z" glyph-name="Ucircumflex"/>
<glyph unicode="Ü" horiz-adv-x="722" d="M648 258q0 -136 -73.5 -205.5t-207.5 -69.5q-69 0 -123.5 16t-92 50t-57.5 86t-20 123v456h95v-456q0 -95 51.5 -145t146.5 -50q91 0 138.5 50t47.5 145v456h95v-456zM411 896h90v-104h-90v104zM223 896h90v-104h-90v104z" glyph-name="Udieresis"/>
<glyph unicode="Ý" horiz-adv-x="648" d="M373 292v-292h-95v292l-276 422h113l214 -340l209 340h108zM380 922h109l-131 -143h-64z" glyph-name="Yacute"/>
<glyph unicode="Þ" horiz-adv-x="648" d="M78 0v714h95v-114h218q107 0 163 -56t56 -156t-55.5 -155t-159.5 -55h-4h-218v-178h-95zM173 258h186h5q77 0 114 33t37 97q0 65 -37.5 98.5t-118.5 33.5h-186v-262z" glyph-name="Thorn"/>
<glyph unicode="ß" d="M64 531q0 45 14 81.5t40 63t62.5 41t81.5 14.5q37 0 74 -11t66.5 -33t48 -55t18.5 -76q0 -56 -24 -96.5t-80 -58.5v-2q34 -4 59.5 -20.5t42.5 -40.5t25.5 -54.5t8.5 -63.5q0 -51 -17 -94t-47.5 -73.5t-73 -47.5t-93.5 -17q-11 0 -21.5 1t-21.5 3v74q8 -2 17 -2.5t17 -0.5 q69 0 109.5 40.5t40.5 105.5q0 49 -13 78.5t-37 45.5t-58 21t-76 5v68q9 -1 17 -1q21 0 44.5 4.5t44.5 18t33.5 36.5t12.5 58q0 24 -8.5 44.5t-23.5 35.5t-35 24t-44 9q-26 0 -48 -6.5t-38 -22t-24.5 -42.5t-8.5 -69v-516h-85v531z" glyph-name="germandbls"/>
<glyph unicode="à" horiz-adv-x="537" d="M384 267q-12 -9 -30 -14t-38 -8.5t-42.5 -6t-43.5 -6.5t-40 -10t-33 -16.5t-22.5 -26.5t-8.5 -40q0 -21 8.5 -35.5t22 -23.5t31.5 -13t38 -4q42 0 72 11.5t49 29t28 38t9 38.5v87zM522 2q-23 -14 -61 -14q-33 0 -52.5 19t-19.5 61q-35 -42 -81.5 -61t-100.5 -19 q-35 0 -66.5 8t-54.5 25.5t-36.5 45t-13.5 66.5q0 44 15 72t39.5 45t56 26.5t64.5 15.5q35 7 66.5 10.5t55.5 10t38 19t14 36.5q0 28 -10.5 45t-27 26t-37 12t-40.5 3q-54 0 -90 -20.5t-39 -77.5h-85q2 48 20 81t48 53.5t69 29.5t82 9q35 0 69.5 -5t62.5 -20.5t45 -43.5 t17 -73v-266q0 -30 3.5 -44t23.5 -14q12 0 26 5v-66zM140 732h109l86 -143h-64z" glyph-name="agrave"/>
<glyph unicode="á" horiz-adv-x="537" d="M384 267q-12 -9 -30 -14t-38 -8.5t-42.5 -6t-43.5 -6.5t-40 -10t-33 -16.5t-22.5 -26.5t-8.5 -40q0 -21 8.5 -35.5t22 -23.5t31.5 -13t38 -4q42 0 72 11.5t49 29t28 38t9 38.5v87zM522 2q-23 -14 -61 -14q-33 0 -52.5 19t-19.5 61q-35 -42 -81.5 -61t-100.5 -19 q-35 0 -66.5 8t-54.5 25.5t-36.5 45t-13.5 66.5q0 44 15 72t39.5 45t56 26.5t64.5 15.5q35 7 66.5 10.5t55.5 10t38 19t14 36.5q0 28 -10.5 45t-27 26t-37 12t-40.5 3q-54 0 -90 -20.5t-39 -77.5h-85q2 48 20 81t48 53.5t69 29.5t82 9q35 0 69.5 -5t62.5 -20.5t45 -43.5 t17 -73v-266q0 -30 3.5 -44t23.5 -14q12 0 26 5v-66zM318 732h109l-131 -143h-64z" glyph-name="aacute"/>
<glyph unicode="â" horiz-adv-x="537" d="M384 267q-12 -9 -30 -14t-38 -8.5t-42.5 -6t-43.5 -6.5t-40 -10t-33 -16.5t-22.5 -26.5t-8.5 -40q0 -21 8.5 -35.5t22 -23.5t31.5 -13t38 -4q42 0 72 11.5t49 29t28 38t9 38.5v87zM522 2q-23 -14 -61 -14q-33 0 -52.5 19t-19.5 61q-35 -42 -81.5 -61t-100.5 -19 q-35 0 -66.5 8t-54.5 25.5t-36.5 45t-13.5 66.5q0 44 15 72t39.5 45t56 26.5t64.5 15.5q35 7 66.5 10.5t55.5 10t38 19t14 36.5q0 28 -10.5 45t-27 26t-37 12t-40.5 3q-54 0 -90 -20.5t-39 -77.5h-85q2 48 20 81t48 53.5t69 29.5t82 9q35 0 69.5 -5t62.5 -20.5t45 -43.5 t17 -73v-266q0 -30 3.5 -44t23.5 -14q12 0 26 5v-66zM227 732h93l104 -143h-84l-69 96l-70 -96h-77z" glyph-name="acircumflex"/>
<glyph unicode="ã" horiz-adv-x="537" d="M384 267q-12 -9 -30 -14t-38 -8.5t-42.5 -6t-43.5 -6.5t-40 -10t-33 -16.5t-22.5 -26.5t-8.5 -40q0 -21 8.5 -35.5t22 -23.5t31.5 -13t38 -4q42 0 72 11.5t49 29t28 38t9 38.5v87zM522 2q-23 -14 -61 -14q-33 0 -52.5 19t-19.5 61q-35 -42 -81.5 -61t-100.5 -19 q-35 0 -66.5 8t-54.5 25.5t-36.5 45t-13.5 66.5q0 44 15 72t39.5 45t56 26.5t64.5 15.5q35 7 66.5 10.5t55.5 10t38 19t14 36.5q0 28 -10.5 45t-27 26t-37 12t-40.5 3q-54 0 -90 -20.5t-39 -77.5h-85q2 48 20 81t48 53.5t69 29.5t82 9q35 0 69.5 -5t62.5 -20.5t45 -43.5 t17 -73v-266q0 -30 3.5 -44t23.5 -14q12 0 26 5v-66zM447 717q-6 -44 -32 -79q-13 -16 -29.5 -24t-39.5 -8q-21 0 -39 6t-36 14q-18 7 -35 13t-31 6q-8 0 -16.5 -3t-14.5 -8.5t-9.5 -11.5t-8.5 -19h-52q5 24 13.5 43.5t21 34t30 23.5t41.5 9q20 0 38 -6t35 -14t33.5 -14 t32.5 -6q18 0 29 12t17 32h52z" glyph-name="atilde"/>
<glyph unicode="ä" horiz-adv-x="537" d="M321 706h90v-104h-90v104zM133 706h90v-104h-90v104zM384 267q-12 -9 -30 -14t-38 -8.5t-42.5 -6t-43.5 -6.5t-40 -10t-33 -16.5t-22.5 -26.5t-8.5 -40q0 -21 8.5 -35.5t22 -23.5t31.5 -13t38 -4q42 0 72 11.5t49 29t28 38t9 38.5v87zM522 2q-23 -14 -61 -14 q-33 0 -52.5 19t-19.5 61q-35 -42 -81.5 -61t-100.5 -19q-35 0 -66.5 8t-54.5 25.5t-36.5 45t-13.5 66.5q0 44 15 72t39.5 45t56 26.5t64.5 15.5q35 7 66.5 10.5t55.5 10t38 19t14 36.5q0 28 -10.5 45t-27 26t-37 12t-40.5 3q-54 0 -90 -20.5t-39 -77.5h-85q2 48 20 81 t48 53.5t69 29.5t82 9q35 0 69.5 -5t62.5 -20.5t45 -43.5t17 -73v-266q0 -30 3.5 -44t23.5 -14q12 0 26 5v-66z" glyph-name="adieresis"/>
<glyph unicode="å" horiz-adv-x="537" d="M384 267q-12 -9 -30 -14t-38 -8.5t-42.5 -6t-43.5 -6.5t-40 -10t-33 -16.5t-22.5 -26.5t-8.5 -40q0 -21 8.5 -35.5t22 -23.5t31.5 -13t38 -4q42 0 72 11.5t49 29t28 38t9 38.5v87zM522 2q-23 -14 -61 -14q-33 0 -52.5 19t-19.5 61q-35 -42 -81.5 -61t-100.5 -19 q-35 0 -66.5 8t-54.5 25.5t-36.5 45t-13.5 66.5q0 44 15 72t39.5 45t56 26.5t64.5 15.5q35 7 66.5 10.5t55.5 10t38 19t14 36.5q0 28 -10.5 45t-27 26t-37 12t-40.5 3q-54 0 -90 -20.5t-39 -77.5h-85q2 48 20 81t48 53.5t69 29.5t82 9q35 0 69.5 -5t62.5 -20.5t45 -43.5 t17 -73v-266q0 -30 3.5 -44t23.5 -14q12 0 26 5v-66zM206 675q0 -29 19 -48.5t48 -19.5t48 19.5t19 48.5t-19 48.5t-48 19.5t-48 -19.5t-19 -48.5zM160 676q0 23 9 43.5t24.5 36t36 24t43.5 8.5t43.5 -8.5t36 -24t24.5 -36t9 -43.5t-9 -43.5t-24.5 -36t-36 -24t-43.5 -8.5 t-43.5 8.5t-36 24t-24.5 36t-9 43.5z" glyph-name="aring"/>
<glyph unicode="æ" horiz-adv-x="870" d="M756 308q-1 30 -10.5 57t-28 46.5t-44.5 31t-60 11.5t-61 -11t-46 -30.5t-29 -46.5t-10 -58h289zM126 139q0 -21 8.5 -35.5t22 -23.5t31.5 -13t38 -4q42 0 72.5 11.5t50 29t29 38t9.5 38.5v87q-13 -8 -31.5 -13t-39.5 -9t-43.5 -6.5t-42.5 -6.5q-21 -4 -40 -10t-33 -16.5 t-22.5 -26.5t-8.5 -40zM467 233q0 -35 9.5 -65.5t28.5 -54t48.5 -37t68.5 -13.5q48 0 83.5 24.5t47.5 75.5h87q-19 -85 -78 -130t-146 -45q-30 0 -58 5t-52.5 16.5t-44 31t-32.5 48.5q-29 -53 -87.5 -77t-130.5 -24q-37 0 -69 8t-55.5 25.5t-37 45t-13.5 66.5q0 44 15 72 t39.5 45t56 26.5t64.5 15.5q47 9 80.5 14t54.5 12.5t31 20t10 35.5q0 26 -10.5 42t-27 24.5t-37.5 11t-42 2.5q-54 0 -90 -20.5t-39 -77.5h-85q2 48 20 81t48 53.5t69 29.5t82 9q22 0 47.5 -2.5t49.5 -10.5t44 -23t32 -39q26 40 72 57.5t93 17.5q67 0 112 -23.5t72 -64 t38 -94.5t11 -114h-379z" glyph-name="ae"/>
<glyph unicode="ç" horiz-adv-x="537" d="M415 351q-10 49 -42.5 76t-85.5 27q-46 0 -77 -17t-49.5 -45t-26.5 -64.5t-8 -75.5q0 -36 8.5 -70t26.5 -60.5t46.5 -42.5t69.5 -16q62 0 98 33.5t44 92.5h87q-14 -91 -68 -143.5t-145 -56.5l-33 -42l2 -2q10 7 33 7q16 0 31 -4.5t27 -13.5t19 -23t7 -32q0 -25 -11.5 -42 t-29.5 -27.5t-40 -15t-43 -4.5q-24 0 -46.5 5.5t-45.5 13.5l18 44q12 -5 28.5 -9t32.5 -4q10 0 21 1.5t20 5.5t15 9.5t6 14.5q0 14 -13.5 22.5t-33.5 8.5q-12 0 -21 -2t-20 -6l-17 28l53 68q-53 4 -93.5 25t-67.5 55.5t-41 81t-14 100.5q0 58 15 108.5t45.5 88t76 59 t107.5 21.5q44 0 82.5 -10.5t68.5 -32.5t48.5 -55.5t23.5 -79.5h-88z" glyph-name="ccedilla"/>
<glyph unicode="è" horiz-adv-x="537" d="M505 164q-17 -86 -75 -131t-146 -45q-62 0 -107.5 20.5t-76.5 56.5t-46.5 86t-17.5 109q0 58 18 107.5t50.5 85.5t77 56t97.5 20q69 0 114.5 -28.5t73 -72.5t37.5 -96q9 -44 9 -84v-15h-387v-7q0 -30 8 -58q9 -30 29 -53.5t51 -37.5t73 -14q53 0 88 25t46 76h84zM423 308 q-2 30 -13.5 57t-31 46.5t-46.5 31t-58 11.5q-33 0 -59.5 -11.5t-45.5 -31.5t-30 -46.5t-13 -56.5h297zM149 732h109l86 -143h-64z" glyph-name="egrave"/>
<glyph unicode="é" horiz-adv-x="537" d="M505 164q-17 -86 -75 -131t-146 -45q-62 0 -107.5 20.5t-76.5 56.5t-46.5 86t-17.5 109q0 58 18 107.5t50.5 85.5t77 56t97.5 20q69 0 114.5 -28.5t73 -72.5t37.5 -96q9 -44 9 -84v-15h-387v-7q0 -30 8 -58q9 -30 29 -53.5t51 -37.5t73 -14q53 0 88 25t46 76h84zM423 308 q-2 30 -13.5 57t-31 46.5t-46.5 31t-58 11.5q-33 0 -59.5 -11.5t-45.5 -31.5t-30 -46.5t-13 -56.5h297zM326 732h109l-131 -143h-64z" glyph-name="eacute"/>
<glyph unicode="ê" horiz-adv-x="537" d="M505 164q-17 -86 -75 -131t-146 -45q-62 0 -107.5 20.5t-76.5 56.5t-46.5 86t-17.5 109q0 58 18 107.5t50.5 85.5t77 56t97.5 20q69 0 114.5 -28.5t73 -72.5t37.5 -96q9 -44 9 -84v-15h-387v-7q0 -30 8 -58q9 -30 29 -53.5t51 -37.5t73 -14q53 0 88 25t46 76h84zM423 308 q-2 30 -13.5 57t-31 46.5t-46.5 31t-58 11.5q-33 0 -59.5 -11.5t-45.5 -31.5t-30 -46.5t-13 -56.5h297zM234 732h93l104 -143h-84l-69 96l-70 -96h-77z" glyph-name="ecircumflex"/>
<glyph unicode="ë" horiz-adv-x="537" d="M505 164q-17 -86 -75 -131t-146 -45q-62 0 -107.5 20.5t-76.5 56.5t-46.5 86t-17.5 109q0 58 18 107.5t50.5 85.5t77 56t97.5 20q69 0 114.5 -28.5t73 -72.5t37.5 -96q9 -44 9 -84v-15h-387v-7q0 -30 8 -58q9 -30 29 -53.5t51 -37.5t73 -14q53 0 88 25t46 76h84zM423 308 q-2 30 -13.5 57t-31 46.5t-46.5 31t-58 11.5q-33 0 -59.5 -11.5t-45.5 -31.5t-30 -46.5t-13 -56.5h297zM327 706h90v-104h-90v104zM139 706h90v-104h-90v104z" glyph-name="edieresis"/>
<glyph unicode="ì" horiz-adv-x="222" d="M69 0v517h85v-517h-85zM-39 732h109l86 -143h-64z" glyph-name="igrave"/>
<glyph unicode="í" horiz-adv-x="222" d="M69 0v517h85v-517h-85zM153 732h109l-131 -143h-64z" glyph-name="iacute"/>
<glyph unicode="î" horiz-adv-x="222" d="M69 0v517h85v-517h-85zM66 732h93l104 -143h-84l-69 96l-70 -96h-77z" glyph-name="icircumflex"/>
<glyph unicode="ï" horiz-adv-x="222" d="M161 706h90v-104h-90v104zM-27 706h90v-104h-90v104zM69 0v517h85v-517h-85z" glyph-name="idieresis"/>
<glyph unicode="ð" horiz-adv-x="574" d="M272 506q40 0 76 -12.5t63 -43.5h2q-12 26 -28 49.5t-33 43.5t-33 35t-28 23l-115 -54l-38 40l109 51q-16 14 -36 27t-34 21l70 45q14 -10 35.5 -25t41.5 -31l120 56l35 -37l-115 -53q90 -74 132 -171t42 -212q0 -57 -16 -106t-48 -85.5t-79 -57.5t-108 -21 q-62 0 -108.5 21t-78.5 57.5t-48 85.5t-16 106q0 49 15.5 93.5t45.5 79t74 55t101 20.5zM282 431q-77 0 -116.5 -48t-39.5 -125q0 -47 12.5 -83.5t34.5 -61t51.5 -37.5t62.5 -13t62.5 13t51.5 37.5t34.5 61t12.5 83.5q0 34 -9.5 65.5t-29.5 55.5t-51.5 38t-75.5 14z" glyph-name="eth"/>
<glyph unicode="ñ" d="M64 517h80v-82h2q27 48 69.5 71t98.5 23q51 0 85 -14t55 -39t29.5 -59.5t8.5 -76.5v-340h-85v350q0 48 -28 76t-77 28q-39 0 -67.5 -12t-47.5 -34t-28.5 -51.5t-9.5 -64.5v-292h-85v517zM450 717q-6 -44 -32 -79q-13 -16 -29.5 -24t-39.5 -8q-21 0 -39 6t-36 14 q-18 7 -35 13t-31 6q-8 0 -16.5 -3t-14.5 -8.5t-9.5 -11.5t-8.5 -19h-52q5 24 13.5 43.5t21 34t30 23.5t41.5 9q20 0 38 -6t35 -14t33.5 -14t32.5 -6q18 0 29 12t17 32h52z" glyph-name="ntilde"/>
<glyph unicode="ò" horiz-adv-x="574" d="M36 258q0 57 16 106.5t48 86t78.5 57.5t108.5 21q61 0 108 -21t79 -57.5t48 -86t16 -106.5t-16 -106t-48 -85.5t-79 -57.5t-108 -21q-62 0 -108.5 21t-78.5 57.5t-48 85.5t-16 106zM126 258q0 -47 12.5 -83.5t34.5 -61t51.5 -37.5t62.5 -13t62.5 13t51.5 37.5t34.5 61 t12.5 83.5t-12.5 83.5t-34.5 61.5t-51.5 38t-62.5 13t-62.5 -13t-51.5 -38t-34.5 -61.5t-12.5 -83.5zM128 732h109l86 -143h-64z" glyph-name="ograve"/>
<glyph unicode="ó" horiz-adv-x="574" d="M36 258q0 57 16 106.5t48 86t78.5 57.5t108.5 21q61 0 108 -21t79 -57.5t48 -86t16 -106.5t-16 -106t-48 -85.5t-79 -57.5t-108 -21q-62 0 -108.5 21t-78.5 57.5t-48 85.5t-16 106zM126 258q0 -47 12.5 -83.5t34.5 -61t51.5 -37.5t62.5 -13t62.5 13t51.5 37.5t34.5 61 t12.5 83.5t-12.5 83.5t-34.5 61.5t-51.5 38t-62.5 13t-62.5 -13t-51.5 -38t-34.5 -61.5t-12.5 -83.5zM324 732h109l-131 -143h-64z" glyph-name="oacute"/>
<glyph unicode="ô" horiz-adv-x="574" d="M36 258q0 57 16 106.5t48 86t78.5 57.5t108.5 21q61 0 108 -21t79 -57.5t48 -86t16 -106.5t-16 -106t-48 -85.5t-79 -57.5t-108 -21q-62 0 -108.5 21t-78.5 57.5t-48 85.5t-16 106zM126 258q0 -47 12.5 -83.5t34.5 -61t51.5 -37.5t62.5 -13t62.5 13t51.5 37.5t34.5 61 t12.5 83.5t-12.5 83.5t-34.5 61.5t-51.5 38t-62.5 13t-62.5 -13t-51.5 -38t-34.5 -61.5t-12.5 -83.5zM242 732h93l104 -143h-84l-69 96l-70 -96h-77z" glyph-name="ocircumflex"/>
<glyph unicode="õ" horiz-adv-x="574" d="M36 258q0 57 16 106.5t48 86t78.5 57.5t108.5 21q61 0 108 -21t79 -57.5t48 -86t16 -106.5t-16 -106t-48 -85.5t-79 -57.5t-108 -21q-62 0 -108.5 21t-78.5 57.5t-48 85.5t-16 106zM126 258q0 -47 12.5 -83.5t34.5 -61t51.5 -37.5t62.5 -13t62.5 13t51.5 37.5t34.5 61 t12.5 83.5t-12.5 83.5t-34.5 61.5t-51.5 38t-62.5 13t-62.5 -13t-51.5 -38t-34.5 -61.5t-12.5 -83.5zM460 717q-6 -44 -32 -79q-13 -16 -29.5 -24t-39.5 -8q-21 0 -39 6t-36 14q-18 7 -35 13t-31 6q-8 0 -16.5 -3t-14.5 -8.5t-9.5 -11.5t-8.5 -19h-52q5 24 13.5 43.5t21 34 t30 23.5t41.5 9q20 0 38 -6t35 -14t33.5 -14t32.5 -6q18 0 29 12t17 32h52z" glyph-name="otilde"/>
<glyph unicode="ö" horiz-adv-x="574" d="M36 258q0 57 16 106.5t48 86t78.5 57.5t108.5 21q61 0 108 -21t79 -57.5t48 -86t16 -106.5t-16 -106t-48 -85.5t-79 -57.5t-108 -21q-62 0 -108.5 21t-78.5 57.5t-48 85.5t-16 106zM126 258q0 -47 12.5 -83.5t34.5 -61t51.5 -37.5t62.5 -13t62.5 13t51.5 37.5t34.5 61 t12.5 83.5t-12.5 83.5t-34.5 61.5t-51.5 38t-62.5 13t-62.5 -13t-51.5 -38t-34.5 -61.5t-12.5 -83.5zM336 706h90v-104h-90v104zM148 706h90v-104h-90v104z" glyph-name="odieresis"/>
<glyph unicode="÷" horiz-adv-x="600" d="M48 287h504v-68h-504v68zM236 459q0 26 19 45t45 19t45 -19t19 -45q0 -24 -19 -44t-44 -20q-26 0 -45.5 19t-19.5 45zM236 47q0 26 19 45t45 19t45 -19t19 -45q0 -24 -19 -44t-44 -20q-26 0 -45.5 19t-19.5 45z" glyph-name="divide"/>
<glyph unicode="ø" horiz-adv-x="574" d="M398 407q-44 47 -111 47q-33 0 -62.5 -13t-51.5 -38t-34.5 -61.5t-12.5 -83.5q0 -36 8 -66t22 -55zM178 108q45 -45 109 -45q33 0 62.5 13t51.5 37.5t34.5 61t12.5 83.5q0 37 -7.5 66.5t-20.5 52.5zM480 443q29 -35 43.5 -82.5t14.5 -102.5q0 -57 -16 -106t-48 -85.5 t-79 -57.5t-108 -21q-52 0 -93 15t-72 42l-60 -67l-28 24l62 69q-30 37 -45 84.5t-15 102.5q0 57 16 106.5t48 86t78.5 57.5t108.5 21q53 0 94.5 -15t73.5 -44l58 65l27 -26z" glyph-name="oslash"/>
<glyph unicode="ù" d="M492 0h-80v82h-2q-27 -48 -69.5 -71t-98.5 -23q-51 0 -85 14t-55 39t-29.5 59.5t-8.5 76.5v340h85v-350q0 -48 28 -76t77 -28q39 0 67.5 12t47.5 34t28.5 51.5t9.5 64.5v292h85v-517zM125 732h109l86 -143h-64z" glyph-name="ugrave"/>
<glyph unicode="ú" d="M492 0h-80v82h-2q-27 -48 -69.5 -71t-98.5 -23q-51 0 -85 14t-55 39t-29.5 59.5t-8.5 76.5v340h85v-350q0 -48 28 -76t77 -28q39 0 67.5 12t47.5 34t28.5 51.5t9.5 64.5v292h85v-517zM315 732h109l-131 -143h-64z" glyph-name="uacute"/>
<glyph unicode="û" d="M492 0h-80v82h-2q-27 -48 -69.5 -71t-98.5 -23q-51 0 -85 14t-55 39t-29.5 59.5t-8.5 76.5v340h85v-350q0 -48 28 -76t77 -28q39 0 67.5 12t47.5 34t28.5 51.5t9.5 64.5v292h85v-517zM231 732h93l104 -143h-84l-69 96l-70 -96h-77z" glyph-name="ucircumflex"/>
<glyph unicode="ü" d="M492 0h-80v82h-2q-27 -48 -69.5 -71t-98.5 -23q-51 0 -85 14t-55 39t-29.5 59.5t-8.5 76.5v340h85v-350q0 -48 28 -76t77 -28q39 0 67.5 12t47.5 34t28.5 51.5t9.5 64.5v292h85v-517zM326 706h90v-104h-90v104zM138 706h90v-104h-90v104z" glyph-name="udieresis"/>
<glyph unicode="ý" horiz-adv-x="500" d="M267 -69q-15 -38 -29.5 -64t-31.5 -42.5t-39 -24t-50 -7.5q-15 0 -30 2t-29 7v78q12 -4 24.5 -8t25.5 -4q26 0 42 12t28 35l35 88l-205 514h96l151 -423h2l145 423h90zM307 732h109l-131 -143h-64z" glyph-name="yacute"/>
<glyph unicode="þ" horiz-adv-x="593" d="M467 263q0 36 -9.5 70.5t-29 61.5t-50 43t-71.5 16q-43 0 -73 -17t-49 -44.5t-27.5 -62.5t-8.5 -71q0 -38 9 -73.5t28.5 -62.5t50.5 -43.5t75 -16.5q43 0 73 17t48 45t26 64t8 74zM152 447h2q21 43 66 62.5t99 19.5q60 0 104.5 -22t74 -59.5t44.5 -86.5t15 -104 t-14.5 -104t-44 -85.5t-74 -58t-103.5 -21.5q-20 0 -43 4t-46 13.5t-43.5 25t-34.5 38.5h-2v-267h-85v912h85v-267z" glyph-name="thorn"/>
<glyph unicode="ÿ" horiz-adv-x="500" d="M267 -69q-15 -38 -29.5 -64t-31.5 -42.5t-39 -24t-50 -7.5q-15 0 -30 2t-29 7v78q12 -4 24.5 -8t25.5 -4q26 0 42 12t28 35l35 88l-205 514h96l151 -423h2l145 423h90zM306 706h90v-104h-90v104zM118 706h90v-104h-90v104z" glyph-name="ydieresis"/>
<glyph unicode="Ā" horiz-adv-x="648" d="M272 714h105l279 -714h-105l-78 215h-302l-80 -215h-98zM201 295h242l-119 333h-2zM153 872h341v-55h-341v55z" glyph-name="Amacron"/>
<glyph unicode="ā" horiz-adv-x="537" d="M384 267q-12 -9 -30 -14t-38 -8.5t-42.5 -6t-43.5 -6.5t-40 -10t-33 -16.5t-22.5 -26.5t-8.5 -40q0 -21 8.5 -35.5t22 -23.5t31.5 -13t38 -4q42 0 72 11.5t49 29t28 38t9 38.5v87zM522 2q-23 -14 -61 -14q-33 0 -52.5 19t-19.5 61q-35 -42 -81.5 -61t-100.5 -19 q-35 0 -66.5 8t-54.5 25.5t-36.5 45t-13.5 66.5q0 44 15 72t39.5 45t56 26.5t64.5 15.5q35 7 66.5 10.5t55.5 10t38 19t14 36.5q0 28 -10.5 45t-27 26t-37 12t-40.5 3q-54 0 -90 -20.5t-39 -77.5h-85q2 48 20 81t48 53.5t69 29.5t82 9q35 0 69.5 -5t62.5 -20.5t45 -43.5 t17 -73v-266q0 -30 3.5 -44t23.5 -14q12 0 26 5v-66zM108 682h341v-55h-341v55z" glyph-name="amacron"/>
<glyph unicode="Ă" horiz-adv-x="648" d="M272 714h105l279 -714h-105l-78 215h-302l-80 -215h-98zM201 295h242l-119 333h-2zM217 919q24 -83 112 -83q43 0 63.5 22.5t35.5 60.5h51q-11 -64 -51.5 -101t-106.5 -37q-69 0 -106.5 35.5t-47.5 102.5h50z" glyph-name="Abreve"/>
<glyph unicode="ă" horiz-adv-x="537" d="M384 267q-12 -9 -30 -14t-38 -8.5t-42.5 -6t-43.5 -6.5t-40 -10t-33 -16.5t-22.5 -26.5t-8.5 -40q0 -21 8.5 -35.5t22 -23.5t31.5 -13t38 -4q42 0 72 11.5t49 29t28 38t9 38.5v87zM522 2q-23 -14 -61 -14q-33 0 -52.5 19t-19.5 61q-35 -42 -81.5 -61t-100.5 -19 q-35 0 -66.5 8t-54.5 25.5t-36.5 45t-13.5 66.5q0 44 15 72t39.5 45t56 26.5t64.5 15.5q35 7 66.5 10.5t55.5 10t38 19t14 36.5q0 28 -10.5 45t-27 26t-37 12t-40.5 3q-54 0 -90 -20.5t-39 -77.5h-85q2 48 20 81t48 53.5t69 29.5t82 9q35 0 69.5 -5t62.5 -20.5t45 -43.5 t17 -73v-266q0 -30 3.5 -44t23.5 -14q12 0 26 5v-66zM170 729q24 -83 112 -83q43 0 63.5 22.5t35.5 60.5h51q-11 -64 -51.5 -101t-106.5 -37q-69 0 -106.5 35.5t-47.5 102.5h50z" glyph-name="abreve"/>
<glyph unicode="Ą" horiz-adv-x="648" d="M201 295h242l-119 333h-2zM591 0q-26 -22 -42 -38t-25.5 -30.5t-13 -27t-3.5 -22.5q0 -16 9 -29t29 -13q23 0 37 8t25 22l32 -18q-20 -35 -48.5 -48.5t-59.5 -13.5q-9 0 -24.5 1.5t-30.5 9.5t-26 24.5t-11 46.5q0 7 3.5 19.5t15.5 30t34.5 38t58.5 40.5l-78 215h-302 l-80 -215h-98l279 714h105l279 -714h-65z" glyph-name="Aogonek"/>
<glyph unicode="ą" horiz-adv-x="537" d="M384 267q-12 -9 -30 -14t-38 -8.5t-42.5 -6t-43.5 -6.5t-40 -10t-33 -16.5t-22.5 -26.5t-8.5 -40q0 -21 8.5 -35.5t22 -23.5t31.5 -13t38 -4q42 0 72 11.5t49 29t28 38t9 38.5v87zM522 2q-23 -14 -61 -14q-5 0 -9 1q-17 -15 -28 -27q-16 -16 -25.5 -30.5t-13 -27 t-3.5 -22.5q0 -16 9 -29t29 -13q23 0 37 8t25 22l32 -18q-20 -35 -48.5 -48.5t-59.5 -13.5q-9 0 -24.5 1.5t-30.5 9.5t-26 24.5t-11 46.5q0 7 3.5 19.5t15.5 30t34 38.5q21 19 54 38q-7 3 -13 9q-19 19 -19 61q-35 -42 -81.5 -61t-100.5 -19q-35 0 -66.5 8t-54.5 25.5 t-36.5 45t-13.5 66.5q0 44 15 72t39.5 45t56 26.5t64.5 15.5q35 7 66.5 10.5t55.5 10t38 19t14 36.5q0 28 -10.5 45t-27 26t-37 12t-40.5 3q-54 0 -90 -20.5t-39 -77.5h-85q2 48 20 81t48 53.5t69 29.5t82 9q35 0 69.5 -5t62.5 -20.5t45 -43.5t17 -73v-266q0 -30 3.5 -44 t23.5 -14q12 0 26 5v-66z" glyph-name="aogonek"/>
<glyph unicode="Ć" horiz-adv-x="722" d="M580 499q-8 38 -26 66.5t-44.5 47.5t-59.5 28.5t-70 9.5q-64 0 -109.5 -24t-75 -64.5t-43.5 -92.5t-14 -108q0 -61 14 -115.5t43.5 -95t75.5 -64.5t110 -24q47 0 83.5 15.5t63 43t41.5 65.5t18 82h95q-14 -134 -93.5 -210t-215.5 -76q-83 0 -145 29t-103 79t-61.5 118 t-20.5 146t22 146.5t64.5 119.5t105.5 80.5t146 29.5q56 0 106 -15t89 -44t65 -72.5t34 -100.5h-95zM432 922h109l-131 -143h-64z" glyph-name="Cacute"/>
<glyph unicode="ć" horiz-adv-x="537" d="M415 351q-10 49 -42.5 76t-85.5 27q-46 0 -77 -17t-49.5 -45t-26.5 -64.5t-8 -75.5q0 -36 8.5 -70t26.5 -60.5t46.5 -42.5t69.5 -16q62 0 98 33.5t44 92.5h87q-14 -95 -72 -148t-156 -53q-59 0 -104.5 19.5t-76 54.5t-46 83.5t-15.5 106.5t15 108.5t45.5 88t76 59 t107.5 21.5q44 0 82.5 -10.5t68.5 -32.5t48.5 -55.5t23.5 -79.5h-88zM329 732h109l-131 -143h-64z" glyph-name="cacute"/>
<glyph unicode="Ĉ" horiz-adv-x="722" d="M580 499q-8 38 -26 66.5t-44.5 47.5t-59.5 28.5t-70 9.5q-64 0 -109.5 -24t-75 -64.5t-43.5 -92.5t-14 -108q0 -61 14 -115.5t43.5 -95t75.5 -64.5t110 -24q47 0 83.5 15.5t63 43t41.5 65.5t18 82h95q-14 -134 -93.5 -210t-215.5 -76q-83 0 -145 29t-103 79t-61.5 118 t-20.5 146t22 146.5t64.5 119.5t105.5 80.5t146 29.5q56 0 106 -15t89 -44t65 -72.5t34 -100.5h-95zM339 922h93l104 -143h-84l-69 96l-70 -96h-77z" glyph-name="Ccircumflex"/>
<glyph unicode="ĉ" horiz-adv-x="537" d="M415 351q-10 49 -42.5 76t-85.5 27q-46 0 -77 -17t-49.5 -45t-26.5 -64.5t-8 -75.5q0 -36 8.5 -70t26.5 -60.5t46.5 -42.5t69.5 -16q62 0 98 33.5t44 92.5h87q-14 -95 -72 -148t-156 -53q-59 0 -104.5 19.5t-76 54.5t-46 83.5t-15.5 106.5t15 108.5t45.5 88t76 59 t107.5 21.5q44 0 82.5 -10.5t68.5 -32.5t48.5 -55.5t23.5 -79.5h-88zM239 732h93l104 -143h-84l-69 96l-70 -96h-77z" glyph-name="ccircumflex"/>
<glyph unicode="Ċ" horiz-adv-x="722" d="M580 499q-8 38 -26 66.5t-44.5 47.5t-59.5 28.5t-70 9.5q-64 0 -109.5 -24t-75 -64.5t-43.5 -92.5t-14 -108q0 -61 14 -115.5t43.5 -95t75.5 -64.5t110 -24q47 0 83.5 15.5t63 43t41.5 65.5t18 82h95q-14 -134 -93.5 -210t-215.5 -76q-83 0 -145 29t-103 79t-61.5 118 t-20.5 146t22 146.5t64.5 119.5t105.5 80.5t146 29.5q56 0 106 -15t89 -44t65 -72.5t34 -100.5h-95zM422 794h-90v104h90v-104z" glyph-name="Cdotaccent"/>
<glyph unicode="ċ" horiz-adv-x="537" d="M415 351q-10 49 -42.5 76t-85.5 27q-46 0 -77 -17t-49.5 -45t-26.5 -64.5t-8 -75.5q0 -36 8.5 -70t26.5 -60.5t46.5 -42.5t69.5 -16q62 0 98 33.5t44 92.5h87q-14 -95 -72 -148t-156 -53q-59 0 -104.5 19.5t-76 54.5t-46 83.5t-15.5 106.5t15 108.5t45.5 88t76 59 t107.5 21.5q44 0 82.5 -10.5t68.5 -32.5t48.5 -55.5t23.5 -79.5h-88zM326 604h-90v104h90v-104z" glyph-name="cdotaccent"/>
<glyph unicode="Č" horiz-adv-x="722" d="M580 499q-8 38 -26 66.5t-44.5 47.5t-59.5 28.5t-70 9.5q-64 0 -109.5 -24t-75 -64.5t-43.5 -92.5t-14 -108q0 -61 14 -115.5t43.5 -95t75.5 -64.5t110 -24q47 0 83.5 15.5t63 43t41.5 65.5t18 82h95q-14 -134 -93.5 -210t-215.5 -76q-83 0 -145 29t-103 79t-61.5 118 t-20.5 146t22 146.5t64.5 119.5t105.5 80.5t146 29.5q56 0 106 -15t89 -44t65 -72.5t34 -100.5h-95zM424 779h-93l-104 143h84l69 -96l70 96h77z" glyph-name="Ccaron"/>
<glyph unicode="č" horiz-adv-x="537" d="M415 351q-10 49 -42.5 76t-85.5 27q-46 0 -77 -17t-49.5 -45t-26.5 -64.5t-8 -75.5q0 -36 8.5 -70t26.5 -60.5t46.5 -42.5t69.5 -16q62 0 98 33.5t44 92.5h87q-14 -95 -72 -148t-156 -53q-59 0 -104.5 19.5t-76 54.5t-46 83.5t-15.5 106.5t15 108.5t45.5 88t76 59 t107.5 21.5q44 0 82.5 -10.5t68.5 -32.5t48.5 -55.5t23.5 -79.5h-88zM323 589h-93l-104 143h84l69 -96l70 96h77z" glyph-name="ccaron"/>
<glyph unicode="Ď" horiz-adv-x="704" d="M78 714h245q165 0 254 -84t89 -256q0 -90 -20 -159.5t-62 -117t-107 -72.5t-154 -25h-245v714zM173 80h158q16 0 40 2.5t51 12t53.5 27.5t47.5 49t34.5 77.5t13.5 112.5q0 64 -12.5 114.5t-41 85.5t-73.5 54t-111 19h-160v-554zM364 779h-93l-104 143h84l69 -96l70 96h77 z" glyph-name="Dcaron"/>
<glyph unicode="ď" horiz-adv-x="653" d="M526 0h-85v70h-2q-21 -43 -66 -62.5t-99 -19.5q-60 0 -104.5 22t-74 59.5t-44.5 86.5t-15 104t14.5 103.5t44 85.5t74 58.5t103.5 21.5q20 0 43 -4t46 -13.5t43.5 -25t34.5 -38.5h2v266h85v-714zM126 254q0 -36 9.5 -70.5t29 -61.5t50 -43t71.5 -16q43 0 73 17t49 44.5 t27.5 62.5t8.5 71q0 38 -9 73.5t-28.5 62.5t-50.5 43.5t-75 16.5t-73.5 -17t-47.5 -45t-26 -64t-8 -74zM602 714h109l-75 -143h-60z" glyph-name="dcaron"/>
<glyph unicode="Đ" horiz-adv-x="704" d="M78 339h-70v68h70v307h245q165 0 254 -84t89 -256q0 -90 -20 -159.5t-62 -117t-107 -72.5t-154 -25h-245v339zM173 407h214v-68h-214v-259h158q16 0 40 2.5t51 12t53.5 27.5t47.5 49t34.5 77.5t13.5 112.5q0 64 -12.5 114.5t-41 85.5t-73.5 54t-111 19h-160v-227z" glyph-name="Dcroat"/>
<glyph unicode="đ" horiz-adv-x="603" d="M126 254q0 -36 9.5 -70.5t29 -61.5t50 -43t71.5 -16q43 0 73 17t49 44.5t27.5 62.5t8.5 71q0 38 -9 73.5t-28.5 62.5t-50.5 43.5t-75 16.5t-73.5 -17t-47.5 -45t-26 -64t-8 -74zM271 638h170v76h85v-76h86v-55h-86v-583h-85v70h-2q-21 -43 -66 -62.5t-99 -19.5 q-60 0 -104.5 22t-74 59.5t-44.5 86.5t-15 104t14.5 103.5t44 85.5t74 58.5t103.5 21.5q20 0 43 -4t46 -13.5t43.5 -25t34.5 -38.5h2v135h-170v55z" glyph-name="dcroat"/>
<glyph unicode="Ē" horiz-adv-x="611" d="M78 714h493v-80h-398v-227h371v-80h-371v-247h401v-80h-496v714zM158 872h341v-55h-341v55z" glyph-name="Emacron"/>
<glyph unicode="ē" horiz-adv-x="537" d="M505 164q-17 -86 -75 -131t-146 -45q-62 0 -107.5 20.5t-76.5 56.5t-46.5 86t-17.5 109q0 58 18 107.5t50.5 85.5t77 56t97.5 20q69 0 114.5 -28.5t73 -72.5t37.5 -96q9 -44 9 -84v-15h-387v-7q0 -30 8 -58q9 -30 29 -53.5t51 -37.5t73 -14q53 0 88 25t46 76h84zM423 308 q-2 30 -13.5 57t-31 46.5t-46.5 31t-58 11.5q-33 0 -59.5 -11.5t-45.5 -31.5t-30 -46.5t-13 -56.5h297zM112 682h341v-55h-341v55z" glyph-name="emacron"/>
<glyph unicode="Ĕ" horiz-adv-x="611" d="M78 714h493v-80h-398v-227h371v-80h-371v-247h401v-80h-496v714zM213 919q24 -83 112 -83q43 0 63.5 22.5t35.5 60.5h51q-11 -64 -51.5 -101t-106.5 -37q-69 0 -106.5 35.5t-47.5 102.5h50z" glyph-name="Ebreve"/>
<glyph unicode="ĕ" horiz-adv-x="537" d="M505 164q-17 -86 -75 -131t-146 -45q-62 0 -107.5 20.5t-76.5 56.5t-46.5 86t-17.5 109q0 58 18 107.5t50.5 85.5t77 56t97.5 20q69 0 114.5 -28.5t73 -72.5t37.5 -96q9 -44 9 -84v-15h-387v-7q0 -30 8 -58q9 -30 29 -53.5t51 -37.5t73 -14q53 0 88 25t46 76h84zM423 308 q-2 30 -13.5 57t-31 46.5t-46.5 31t-58 11.5q-33 0 -59.5 -11.5t-45.5 -31.5t-30 -46.5t-13 -56.5h297zM174 729q24 -83 112 -83q43 0 63.5 22.5t35.5 60.5h51q-11 -64 -51.5 -101t-106.5 -37q-69 0 -106.5 35.5t-47.5 102.5h50z" glyph-name="ebreve"/>
<glyph unicode="Ė" horiz-adv-x="611" d="M78 714h493v-80h-398v-227h371v-80h-371v-247h401v-80h-496v714zM370 794h-90v104h90v-104z" glyph-name="Edotaccent"/>
<glyph unicode="ė" horiz-adv-x="537" d="M505 164q-17 -86 -75 -131t-146 -45q-62 0 -107.5 20.5t-76.5 56.5t-46.5 86t-17.5 109q0 58 18 107.5t50.5 85.5t77 56t97.5 20q69 0 114.5 -28.5t73 -72.5t37.5 -96q9 -44 9 -84v-15h-387v-7q0 -30 8 -58q9 -30 29 -53.5t51 -37.5t73 -14q53 0 88 25t46 76h84zM423 308 q-2 30 -13.5 57t-31 46.5t-46.5 31t-58 11.5q-33 0 -59.5 -11.5t-45.5 -31.5t-30 -46.5t-13 -56.5h297zM325 604h-90v104h90v-104z" glyph-name="edotaccent"/>
<glyph unicode="Ę" horiz-adv-x="611" d="M526 0q-26 -22 -42 -38t-25.5 -30.5t-13 -27t-3.5 -22.5q0 -16 9 -29t29 -13q23 0 37 8t25 22l32 -18q-20 -35 -48.5 -48.5t-59.5 -13.5q-9 0 -24.5 1.5t-30.5 9.5t-26 24.5t-11 46.5q0 7 3.5 19.5t15.5 30t34.5 38t58.5 40.5h-408v714h493v-80h-398v-227h371v-80h-371 v-247h401v-80h-48z" glyph-name="Eogonek"/>
<glyph unicode="ę" horiz-adv-x="537" d="M423 308q-2 30 -13.5 57t-31 46.5t-46.5 31t-58 11.5q-33 0 -59.5 -11.5t-45.5 -31.5t-30 -46.5t-13 -56.5h297zM505 164q-17 -86 -75 -131q-48 -37 -117 -43q-17 -16 -29 -28q-16 -16 -25.5 -30.5t-13 -27t-3.5 -22.5q0 -16 9 -29t29 -13q23 0 37 8t25 22l32 -18 q-20 -35 -48.5 -48.5t-59.5 -13.5q-9 0 -24.5 1.5t-30.5 9.5t-26 24.5t-11 46.5q0 7 3.5 19.5t15.5 30t34 38.5q16 14 39 29q-51 2 -90 19q-45 21 -76 57t-46.5 86t-17.5 109q0 58 18 107.5t50.5 85.5t77 56t97.5 20q69 0 114.5 -28.5t73 -72.5t37 -92t9.5 -88v-15h-387v-7 q0 -30 8.5 -59t28.5 -52.5t51 -37.5t73 -14q53 0 88 25t46 76h84z" glyph-name="eogonek"/>
<glyph unicode="Ě" horiz-adv-x="611" d="M78 714h493v-80h-398v-227h371v-80h-371v-247h401v-80h-496v714zM370 779h-93l-104 143h84l69 -96l70 96h77z" glyph-name="Ecaron"/>
<glyph unicode="ě" horiz-adv-x="537" d="M505 164q-17 -86 -75 -131t-146 -45q-62 0 -107.5 20.5t-76.5 56.5t-46.5 86t-17.5 109q0 58 18 107.5t50.5 85.5t77 56t97.5 20q69 0 114.5 -28.5t73 -72.5t37.5 -96q9 -44 9 -84v-15h-387v-7q0 -30 8 -58q9 -30 29 -53.5t51 -37.5t73 -14q53 0 88 25t46 76h84zM423 308 q-2 30 -13.5 57t-31 46.5t-46.5 31t-58 11.5q-33 0 -59.5 -11.5t-45.5 -31.5t-30 -46.5t-13 -56.5h297zM323 589h-93l-104 143h84l69 -96l70 96h77z" glyph-name="ecaron"/>
<glyph unicode="Ĝ" horiz-adv-x="759" d="M612 89q-21 -28 -47.5 -48t-56.5 -33t-62 -19t-63 -6q-80 0 -143 30t-107 80t-67 115t-23 135q0 78 21.5 148.5t64 123.5t106 84.5t148.5 31.5q58 0 109.5 -13.5t92 -42.5t68 -73.5t37.5 -107.5h-95q-7 40 -26 70t-47 49t-63.5 28.5t-75.5 9.5q-65 0 -111.5 -26 t-76 -68.5t-43.5 -97t-14 -111.5q0 -56 16 -107.5t47 -91t76.5 -63t105.5 -23.5q55 0 98.5 18t73.5 49q31 32 45 74q13 37 12 80v12h-228v80h313v-376h-60zM346 922h93l104 -143h-84l-69 96l-70 -96h-77z" glyph-name="Gcircumflex"/>
<glyph unicode="ĝ" horiz-adv-x="574" d="M272 69q42 0 71.5 17.5t47.5 46t26.5 64.5t8.5 72q0 34 -8 67t-25.5 59.5t-45.5 42.5t-68 16q-41 0 -70 -15.5t-47.5 -41.5t-27 -60t-8.5 -71q0 -35 7 -70t24 -63.5t45 -46t70 -17.5zM510 44q0 -127 -58.5 -190.5t-181.5 -63.5q-36 0 -73.5 8t-68 26t-50.5 47t-22 71h85 q1 -23 14.5 -39t33 -26t42.5 -14.5t44 -4.5q42 0 71 14.5t48 40t27.5 61.5t8.5 80v34h-2q-11 -24 -28 -41.5t-38.5 -29t-46 -17.5t-48.5 -6q-58 0 -101 21t-72 57t-43.5 83.5t-14.5 100.5q0 46 12 94t40 88t74 65.5t113 25.5q49 0 90 -21.5t64 -64.5h1v74h80v-473zM250 732 h93l104 -143h-84l-69 96l-70 -96h-77z" glyph-name="gcircumflex"/>
<glyph unicode="Ğ" horiz-adv-x="759" d="M612 89q-21 -28 -47.5 -48t-56.5 -33t-62 -19t-63 -6q-80 0 -143 30t-107 80t-67 115t-23 135q0 78 21.5 148.5t64 123.5t106 84.5t148.5 31.5q58 0 109.5 -13.5t92 -42.5t68 -73.5t37.5 -107.5h-95q-7 40 -26 70t-47 49t-63.5 28.5t-75.5 9.5q-65 0 -111.5 -26 t-76 -68.5t-43.5 -97t-14 -111.5q0 -56 16 -107.5t47 -91t76.5 -63t105.5 -23.5q55 0 98.5 18t73.5 49q31 32 45 74q13 37 12 80v12h-228v80h313v-376h-60zM275 919q24 -83 112 -83q43 0 63.5 22.5t35.5 60.5h51q-11 -64 -51.5 -101t-106.5 -37q-69 0 -106.5 35.5 t-47.5 102.5h50z" glyph-name="Gbreve"/>
<glyph unicode="ğ" horiz-adv-x="574" d="M272 69q42 0 71.5 17.5t47.5 46t26.5 64.5t8.5 72q0 34 -8 67t-25.5 59.5t-45.5 42.5t-68 16q-41 0 -70 -15.5t-47.5 -41.5t-27 -60t-8.5 -71q0 -35 7 -70t24 -63.5t45 -46t70 -17.5zM510 44q0 -127 -58.5 -190.5t-181.5 -63.5q-36 0 -73.5 8t-68 26t-50.5 47t-22 71h85 q1 -23 14.5 -39t33 -26t42.5 -14.5t44 -4.5q42 0 71 14.5t48 40t27.5 61.5t8.5 80v34h-2q-11 -24 -28 -41.5t-38.5 -29t-46 -17.5t-48.5 -6q-58 0 -101 21t-72 57t-43.5 83.5t-14.5 100.5q0 46 12 94t40 88t74 65.5t113 25.5q49 0 90 -21.5t64 -64.5h1v74h80v-473zM180 729 q24 -83 112 -83q43 0 63.5 22.5t35.5 60.5h51q-11 -64 -51.5 -101t-106.5 -37q-69 0 -106.5 35.5t-47.5 102.5h50z" glyph-name="gbreve"/>
<glyph unicode="Ġ" horiz-adv-x="759" d="M612 89q-21 -28 -47.5 -48t-56.5 -33t-62 -19t-63 -6q-80 0 -143 30t-107 80t-67 115t-23 135q0 78 21.5 148.5t64 123.5t106 84.5t148.5 31.5q58 0 109.5 -13.5t92 -42.5t68 -73.5t37.5 -107.5h-95q-7 40 -26 70t-47 49t-63.5 28.5t-75.5 9.5q-65 0 -111.5 -26 t-76 -68.5t-43.5 -97t-14 -111.5q0 -56 16 -107.5t47 -91t76.5 -63t105.5 -23.5q55 0 98.5 18t73.5 49q31 32 45 74q13 37 12 80v12h-228v80h313v-376h-60zM429 794h-90v104h90v-104z" glyph-name="Gdotaccent"/>
<glyph unicode="ġ" horiz-adv-x="574" d="M272 69q42 0 71.5 17.5t47.5 46t26.5 64.5t8.5 72q0 34 -8 67t-25.5 59.5t-45.5 42.5t-68 16q-41 0 -70 -15.5t-47.5 -41.5t-27 -60t-8.5 -71q0 -35 7 -70t24 -63.5t45 -46t70 -17.5zM510 44q0 -127 -58.5 -190.5t-181.5 -63.5q-36 0 -73.5 8t-68 26t-50.5 47t-22 71h85 q1 -23 14.5 -39t33 -26t42.5 -14.5t44 -4.5q42 0 71 14.5t48 40t27.5 61.5t8.5 80v34h-2q-11 -24 -28 -41.5t-38.5 -29t-46 -17.5t-48.5 -6q-58 0 -101 21t-72 57t-43.5 83.5t-14.5 100.5q0 46 12 94t40 88t74 65.5t113 25.5q49 0 90 -21.5t64 -64.5h1v74h80v-473zM332 604 h-90v104h90v-104z" glyph-name="gdotaccent"/>
<glyph unicode="Ģ" horiz-adv-x="759" d="M612 89q-21 -28 -47.5 -48t-56.5 -33t-62 -19t-63 -6q-80 0 -143 30t-107 80t-67 115t-23 135q0 78 21.5 148.5t64 123.5t106 84.5t148.5 31.5q58 0 109.5 -13.5t92 -42.5t68 -73.5t37.5 -107.5h-95q-7 40 -26 70t-47 49t-63.5 28.5t-75.5 9.5q-65 0 -111.5 -26 t-76 -68.5t-43.5 -97t-14 -111.5q0 -56 16 -107.5t47 -91t76.5 -63t105.5 -23.5q55 0 98.5 18t73.5 49q31 32 45 74q13 37 12 80v12h-228v80h313v-376h-60zM321 -50h111v-77q0 -43 -27.5 -63t-71.5 -20v35q22 6 29 12t9 12.5t2 12.5h-52v88z" glyph-name="Gcommaaccent"/>
<glyph unicode="ģ" horiz-adv-x="574" d="M272 69q42 0 71.5 17.5t47.5 46t26.5 64.5t8.5 72q0 34 -8 67t-25.5 59.5t-45.5 42.5t-68 16q-41 0 -70 -15.5t-47.5 -41.5t-27 -60t-8.5 -71q0 -35 7 -70t24 -63.5t45 -46t70 -17.5zM510 44q0 -127 -58.5 -190.5t-181.5 -63.5q-36 0 -73.5 8t-68 26t-50.5 47t-22 71h85 q1 -23 14.5 -39t33 -26t42.5 -14.5t44 -4.5q42 0 71 14.5t48 40t27.5 61.5t8.5 80v34h-2q-11 -24 -28 -41.5t-38.5 -29t-46 -17.5t-48.5 -6q-58 0 -101 21t-72 57t-43.5 83.5t-14.5 100.5q0 46 12 94t40 88t74 65.5t113 25.5q49 0 90 -21.5t64 -64.5h1v74h80v-473zM341 626 h-111v77q0 43 27.5 63t71.5 20v-35q-22 -6 -29 -12t-9 -12.5t-2 -12.5h52v-88z" glyph-name="gcommaaccent"/>
<glyph unicode="Ĥ" horiz-adv-x="722" d="M78 714h95v-307h376v307h95v-714h-95v327h-376v-327h-95v714zM312 922h93l104 -143h-84l-69 96l-70 -96h-77z" glyph-name="Hcircumflex"/>
<glyph unicode="ĥ" d="M64 714h85v-273h2q10 23 28.5 40t40.5 27.5t46.5 15.5t47.5 5q51 0 85 -14t55 -39t29.5 -59.5t8.5 -76.5v-340h-85v350q0 48 -28 76t-77 28q-39 0 -67.5 -12t-47.5 -34t-28.5 -51.5t-9.5 -64.5v-292h-85v714zM231 922h93l104 -143h-84l-69 96l-70 -96h-77z" glyph-name="hcircumflex"/>
<glyph unicode="Ħ" horiz-adv-x="722" d="M549 397v65h-376v-65h376zM78 714h95v-197h376v197h95v-714h-95v317h-376v-317h-95v714z" glyph-name="Hbar"/>
<glyph unicode="ħ" horiz-adv-x="566" d="M-10 638h84v76h85v-76h142v-55h-142v-142h2q10 23 28.5 40t40.5 27.5t46.5 15.5t47.5 5q51 0 85 -14t55 -39t29.5 -59.5t8.5 -76.5v-340h-85v350q0 48 -28 76t-77 28q-39 0 -67.5 -12t-47.5 -34t-28.5 -51.5t-9.5 -64.5v-292h-85v583h-84v55z" glyph-name="hbar"/>
<glyph unicode="Ĩ" horiz-adv-x="259" d="M82 714h95v-714h-95v714zM302 907q-6 -44 -32 -79q-13 -16 -29.5 -24t-39.5 -8q-21 0 -39 6t-36 14q-18 7 -35 13t-31 6q-8 0 -16.5 -3t-14.5 -8.5t-9.5 -11.5t-8.5 -19h-52q5 24 13.5 43.5t21 34t30 23.5t41.5 9q20 0 38 -6t35 -14t33.5 -14t32.5 -6q18 0 29 12t17 32 h52z" glyph-name="Itilde"/>
<glyph unicode="ĩ" horiz-adv-x="222" d="M69 0v517h85v-517h-85zM285 717q-6 -44 -32 -79q-13 -16 -29.5 -24t-39.5 -8q-21 0 -39 6t-36 14q-18 7 -35 13t-31 6q-8 0 -16.5 -3t-14.5 -8.5t-9.5 -11.5t-8.5 -19h-52q5 24 13.5 43.5t21 34t30 23.5t41.5 9q20 0 38 -6t35 -14t33.5 -14t32.5 -6q18 0 29 12t17 32h52z " glyph-name="itilde"/>
<glyph unicode="Ī" horiz-adv-x="259" d="M82 714h95v-714h-95v714zM-40 872h341v-55h-341v55z" glyph-name="Imacron"/>
<glyph unicode="ī" horiz-adv-x="222" d="M69 0v517h85v-517h-85zM-58 682h341v-55h-341v55z" glyph-name="imacron"/>
<glyph unicode="Į" horiz-adv-x="259" d="M82 714h95v-714q-23 -22 -37.5 -38t-23 -30.5t-11.5 -27t-3 -22.5q0 -19 9 -30.5t25 -11.5q19 0 32 8t24 22l28 -18q-19 -34 -41.5 -48t-49.5 -14q-8 0 -22.5 1.5t-29.5 9.5t-26 24.5t-11 46.5q0 7 3.5 20.5t14 30t31 37t52.5 40.5h-59v714z" glyph-name="Iogonek"/>
<glyph unicode="į" horiz-adv-x="222" d="M154 610h-85v104h85v-104zM154 0q-23 -22 -37.5 -38t-23 -30.5t-11.5 -27t-3 -22.5q0 -16 8 -29t26 -13q20 0 33 8t23 22l28 -18q-18 -35 -43.5 -48.5t-53.5 -13.5q-8 0 -22 1.5t-27.5 9.5t-23.5 24.5t-10 46.5q0 7 3.5 19.5t14 30t31 38t52.5 40.5h-49v517h85v-517z" glyph-name="iogonek"/>
<glyph unicode="İ" horiz-adv-x="259" d="M82 714h95v-714h-95v714zM175 794h-90v104h90v-104z" glyph-name="Idotaccent"/>
<glyph unicode="ı" horiz-adv-x="222" d="M69 0v517h85v-517h-85z" glyph-name="dotlessi"/>
<glyph unicode="Ĵ" horiz-adv-x="519" d="M441 178q0 -36 -10.5 -71t-35 -62.5t-65 -44.5t-100.5 -17q-100 0 -154 53.5t-54 154.5v44h95v-30q0 -31 5 -57t17.5 -45t35 -29.5t57.5 -10.5q65 0 89.5 35t24.5 94v522h95v-536zM344 922h93l104 -143h-84l-69 96l-70 -96h-77z" glyph-name="Jcircumflex"/>
<glyph unicode="ĵ" horiz-adv-x="222" d="M154 -66q0 -69 -33.5 -100.5t-90.5 -31.5q-11 0 -22 1t-22 3v73q9 -2 17 -2h18q28 0 38 15.5t10 55.5v569h85v-583zM64 732h93l104 -143h-84l-69 96l-70 -96h-77z" glyph-name="jcircumflex"/>
<glyph unicode="Ķ" horiz-adv-x="667" d="M78 714h95v-356l362 356h123l-301 -288l313 -426h-120l-258 361l-119 -111v-250h-95v714zM286 -50h111v-77q0 -43 -27.5 -63t-71.5 -20v35q22 6 29 12t9 12.5t2 12.5h-52v88z" glyph-name="Kcommaaccent"/>
<glyph unicode="ķ" horiz-adv-x="519" d="M69 714h85v-423l236 226h114l-205 -188l220 -329h-108l-177 270l-80 -74v-196h-85v714zM217 -50h111v-77q0 -43 -27.5 -63t-71.5 -20v35q22 6 29 12t9 12.5t2 12.5h-52v88z" glyph-name="kcommaaccent"/>
<glyph unicode="Ĺ" d="M78 714h95v-634h378v-80h-473v714zM179 922h109l-131 -143h-64z" glyph-name="Lacute"/>
<glyph unicode="ĺ" horiz-adv-x="222" d="M69 714h85v-714h-85v714zM156 922h109l-131 -143h-64z" glyph-name="lacute"/>
<glyph unicode="Ļ" d="M78 714h95v-634h378v-80h-473v714zM243 -50h111v-77q0 -43 -27.5 -63t-71.5 -20v35q22 6 29 12t9 12.5t2 12.5h-52v88z" glyph-name="Lcommaaccent"/>
<glyph unicode="ļ" horiz-adv-x="222" d="M69 714h85v-714h-85v714zM57 -50h111v-77q0 -43 -27.5 -63t-71.5 -20v35q22 6 29 12t9 12.5t2 12.5h-52v88z" glyph-name="lcommaaccent"/>
<glyph unicode="Ľ" d="M78 714h95v-634h378v-80h-473v714zM306 714h109l-75 -143h-60z" glyph-name="Lcaron"/>
<glyph unicode="ľ" horiz-adv-x="281" d="M69 714h85v-714h-85v714zM230 714h109l-75 -143h-60z" glyph-name="lcaron"/>
<glyph unicode="Ŀ" d="M78 714h95v-634h378v-80h-473v714zM399 414h-90v104h90v-104z" glyph-name="Ldot"/>
<glyph unicode="ŀ" horiz-adv-x="348" d="M69 714h85v-714h-85v714zM310 414h-90v104h90v-104z" glyph-name="ldot"/>
<glyph unicode="Ł" d="M78 240l-79 -56v76l79 56v398h95v-330l228 160v-76l-228 -160v-228h378v-80h-473v240z" glyph-name="Lslash"/>
<glyph unicode="ł" horiz-adv-x="222" d="M69 321l-70 -55v71l70 56v321h85v-254l70 56v-71l-70 -56v-389h-85v321z" glyph-name="lslash"/>
<glyph unicode="Ń" horiz-adv-x="722" d="M77 714h101l376 -579h2v579h90v-714h-104l-373 573h-2v-573h-90v714zM408 922h109l-131 -143h-64z" glyph-name="Nacute"/>
<glyph unicode="ń" d="M64 517h80v-82h2q27 48 69.5 71t98.5 23q51 0 85 -14t55 -39t29.5 -59.5t8.5 -76.5v-340h-85v350q0 48 -28 76t-77 28q-39 0 -67.5 -12t-47.5 -34t-28.5 -51.5t-9.5 -64.5v-292h-85v517zM328 732h109l-131 -143h-64z" glyph-name="nacute"/>
<glyph unicode="Ņ" horiz-adv-x="722" d="M77 714h101l376 -579h2v579h90v-714h-104l-373 573h-2v-573h-90v714zM302 -50h111v-77q0 -43 -27.5 -63t-71.5 -20v35q22 6 29 12t9 12.5t2 12.5h-52v88z" glyph-name="Ncommaaccent"/>
<glyph unicode="ņ" d="M64 517h80v-82h2q27 48 69.5 71t98.5 23q51 0 85 -14t55 -39t29.5 -59.5t8.5 -76.5v-340h-85v350q0 48 -28 76t-77 28q-39 0 -67.5 -12t-47.5 -34t-28.5 -51.5t-9.5 -64.5v-292h-85v517zM221 -50h111v-77q0 -43 -27.5 -63t-71.5 -20v35q22 6 29 12t9 12.5t2 12.5h-52v88z " glyph-name="ncommaaccent"/>
<glyph unicode="Ň" horiz-adv-x="722" d="M77 714h101l376 -579h2v579h90v-714h-104l-373 573h-2v-573h-90v714zM406 779h-93l-104 143h84l69 -96l70 96h77z" glyph-name="Ncaron"/>
<glyph unicode="ň" d="M64 517h80v-82h2q27 48 69.5 71t98.5 23q51 0 85 -14t55 -39t29.5 -59.5t8.5 -76.5v-340h-85v350q0 48 -28 76t-77 28q-39 0 -67.5 -12t-47.5 -34t-28.5 -51.5t-9.5 -64.5v-292h-85v517zM326 589h-93l-104 143h84l69 -96l70 96h77z" glyph-name="ncaron"/>
<glyph unicode="Ō" horiz-adv-x="760" d="M38 357q0 73 21.5 140.5t64.5 119.5t107 83t149 31t149 -31t107 -83t64.5 -119.5t21.5 -140.5t-21.5 -140.5t-64.5 -119.5t-107 -83t-149 -31t-149 31t-107 83t-64.5 119.5t-21.5 140.5zM133 357q0 -54 14 -106.5t44 -94.5t77 -67.5t112 -25.5t112 25.5t77 67.5t44 94.5 t14 106.5t-14 106.5t-44 94.5t-77 67.5t-112 25.5t-112 -25.5t-77 -67.5t-44 -94.5t-14 -106.5zM211 872h341v-55h-341v55z" glyph-name="Omacron"/>
<glyph unicode="ō" horiz-adv-x="574" d="M36 258q0 57 16 106.5t48 86t78.5 57.5t108.5 21q61 0 108 -21t79 -57.5t48 -86t16 -106.5t-16 -106t-48 -85.5t-79 -57.5t-108 -21q-62 0 -108.5 21t-78.5 57.5t-48 85.5t-16 106zM126 258q0 -47 12.5 -83.5t34.5 -61t51.5 -37.5t62.5 -13t62.5 13t51.5 37.5t34.5 61 t12.5 83.5t-12.5 83.5t-34.5 61.5t-51.5 38t-62.5 13t-62.5 -13t-51.5 -38t-34.5 -61.5t-12.5 -83.5zM121 682h341v-55h-341v55z" glyph-name="omacron"/>
<glyph unicode="Ŏ" horiz-adv-x="760" d="M38 357q0 73 21.5 140.5t64.5 119.5t107 83t149 31t149 -31t107 -83t64.5 -119.5t21.5 -140.5t-21.5 -140.5t-64.5 -119.5t-107 -83t-149 -31t-149 31t-107 83t-64.5 119.5t-21.5 140.5zM133 357q0 -54 14 -106.5t44 -94.5t77 -67.5t112 -25.5t112 25.5t77 67.5t44 94.5 t14 106.5t-14 106.5t-44 94.5t-77 67.5t-112 25.5t-112 -25.5t-77 -67.5t-44 -94.5t-14 -106.5zM275 919q24 -83 112 -83q43 0 63.5 22.5t35.5 60.5h51q-11 -64 -51.5 -101t-106.5 -37q-69 0 -106.5 35.5t-47.5 102.5h50z" glyph-name="Obreve"/>
<glyph unicode="ŏ" horiz-adv-x="574" d="M36 258q0 57 16 106.5t48 86t78.5 57.5t108.5 21q61 0 108 -21t79 -57.5t48 -86t16 -106.5t-16 -106t-48 -85.5t-79 -57.5t-108 -21q-62 0 -108.5 21t-78.5 57.5t-48 85.5t-16 106zM126 258q0 -47 12.5 -83.5t34.5 -61t51.5 -37.5t62.5 -13t62.5 13t51.5 37.5t34.5 61 t12.5 83.5t-12.5 83.5t-34.5 61.5t-51.5 38t-62.5 13t-62.5 -13t-51.5 -38t-34.5 -61.5t-12.5 -83.5zM182 729q24 -83 112 -83q43 0 63.5 22.5t35.5 60.5h51q-11 -64 -51.5 -101t-106.5 -37q-69 0 -106.5 35.5t-47.5 102.5h50z" glyph-name="obreve"/>
<glyph unicode="Ő" horiz-adv-x="760" d="M38 357q0 73 21.5 140.5t64.5 119.5t107 83t149 31t149 -31t107 -83t64.5 -119.5t21.5 -140.5t-21.5 -140.5t-64.5 -119.5t-107 -83t-149 -31t-149 31t-107 83t-64.5 119.5t-21.5 140.5zM133 357q0 -54 14 -106.5t44 -94.5t77 -67.5t112 -25.5t112 25.5t77 67.5t44 94.5 t14 106.5t-14 106.5t-44 94.5t-77 67.5t-112 25.5t-112 -25.5t-77 -67.5t-44 -94.5t-14 -106.5zM349 922h105l-120 -143h-66zM505 922h105l-120 -143h-66z" glyph-name="Ohungarumlaut"/>
<glyph unicode="ő" horiz-adv-x="574" d="M36 258q0 57 16 106.5t48 86t78.5 57.5t108.5 21q61 0 108 -21t79 -57.5t48 -86t16 -106.5t-16 -106t-48 -85.5t-79 -57.5t-108 -21q-62 0 -108.5 21t-78.5 57.5t-48 85.5t-16 106zM126 258q0 -47 12.5 -83.5t34.5 -61t51.5 -37.5t62.5 -13t62.5 13t51.5 37.5t34.5 61 t12.5 83.5t-12.5 83.5t-34.5 61.5t-51.5 38t-62.5 13t-62.5 -13t-51.5 -38t-34.5 -61.5t-12.5 -83.5zM252 732h105l-120 -143h-66zM408 732h105l-120 -143h-66z" glyph-name="ohungarumlaut"/>
<glyph unicode="Œ" horiz-adv-x="1074" d="M372 63q37 0 70 10.5t57 29t38 44.5t14 57v301q0 16 -2 34t-13 35q-20 31 -62.5 54t-99.5 23q-61 0 -106 -24t-75 -65.5t-45 -96t-15 -114.5t15.5 -112.5t45.5 -91.5t74.5 -61.5t103.5 -22.5zM551 69h-2q-13 -21 -33 -37t-44.5 -27t-52 -16.5t-54.5 -5.5q-79 0 -140 28.5 t-102.5 79t-63 118.5t-21.5 146q0 81 22.5 149.5t65.5 119t105 79t142 28.5q25 0 51.5 -4.5t50.5 -14t43.5 -24t30.5 -33.5h2v59h477v-80h-382v-227h350v-80h-350v-247h388v-80h-483v69z" glyph-name="OE"/>
<glyph unicode="œ" horiz-adv-x="891" d="M489 233v-7q0 -30 8.5 -59t27 -52.5t47 -37.5t66.5 -14q51 0 88 26.5t52 74.5h81q-51 -176 -221 -176q-65 0 -114.5 23t-73.5 79q-24 -56 -72.5 -79t-106.5 -23q-61 0 -105.5 21.5t-73 58.5t-42.5 86.5t-14 104.5q0 57 14 106t43.5 85.5t73.5 57.5t104 21t106.5 -18.5 t72.5 -72.5q27 46 77.5 68.5t105.5 22.5q64 0 109.5 -23.5t73.5 -63.5t38.5 -88.5t10.5 -95.5q0 -12 -1 -25h-375zM774 308q0 66 -37 106t-104 40t-106 -41t-38 -105h285zM415 260q0 36 -6 70.5t-22 62t-44 44.5t-72 17q-41 0 -68.5 -18t-44.5 -47t-24.5 -66t-7.5 -75 q0 -33 8 -66t25 -59.5t45 -43t67 -16.5q43 0 70.5 17.5t44 46t23 63.5t6.5 70z" glyph-name="oe"/>
<glyph unicode="Ŕ" horiz-adv-x="685" d="M371 385q33 0 63 5t52.5 19.5t36 39t13.5 63.5q0 53 -30 87.5t-97 34.5h-236v-249h198zM78 714h336q101 0 159 -50.5t58 -136.5q0 -65 -29.5 -114t-94.5 -67v-2q31 -6 50.5 -20t31.5 -33.5t17 -43.5t8 -50q2 -26 3.5 -53.5t5 -53t11 -49t22.5 -41.5h-106q-10 11 -13.5 30 t-4.5 42.5t-2 50.5t-6 53q-4 26 -10 49.5t-19 41t-34.5 28t-55.5 10.5h-232v-305h-95v714zM370 922h109l-131 -143h-64z" glyph-name="Racute"/>
<glyph unicode="ŕ" horiz-adv-x="333" d="M61 517h80v-109h2q31 63 76 93q42 28 105 28h9v-90q-51 0 -87 -14t-58 -41t-32 -66t-10 -88v-230h-85v517zM166 732h109l-131 -143h-64z" glyph-name="racute"/>
<glyph unicode="Ŗ" horiz-adv-x="685" d="M371 385q33 0 63 5t52.5 19.5t36 39t13.5 63.5q0 53 -30 87.5t-97 34.5h-236v-249h198zM78 714h336q101 0 159 -50.5t58 -136.5q0 -65 -29.5 -114t-94.5 -67v-2q31 -6 50.5 -20t31.5 -33.5t17 -43.5t8 -50q2 -26 3.5 -53.5t5 -53t11 -49t22.5 -41.5h-106q-10 11 -13.5 30 t-4.5 42.5t-2 50.5t-6 53q-4 26 -10 49.5t-19 41t-34.5 28t-55.5 10.5h-232v-305h-95v714zM295 -50h111v-77q0 -43 -27.5 -63t-71.5 -20v35q22 6 29 12t9 12.5t2 12.5h-52v88z" glyph-name="Rcommaaccent"/>
<glyph unicode="ŗ" horiz-adv-x="333" d="M61 517h80v-109h2q31 63 76 93q42 28 105 28h9v-90q-51 0 -87 -14t-58 -41t-32 -66t-10 -88v-230h-85v517zM49 -50h111v-77q0 -43 -27.5 -63t-71.5 -20v35q22 6 29 12t9 12.5t2 12.5h-52v88z" glyph-name="rcommaaccent"/>
<glyph unicode="Ř" horiz-adv-x="685" d="M371 385q33 0 63 5t52.5 19.5t36 39t13.5 63.5q0 53 -30 87.5t-97 34.5h-236v-249h198zM78 714h336q101 0 159 -50.5t58 -136.5q0 -65 -29.5 -114t-94.5 -67v-2q31 -6 50.5 -20t31.5 -33.5t17 -43.5t8 -50q2 -26 3.5 -53.5t5 -53t11 -49t22.5 -41.5h-106q-10 11 -13.5 30 t-4.5 42.5t-2 50.5t-6 53q-4 26 -10 49.5t-19 41t-34.5 28t-55.5 10.5h-232v-305h-95v714zM388 779h-93l-104 143h84l69 -96l70 96h77z" glyph-name="Rcaron"/>
<glyph unicode="ř" horiz-adv-x="333" d="M61 517h80v-109h2q31 63 76 93q42 28 105 28h9v-90q-51 0 -87 -14t-58 -41t-32 -66t-10 -88v-230h-85v517zM240 589h-93l-104 143h84l69 -96l70 96h77z" glyph-name="rcaron"/>
<glyph unicode="Ś" horiz-adv-x="648" d="M491 505q-8 77 -55.5 111.5t-121.5 34.5q-30 0 -59 -6t-51.5 -20t-36 -37.5t-13.5 -58.5q0 -33 19.5 -53.5t52 -33.5t73.5 -21.5t84 -18.5t84 -23.5t73 -36.5t51.5 -58.5t19.5 -87.5q0 -57 -25.5 -97.5t-65.5 -66t-89.5 -37.5t-98.5 -12q-60 0 -113.5 15t-94 46t-64 78.5 t-23.5 112.5h90q0 -45 17.5 -77.5t46 -53.5t66 -31t78.5 -10q32 0 64.5 6t58.5 20.5t42 39.5t16 64q0 37 -19.5 60t-51.5 37.5t-73 24t-84 18.5t-84 21.5t-73.5 33.5t-52 53t-19.5 81q0 54 22 93.5t58.5 65t83 38t95.5 12.5q55 0 102 -13t82 -41t56 -70.5t23 -101.5h-90z M367 922h109l-131 -143h-64z" glyph-name="Sacute"/>
<glyph unicode="ś" horiz-adv-x="500" d="M116 163q1 -29 13 -48t31.5 -30.5t44 -16.5t50.5 -5q20 0 42 3t40.5 11t30.5 23.5t12 39.5q0 25 -14.5 40.5t-38 25.5t-54 16.5t-62.5 13.5t-62 17t-54 26t-38.5 41t-14.5 62q0 39 17.5 67t45 45.5t62 26t68.5 8.5q43 0 80.5 -7.5t66 -26t45.5 -50t20 -78.5h-85 q-2 25 -13.5 41.5t-28 26.5t-37 14.5t-41.5 4.5q-19 0 -38.5 -3t-35.5 -10.5t-26 -20.5t-10 -32q0 -23 15.5 -37t39.5 -23.5t54 -16t60 -13.5q32 -7 62.5 -17t54 -26.5t38 -41.5t14.5 -62q0 -46 -19.5 -77.5t-51 -50.5t-71 -27t-78.5 -8q-44 0 -82.5 9.5t-68.5 30t-48 54 t-20 81.5h85zM290 732h109l-131 -143h-64z" glyph-name="sacute"/>
<glyph unicode="Ŝ" horiz-adv-x="648" d="M491 505q-8 77 -55.5 111.5t-121.5 34.5q-30 0 -59 -6t-51.5 -20t-36 -37.5t-13.5 -58.5q0 -33 19.5 -53.5t52 -33.5t73.5 -21.5t84 -18.5t84 -23.5t73 -36.5t51.5 -58.5t19.5 -87.5q0 -57 -25.5 -97.5t-65.5 -66t-89.5 -37.5t-98.5 -12q-60 0 -113.5 15t-94 46t-64 78.5 t-23.5 112.5h90q0 -45 17.5 -77.5t46 -53.5t66 -31t78.5 -10q32 0 64.5 6t58.5 20.5t42 39.5t16 64q0 37 -19.5 60t-51.5 37.5t-73 24t-84 18.5t-84 21.5t-73.5 33.5t-52 53t-19.5 81q0 54 22 93.5t58.5 65t83 38t95.5 12.5q55 0 102 -13t82 -41t56 -70.5t23 -101.5h-90z M278 922h93l104 -143h-84l-69 96l-70 -96h-77z" glyph-name="Scircumflex"/>
<glyph unicode="ŝ" horiz-adv-x="500" d="M116 163q1 -29 13 -48t31.5 -30.5t44 -16.5t50.5 -5q20 0 42 3t40.5 11t30.5 23.5t12 39.5q0 25 -14.5 40.5t-38 25.5t-54 16.5t-62.5 13.5t-62 17t-54 26t-38.5 41t-14.5 62q0 39 17.5 67t45 45.5t62 26t68.5 8.5q43 0 80.5 -7.5t66 -26t45.5 -50t20 -78.5h-85 q-2 25 -13.5 41.5t-28 26.5t-37 14.5t-41.5 4.5q-19 0 -38.5 -3t-35.5 -10.5t-26 -20.5t-10 -32q0 -23 15.5 -37t39.5 -23.5t54 -16t60 -13.5q32 -7 62.5 -17t54 -26.5t38 -41.5t14.5 -62q0 -46 -19.5 -77.5t-51 -50.5t-71 -27t-78.5 -8q-44 0 -82.5 9.5t-68.5 30t-48 54 t-20 81.5h85zM206 732h93l104 -143h-84l-69 96l-70 -96h-77z" glyph-name="scircumflex"/>
<glyph unicode="Ş" horiz-adv-x="648" d="M217 -147q12 -5 28.5 -9t32.5 -4q10 0 21 1.5t20 5.5t15 9.5t6 14.5q0 14 -13.5 22.5t-33.5 8.5q-12 0 -21 -2t-20 -6l-17 28l49 64q-34 3 -66 12q-53 15 -93.5 46t-64 78.5t-23.5 112.5h90q0 -45 17.5 -77.5t46 -53.5t66 -31t78.5 -10q32 0 64.5 6t58.5 20.5t42 39.5 t16 64q0 37 -19.5 60t-51.5 37.5t-73 24t-84 18.5t-84 21.5t-73.5 33.5t-52 53t-19.5 81q0 54 22 93.5t58.5 65t83 38t95.5 12.5q55 0 102 -13t82 -41t56 -70.5t23 -101.5h-90q-8 77 -55.5 111.5t-121.5 34.5q-30 0 -59 -6t-51.5 -20t-36 -37.5t-13.5 -58.5 q0 -33 19.5 -53.5t52 -33.5t73.5 -21.5t84 -18.5t84 -23.5t73 -36.5t51.5 -58.5t19.5 -87.5q0 -57 -25.5 -97.5t-65.5 -66t-89.5 -37.5t-98.5 -12h-8l-28 -36l2 -2q10 7 33 7q16 0 31 -4.5t27 -13.5t19 -23t7 -32q0 -25 -11.5 -42t-29.5 -27.5t-40 -15t-43 -4.5 q-24 0 -46.5 5.5t-45.5 13.5z" glyph-name="Scedilla"/>
<glyph unicode="ş" horiz-adv-x="500" d="M146 -147q12 -5 28.5 -9t32.5 -4q10 0 21 1.5t20 5.5t15 9.5t6 14.5q0 14 -13.5 22.5t-33.5 8.5q-12 0 -21 -2t-20 -6l-17 28l52 68q-25 2 -49 8q-38 9 -68 29.5t-48 54t-20 81.5h85q1 -29 13 -48t31.5 -30.5t44 -16.5t50.5 -5q20 0 42 3t40.5 11t30.5 23.5t12 39.5 q0 25 -14.5 40.5t-38 25.5t-54 16.5t-62.5 13.5t-62 17t-54 26t-38.5 41t-14.5 62q0 39 17.5 67t45 45.5t62 26t68.5 8.5q43 0 80.5 -7.5t66 -26t45.5 -50t20 -78.5h-85q-2 25 -13.5 41.5t-28 26.5t-37 14.5t-41.5 4.5q-19 0 -38.5 -3t-35.5 -10.5t-26 -20.5t-10 -32 q0 -23 15.5 -37t39.5 -23.5t54 -16t60 -13.5q32 -7 62.5 -17t54 -26.5t38 -41.5t14.5 -62q0 -46 -19.5 -77.5t-51 -50.5t-71.5 -27q-35 -7 -71 -8l-32 -41l2 -2q10 7 33 7q16 0 31 -4.5t27 -13.5t19 -23t7 -32q0 -25 -11.5 -42t-29.5 -27.5t-40 -15t-43 -4.5 q-24 0 -46.5 5.5t-45.5 13.5z" glyph-name="scedilla"/>
<glyph unicode="Š" horiz-adv-x="648" d="M491 505q-8 77 -55.5 111.5t-121.5 34.5q-30 0 -59 -6t-51.5 -20t-36 -37.5t-13.5 -58.5q0 -33 19.5 -53.5t52 -33.5t73.5 -21.5t84 -18.5t84 -23.5t73 -36.5t51.5 -58.5t19.5 -87.5q0 -57 -25.5 -97.5t-65.5 -66t-89.5 -37.5t-98.5 -12q-60 0 -113.5 15t-94 46t-64 78.5 t-23.5 112.5h90q0 -45 17.5 -77.5t46 -53.5t66 -31t78.5 -10q32 0 64.5 6t58.5 20.5t42 39.5t16 64q0 37 -19.5 60t-51.5 37.5t-73 24t-84 18.5t-84 21.5t-73.5 33.5t-52 53t-19.5 81q0 54 22 93.5t58.5 65t83 38t95.5 12.5q55 0 102 -13t82 -41t56 -70.5t23 -101.5h-90z M373 779h-93l-104 143h84l69 -96l70 96h77z" glyph-name="Scaron"/>
<glyph unicode="š" horiz-adv-x="500" d="M116 163q1 -29 13 -48t31.5 -30.5t44 -16.5t50.5 -5q20 0 42 3t40.5 11t30.5 23.5t12 39.5q0 25 -14.5 40.5t-38 25.5t-54 16.5t-62.5 13.5t-62 17t-54 26t-38.5 41t-14.5 62q0 39 17.5 67t45 45.5t62 26t68.5 8.5q43 0 80.5 -7.5t66 -26t45.5 -50t20 -78.5h-85 q-2 25 -13.5 41.5t-28 26.5t-37 14.5t-41.5 4.5q-19 0 -38.5 -3t-35.5 -10.5t-26 -20.5t-10 -32q0 -23 15.5 -37t39.5 -23.5t54 -16t60 -13.5q32 -7 62.5 -17t54 -26.5t38 -41.5t14.5 -62q0 -46 -19.5 -77.5t-51 -50.5t-71 -27t-78.5 -8q-44 0 -82.5 9.5t-68.5 30t-48 54 t-20 81.5h85zM300 589h-93l-104 143h84l69 -96l70 96h77z" glyph-name="scaron"/>
<glyph unicode="Ţ" horiz-adv-x="574" d="M240 634h-238v80h571v-80h-238v-634h-95v634zM231 -50h111v-77q0 -43 -27.5 -63t-71.5 -20v35q22 6 29 12t9 12.5t2 12.5h-52v88z" glyph-name="Tcommaaccent"/>
<glyph unicode="ţ" horiz-adv-x="315" d="M182 517h103v-75h-103v-321q0 -15 2.5 -24t9.5 -14t19.5 -6.5t32.5 -1.5h39v-75h-65q-33 0 -56.5 4.5t-38 16.5t-21.5 34t-7 58v329h-88v75h88v155h85v-155zM130 -50h111v-77q0 -43 -27.5 -63t-71.5 -20v35q22 6 29 12t9 12.5t2 12.5h-52v88z" glyph-name="tcommaaccent"/>
<glyph unicode="Ť" horiz-adv-x="574" d="M240 634h-238v80h571v-80h-238v-634h-95v634zM332 779h-93l-104 143h84l69 -96l70 96h77z" glyph-name="Tcaron"/>
<glyph unicode="ť" horiz-adv-x="363" d="M306 714h109l-75 -143h-60zM182 517h103v-75h-103v-321q0 -15 2.5 -24t9.5 -14t19.5 -6.5t32.5 -1.5h39v-75h-65q-33 0 -56.5 4.5t-38 16.5t-21.5 34t-7 58v329h-88v75h88v155h85v-155z" glyph-name="tcaron"/>
<glyph unicode="Ŧ" horiz-adv-x="574" d="M98 486h142v148h-238v80h571v-80h-238v-148h144v-55h-144v-431h-95v431h-142v55z" glyph-name="Tbar"/>
<glyph unicode="ŧ" horiz-adv-x="315" d="M-1 346h98v96h-88v75h88v155h85v-155h103v-75h-103v-96h113v-55h-113v-170q0 -15 2.5 -24t9.5 -14t19.5 -6.5t32.5 -1.5h39v-75h-65q-33 0 -56.5 4.5t-38 16.5t-21.5 34t-7 58v178h-98v55z" glyph-name="tbar"/>
<glyph unicode="Ũ" horiz-adv-x="722" d="M648 258q0 -136 -73.5 -205.5t-207.5 -69.5q-69 0 -123.5 16t-92 50t-57.5 86t-20 123v456h95v-456q0 -95 51.5 -145t146.5 -50q91 0 138.5 50t47.5 145v456h95v-456zM534 907q-6 -44 -32 -79q-13 -16 -29.5 -24t-39.5 -8q-21 0 -39 6t-36 14q-18 7 -35 13t-31 6 q-8 0 -16.5 -3t-14.5 -8.5t-9.5 -11.5t-8.5 -19h-52q5 24 13.5 43.5t21 34t30 23.5t41.5 9q20 0 38 -6t35 -14t33.5 -14t32.5 -6q18 0 29 12t17 32h52z" glyph-name="Utilde"/>
<glyph unicode="ũ" d="M492 0h-80v82h-2q-27 -48 -69.5 -71t-98.5 -23q-51 0 -85 14t-55 39t-29.5 59.5t-8.5 76.5v340h85v-350q0 -48 28 -76t77 -28q39 0 67.5 12t47.5 34t28.5 51.5t9.5 64.5v292h85v-517zM450 717q-6 -44 -32 -79q-13 -16 -29.5 -24t-39.5 -8q-21 0 -39 6t-36 14 q-18 7 -35 13t-31 6q-8 0 -16.5 -3t-14.5 -8.5t-9.5 -11.5t-8.5 -19h-52q5 24 13.5 43.5t21 34t30 23.5t41.5 9q20 0 38 -6t35 -14t33.5 -14t32.5 -6q18 0 29 12t17 32h52z" glyph-name="utilde"/>
<glyph unicode="Ū" horiz-adv-x="722" d="M648 258q0 -136 -73.5 -205.5t-207.5 -69.5q-69 0 -123.5 16t-92 50t-57.5 86t-20 123v456h95v-456q0 -95 51.5 -145t146.5 -50q91 0 138.5 50t47.5 145v456h95v-456zM192 872h341v-55h-341v55z" glyph-name="Umacron"/>
<glyph unicode="ū" d="M492 0h-80v82h-2q-27 -48 -69.5 -71t-98.5 -23q-51 0 -85 14t-55 39t-29.5 59.5t-8.5 76.5v340h85v-350q0 -48 28 -76t77 -28q39 0 67.5 12t47.5 34t28.5 51.5t9.5 64.5v292h85v-517zM112 682h341v-55h-341v55z" glyph-name="umacron"/>
<glyph unicode="Ŭ" horiz-adv-x="722" d="M648 258q0 -136 -73.5 -205.5t-207.5 -69.5q-69 0 -123.5 16t-92 50t-57.5 86t-20 123v456h95v-456q0 -95 51.5 -145t146.5 -50q91 0 138.5 50t47.5 145v456h95v-456zM250 919q24 -83 112 -83q43 0 63.5 22.5t35.5 60.5h51q-11 -64 -51.5 -101t-106.5 -37 q-69 0 -106.5 35.5t-47.5 102.5h50z" glyph-name="Ubreve"/>
<glyph unicode="ŭ" d="M492 0h-80v82h-2q-27 -48 -69.5 -71t-98.5 -23q-51 0 -85 14t-55 39t-29.5 59.5t-8.5 76.5v340h85v-350q0 -48 28 -76t77 -28q39 0 67.5 12t47.5 34t28.5 51.5t9.5 64.5v292h85v-517zM172 729q24 -83 112 -83q43 0 63.5 22.5t35.5 60.5h51q-11 -64 -51.5 -101t-106.5 -37 q-69 0 -106.5 35.5t-47.5 102.5h50z" glyph-name="ubreve"/>
<glyph unicode="Ů" horiz-adv-x="722" d="M648 258q0 -136 -73.5 -205.5t-207.5 -69.5q-69 0 -123.5 16t-92 50t-57.5 86t-20 123v456h95v-456q0 -95 51.5 -145t146.5 -50q91 0 138.5 50t47.5 145v456h95v-456zM293 860q0 -29 19 -48.5t48 -19.5t48 19.5t19 48.5t-19 48.5t-48 19.5t-48 -19.5t-19 -48.5zM247 861 q0 23 9 43.5t24.5 36t36 24t43.5 8.5t43.5 -8.5t36 -24t24.5 -36t9 -43.5t-9 -43.5t-24.5 -36t-36 -24t-43.5 -8.5t-43.5 8.5t-36 24t-24.5 36t-9 43.5z" glyph-name="Uring"/>
<glyph unicode="ů" d="M492 0h-80v82h-2q-27 -48 -69.5 -71t-98.5 -23q-51 0 -85 14t-55 39t-29.5 59.5t-8.5 76.5v340h85v-350q0 -48 28 -76t77 -28q39 0 67.5 12t47.5 34t28.5 51.5t9.5 64.5v292h85v-517zM211 680q0 -29 19 -48.5t48 -19.5t48 19.5t19 48.5t-19 48.5t-48 19.5t-48 -19.5 t-19 -48.5zM165 681q0 23 9 43.5t24.5 36t36 24t43.5 8.5t43.5 -8.5t36 -24t24.5 -36t9 -43.5t-9 -43.5t-24.5 -36t-36 -24t-43.5 -8.5t-43.5 8.5t-36 24t-24.5 36t-9 43.5z" glyph-name="uring"/>
<glyph unicode="Ű" horiz-adv-x="722" d="M648 258q0 -136 -73.5 -205.5t-207.5 -69.5q-69 0 -123.5 16t-92 50t-57.5 86t-20 123v456h95v-456q0 -95 51.5 -145t146.5 -50q91 0 138.5 50t47.5 145v456h95v-456zM329 922h105l-120 -143h-66zM485 922h105l-120 -143h-66z" glyph-name="Uhungarumlaut"/>
<glyph unicode="ű" d="M492 0h-80v82h-2q-27 -48 -69.5 -71t-98.5 -23q-51 0 -85 14t-55 39t-29.5 59.5t-8.5 76.5v340h85v-350q0 -48 28 -76t77 -28q39 0 67.5 12t47.5 34t28.5 51.5t9.5 64.5v292h85v-517zM244 732h105l-120 -143h-66zM400 732h105l-120 -143h-66z" glyph-name="uhungarumlaut"/>
<glyph unicode="Ų" horiz-adv-x="722" d="M648 258q0 -136 -74 -206q-65 -61 -177 -68q-13 -12 -23 -22q-16 -16 -25.5 -30.5t-13 -27t-3.5 -22.5q0 -16 9 -29t29 -13q23 0 37 8t25 22l32 -18q-20 -35 -48.5 -48.5t-59.5 -13.5q-9 0 -24.5 1.5t-30.5 9.5t-26 24.5t-11 46.5q0 7 3.5 19.5t15.5 30t34 38.5 q13 12 31 23q-58 2 -105 16q-54 16 -91.5 50t-57.5 86t-20 123v456h95v-456q0 -95 51.5 -145t146.5 -50q91 0 138.5 50t47.5 145v456h95v-456z" glyph-name="Uogonek"/>
<glyph unicode="ų" d="M452 0q-26 -22 -42 -38t-25.5 -30.5t-13 -27t-3.5 -22.5q0 -16 9 -29t29 -13q23 0 37 8t25 22l32 -18q-20 -35 -48.5 -48.5t-59.5 -13.5q-9 0 -24.5 1.5t-30.5 9.5t-26 24.5t-11 46.5q0 7 3.5 19.5t15.5 30t34.5 38t58.5 40.5v82h-2q-27 -48 -69.5 -71t-98.5 -23 q-51 0 -85 14t-55 39t-29.5 59.5t-8.5 76.5v340h85v-350q0 -48 28 -76t77 -28q39 0 67.5 12t47.5 34t28.5 51.5t9.5 64.5v292h85v-517h-40z" glyph-name="uogonek"/>
<glyph unicode="Ŵ" horiz-adv-x="926" d="M723 0h-99l-163 600h-2l-165 -600h-99l-183 714h97l140 -594h2l160 594h103l158 -594h2l145 594h95zM416 922h93l104 -143h-84l-69 96l-70 -96h-77z" glyph-name="Wcircumflex"/>
<glyph unicode="ŵ" horiz-adv-x="758" d="M576 0h-90l-105 411h-2l-104 -411h-92l-166 517h94l117 -423h2l104 423h93l108 -423h2l116 423h88zM336 732h93l104 -143h-84l-69 96l-70 -96h-77z" glyph-name="wcircumflex"/>
<glyph unicode="Ŷ" horiz-adv-x="648" d="M373 292v-292h-95v292l-276 422h113l214 -340l209 340h108zM282 922h93l104 -143h-84l-69 96l-70 -96h-77z" glyph-name="Ycircumflex"/>
<glyph unicode="ŷ" horiz-adv-x="500" d="M267 -69q-15 -38 -29.5 -64t-31.5 -42.5t-39 -24t-50 -7.5q-15 0 -30 2t-29 7v78q12 -4 24.5 -8t25.5 -4q26 0 42 12t28 35l35 88l-205 514h96l151 -423h2l145 423h90zM209 732h93l104 -143h-84l-69 96l-70 -96h-77z" glyph-name="ycircumflex"/>
<glyph unicode="Ÿ" horiz-adv-x="648" d="M373 292v-292h-95v292l-276 422h113l214 -340l209 340h108zM377 896h90v-104h-90v104zM189 896h90v-104h-90v104z" glyph-name="Ydieresis"/>
<glyph unicode="Ź" horiz-adv-x="611" d="M22 80l444 554h-410v80h522v-80l-443 -554h455v-80h-568v80zM357 922h109l-131 -143h-64z" glyph-name="Zacute"/>
<glyph unicode="ź" horiz-adv-x="480" d="M22 65l312 377h-292v75h402v-58l-316 -384h330v-75h-436v65zM291 732h109l-131 -143h-64z" glyph-name="zacute"/>
<glyph unicode="Ż" horiz-adv-x="611" d="M22 80l444 554h-410v80h522v-80l-443 -554h455v-80h-568v80zM359 794h-90v104h90v-104z" glyph-name="Zdotaccent"/>
<glyph unicode="ż" horiz-adv-x="480" d="M22 65l312 377h-292v75h402v-58l-316 -384h330v-75h-436v65zM290 604h-90v104h90v-104z" glyph-name="zdotaccent"/>
<glyph unicode="Ž" horiz-adv-x="611" d="M22 80l444 554h-410v80h522v-80l-443 -554h455v-80h-568v80zM360 779h-93l-104 143h84l69 -96l70 96h77z" glyph-name="Zcaron"/>
<glyph unicode="ž" horiz-adv-x="480" d="M22 65l312 377h-292v75h402v-58l-316 -384h330v-75h-436v65zM288 589h-93l-104 143h84l69 -96l70 96h77z" glyph-name="zcaron"/>
<glyph unicode="ƒ" d="M478 639h-59q-27 0 -41.5 -13t-20.5 -39l-31 -138h102l-14 -68h-100l-55 -311q-12 -68 -27.5 -113.5t-38 -72.5t-52.5 -38t-72 -11h-66l14 75q39 0 63.5 3t39 13.5t22.5 30.5t14 55l70 369h-92l13 68h91l26 136q11 57 50.5 93t103.5 36h74z" glyph-name="florin"/>
<glyph unicode="Ș" horiz-adv-x="648" d="M491 505q-8 77 -55.5 111.5t-121.5 34.5q-30 0 -59 -6t-51.5 -20t-36 -37.5t-13.5 -58.5q0 -33 19.5 -53.5t52 -33.5t73.5 -21.5t84 -18.5t84 -23.5t73 -36.5t51.5 -58.5t19.5 -87.5q0 -57 -25.5 -97.5t-65.5 -66t-89.5 -37.5t-98.5 -12q-60 0 -113.5 15t-94 46t-64 78.5 t-23.5 112.5h90q0 -45 17.5 -77.5t46 -53.5t66 -31t78.5 -10q32 0 64.5 6t58.5 20.5t42 39.5t16 64q0 37 -19.5 60t-51.5 37.5t-73 24t-84 18.5t-84 21.5t-73.5 33.5t-52 53t-19.5 81q0 54 22 93.5t58.5 65t83 38t95.5 12.5q55 0 102 -13t82 -41t56 -70.5t23 -101.5h-90z M270 -50h111v-77q0 -43 -27.5 -63t-71.5 -20v35q22 6 29 12t9 12.5t2 12.5h-52v88z" glyph-name="Scommaaccent"/>
<glyph unicode="ș" horiz-adv-x="500" d="M116 163q1 -29 13 -48t31.5 -30.5t44 -16.5t50.5 -5q20 0 42 3t40.5 11t30.5 23.5t12 39.5q0 25 -14.5 40.5t-38 25.5t-54 16.5t-62.5 13.5t-62 17t-54 26t-38.5 41t-14.5 62q0 39 17.5 67t45 45.5t62 26t68.5 8.5q43 0 80.5 -7.5t66 -26t45.5 -50t20 -78.5h-85 q-2 25 -13.5 41.5t-28 26.5t-37 14.5t-41.5 4.5q-19 0 -38.5 -3t-35.5 -10.5t-26 -20.5t-10 -32q0 -23 15.5 -37t39.5 -23.5t54 -16t60 -13.5q32 -7 62.5 -17t54 -26.5t38 -41.5t14.5 -62q0 -46 -19.5 -77.5t-51 -50.5t-71 -27t-78.5 -8q-44 0 -82.5 9.5t-68.5 30t-48 54 t-20 81.5h85zM196 -50h111v-77q0 -43 -27.5 -63t-71.5 -20v35q22 6 29 12t9 12.5t2 12.5h-52v88z" glyph-name="scommaaccent"/>
<glyph unicode="Ț" horiz-adv-x="574" d="M240 634h-238v80h571v-80h-238v-634h-95v634zM231 -50h111v-77q0 -43 -27.5 -63t-71.5 -20v35q22 6 29 12t9 12.5t2 12.5h-52v88z" glyph-name="uni021A"/>
<glyph unicode="ț" horiz-adv-x="315" d="M182 517h103v-75h-103v-321q0 -15 2.5 -24t9.5 -14t19.5 -6.5t32.5 -1.5h39v-75h-65q-33 0 -56.5 4.5t-38 16.5t-21.5 34t-7 58v329h-88v75h88v155h85v-155zM130 -50h111v-77q0 -43 -27.5 -63t-71.5 -20v35q22 6 29 12t9 12.5t2 12.5h-52v88z" glyph-name="uni021B"/>
<glyph unicode="ˆ" horiz-adv-x="222" d="M64 732h93l104 -143h-84l-69 96l-70 -96h-77z" glyph-name="circumflex"/>
<glyph unicode="ˇ" horiz-adv-x="222" d="M158 589h-93l-104 143h84l69 -96l70 96h77z" glyph-name="caron"/>
<glyph unicode="ˉ" horiz-adv-x="222" d="M-59 682h341v-55h-341v55z" glyph-name="uni02C9"/>
<glyph unicode="˘" horiz-adv-x="222" d="M5 729q24 -83 112 -83q43 0 63.5 22.5t35.5 60.5h51q-11 -64 -51.5 -101t-106.5 -37q-69 0 -106.5 35.5t-47.5 102.5h50z" glyph-name="breve"/>
<glyph unicode="˙" horiz-adv-x="222" d="M156 604h-90v104h90v-104z" glyph-name="dotaccent"/>
<glyph unicode="˚" horiz-adv-x="222" d="M44 680q0 -29 19 -48.5t48 -19.5t48 19.5t19 48.5t-19 48.5t-48 19.5t-48 -19.5t-19 -48.5zM-2 681q0 23 9 43.5t24.5 36t36 24t43.5 8.5t43.5 -8.5t36 -24t24.5 -36t9 -43.5t-9 -43.5t-24.5 -36t-36 -24t-43.5 -8.5t-43.5 8.5t-36 24t-24.5 36t-9 43.5z" glyph-name="ring"/>
<glyph unicode="˛" horiz-adv-x="222" d="M228 0q-26 -22 -42 -38t-25.5 -30.5t-13 -27t-3.5 -22.5q0 -16 9 -29t29 -13q23 0 37 8t25 22l32 -18q-20 -35 -48.5 -48.5t-59.5 -13.5q-9 0 -24.5 1.5t-30.5 9.5t-26 24.5t-11 46.5q0 7 3.5 19.5t15.5 30t34.5 38t58.5 40.5h40z" glyph-name="ogonek"/>
<glyph unicode="˜" horiz-adv-x="222" d="M285 717q-6 -44 -32 -79q-13 -16 -29.5 -24t-39.5 -8q-21 0 -39 6t-36 14q-18 7 -35 13t-31 6q-8 0 -16.5 -3t-14.5 -8.5t-9.5 -11.5t-8.5 -19h-52q5 24 13.5 43.5t21 34t30 23.5t41.5 9q20 0 38 -6t35 -14t33.5 -14t32.5 -6q18 0 29 12t17 32h52z" glyph-name="tilde"/>
<glyph unicode="˝" horiz-adv-x="222" d="M33 732h105l-120 -143h-66zM189 732h105l-120 -143h-66z" glyph-name="hungarumlaut"/>
<glyph unicode="Δ" horiz-adv-x="674" d="M13 0l279 712h83l287 -712h-649zM333 628l-213 -556h430z" glyph-name="uni0394"/>
<glyph unicode="Ω" horiz-adv-x="748" d="M432 0v183q87 17 131.5 78.5t44.5 148.5q0 52 -18 95.5t-50 75.5t-76 50t-96 18q-51 0 -95.5 -18t-76.5 -50t-50.5 -76t-18.5 -95q0 -42 11.5 -80.5t33.5 -68.5t55 -50.5t77 -27.5v-183h-257v67h193v72q-47 13 -82.5 40t-60.5 63t-37.5 80t-12.5 91q0 67 25.5 124 t69.5 97.5t102 63.5t124 23t124 -22.5t101.5 -63t69 -97t25.5 -123.5q0 -48 -12.5 -92t-36.5 -80.5t-60 -63.5t-83 -40v-72h192v-67h-256z" glyph-name="uni03A9"/>
<glyph unicode="μ" d="M492 0h-80v82h-2q-27 -48 -69.5 -71t-98.5 -23q-32 0 -55 9t-36 29h-2v-224h-85v715h85v-350q0 -48 28 -76t77 -28q39 0 67.5 12t47.5 34t28.5 51.5t9.5 64.5v292h85v-517z" glyph-name="uni03BC"/>
<glyph unicode="π" horiz-adv-x="570" d="M547 11q-17 -8 -33 -12.5t-36 -4.5q-30 0 -47.5 9.5t-26 26t-10.5 38.5t-2 46v296h-246v-410h-75v410h-69v69h541v-69h-76v-299q0 -22 6 -37.5t32 -15.5q20 0 42 10v-57z" glyph-name="pi"/>
<glyph unicode="–" horiz-adv-x="500" d="M0 318h500v-80h-500v80z" glyph-name="endash"/>
<glyph unicode="—" horiz-adv-x="1000" d="M130 318h740v-80h-740v80z" glyph-name="emdash"/>
<glyph unicode="‘" horiz-adv-x="278" d="M195 456h-111v111q0 30 6.5 56.5t20 46.5t34 32t49.5 12v-50q-17 0 -28 -8.5t-18 -22.5t-9.5 -31.5t-2.5 -34.5h59v-111z" glyph-name="quoteleft"/>
<glyph unicode="’" horiz-adv-x="278" d="M83 714h111v-111q0 -30 -6.5 -56.5t-20 -46.5t-34 -32t-49.5 -12v50q17 0 28 8.5t18 22.5t9.5 31.5t2.5 34.5h-59v111z" glyph-name="quoteright"/>
<glyph unicode="‚" horiz-adv-x="278" d="M83 111h111v-111q0 -30 -6.5 -56.5t-20 -46.5t-34 -32t-49.5 -12v50q17 0 28 8.5t18 22.5t9.5 31.5t2.5 34.5h-59v111z" glyph-name="quotesinglbase"/>
<glyph unicode="“" horiz-adv-x="426" d="M360 456h-111v111q0 30 6.5 56.5t20 46.5t34 32t49.5 12v-50q-17 0 -28 -8.5t-18 -22.5t-9.5 -31.5t-2.5 -34.5h59v-111zM177 456h-111v111q0 30 6.5 56.5t20 46.5t34 32t49.5 12v-50q-17 0 -28 -8.5t-18 -22.5t-9.5 -31.5t-2.5 -34.5h59v-111z" glyph-name="quotedblleft"/>
<glyph unicode="”" horiz-adv-x="426" d="M249 714h111v-111q0 -30 -6.5 -56.5t-20 -46.5t-34 -32t-49.5 -12v50q17 0 28 8.5t18 22.5t9.5 31.5t2.5 34.5h-59v111zM66 714h111v-111q0 -30 -6.5 -56.5t-20 -46.5t-34 -32t-49.5 -12v50q17 0 28 8.5t18 22.5t9.5 31.5t2.5 34.5h-59v111z" glyph-name="quotedblright"/>
<glyph unicode="„" horiz-adv-x="426" d="M66 111h111v-111q0 -30 -6.5 -56.5t-20 -46.5t-34 -32t-49.5 -12v50q17 0 28 8.5t18 22.5t9.5 31.5t2.5 34.5h-59v111zM249 111h111v-111q0 -30 -6.5 -56.5t-20 -46.5t-34 -32t-49.5 -12v50q17 0 28 8.5t18 22.5t9.5 31.5t2.5 34.5h-59v111z" glyph-name="quotedblbase"/>
<glyph unicode="†" d="M236 442h-194v75h194v197h80v-197h198v-75h-198v-597h-80v597z" glyph-name="dagger"/>
<glyph unicode="‡" d="M236 42h-194v75h194v325h-194v75h194v197h80v-197h198v-75h-198v-325h198v-75h-198v-197h-80v197z" glyph-name="daggerdbl"/>
<glyph unicode="•" horiz-adv-x="500" d="M72 357q0 37 14 69.5t38 56.5t56.5 38t69.5 14t69.5 -14t57 -38t38.5 -56.5t14 -69.5t-14 -69.5t-38.5 -57t-57 -38.5t-69.5 -14t-69.5 14t-56.5 38.5t-38 57t-14 69.5z" glyph-name="bullet"/>
<glyph unicode="…" horiz-adv-x="1000" d="M111 111h111v-111h-111v111zM444 111h111v-111h-111v111zM777 111h111v-111h-111v111z" glyph-name="ellipsis"/>
<glyph unicode="‰" horiz-adv-x="1148" d="M72 535q0 36 8 68t25.5 55.5t45.5 37t69 13.5q40 0 67.5 -13t45 -35.5t25.5 -53.5t8 -67q0 -34 -9 -67t-31 -60q-20 -25 -48.5 -35t-59.5 -10q-39 0 -66.5 12.5t-45.5 35t-26 53t-8 66.5zM147 538q0 -20 2.5 -40t10 -37t22 -27.5t37.5 -10.5q22 0 36 11t22 27.5t11 37 t3 38.5q0 16 -2.5 36.5t-10 38.5t-21 30t-34.5 12q-23 0 -37.5 -11t-23 -28t-12 -37.5t-3.5 -39.5zM628 722h85l-537 -744h-86zM437 155q0 36 8 68t25.5 55.5t45.5 37t69 13.5q40 0 67.5 -13t45 -35.5t25.5 -53.5t8 -67q0 -34 -9 -67t-31 -60q-20 -25 -48.5 -35t-59.5 -10 q-39 0 -66.5 12.5t-45.5 35t-26 53t-8 66.5zM512 158q0 -20 2.5 -40t10 -37t22 -27.5t37.5 -10.5q22 0 36 11t22 27.5t11 37t3 38.5q0 16 -2.5 36.5t-10 38.5t-21 30t-34.5 12q-23 0 -37.5 -11t-23 -28t-12 -37.5t-3.5 -39.5zM782 155q0 36 8 68t25.5 55.5t45.5 37t69 13.5 q40 0 67.5 -13t45 -35.5t25.5 -53.5t8 -67q0 -34 -9 -67t-31 -60q-20 -25 -48.5 -35t-59.5 -10q-39 0 -66.5 12.5t-45.5 35t-26 53t-8 66.5zM857 158q0 -20 2.5 -40t10 -37t22 -27.5t37.5 -10.5q22 0 36 11t22 27.5t11 37t3 38.5q0 16 -2.5 36.5t-10 38.5t-21 30t-34.5 12 q-23 0 -37.5 -11t-23 -28t-12 -37.5t-3.5 -39.5z" glyph-name="perthousand"/>
<glyph unicode="‹" horiz-adv-x="259" d="M50 234v88l152 120v-86l-100 -78l100 -78v-86z" glyph-name="guilsinglleft"/>
<glyph unicode="›" horiz-adv-x="259" d="M209 322v-88l-152 -120v86l100 78l-100 78v86z" glyph-name="guilsinglright"/>
<glyph unicode="⁄" horiz-adv-x="167" d="M269 725h64l-435 -753h-64z" glyph-name="fraction"/>
<glyph unicode="€" d="M512 579q-71 69 -143 69q-75 0 -124 -64q-39 -51 -56 -134h283l-27 -61h-263q-1 -8 -1 -16v-15v-11t1 -10h249l-26 -61h-218q33 -215 190 -215q48 0 85 19q27 14 69 53v-105q-68 -44 -154 -44q-245 0 -287 292h-77l27 61h46q-1 5 -1 10v10v17t1 15h-73l26 61h54 q24 123 91 194q75 81 193 81q91 0 181 -63z" glyph-name="Euro"/>
<glyph unicode="ℓ" horiz-adv-x="500" d="M340 588q0 38 -15 61.5t-38 23.5t-42 -28t-19 -88v-222q56 65 85 130.5t29 122.5zM415 41q-59 -55 -130 -55q-55 0 -91 31.5t-36 96.5v114l-58 -62h-2l-26 37l86 84v259q0 42 10 74.5t27.5 55t41 34t50.5 11.5q48 0 79 -34t31 -94q0 -74 -43.5 -153t-127.5 -165v-150 q0 -26 7 -43t18 -26.5t24 -13.5t26 -4q20 0 42.5 9t45.5 29h2z" glyph-name="afii61289"/>
<glyph unicode="™" horiz-adv-x="990" d="M390 659h-129v-357h-68v357h-129v55h326v-55zM927 302h-68v344h-2l-135 -344h-43l-135 344h-2v-344h-68v412h105l123 -313l121 313h104v-412z" glyph-name="trademark"/>
<glyph unicode="Ω" horiz-adv-x="748" d="M432 0v183q87 17 131.5 78.5t44.5 148.5q0 52 -18 95.5t-50 75.5t-76 50t-96 18q-51 0 -95.5 -18t-76.5 -50t-50.5 -76t-18.5 -95q0 -42 11.5 -80.5t33.5 -68.5t55 -50.5t77 -27.5v-183h-257v67h193v72q-47 13 -82.5 40t-60.5 63t-37.5 80t-12.5 91q0 67 25.5 124 t69.5 97.5t102 63.5t124 23t124 -22.5t101.5 -63t69 -97t25.5 -123.5q0 -48 -12.5 -92t-36.5 -80.5t-60 -63.5t-83 -40v-72h192v-67h-256z" glyph-name="Omega"/>
<glyph unicode="℮" horiz-adv-x="600" d="M448 295v145q-63 60 -147 60t-144 -60v-145h291zM157 259v-181q59 -59 145 -59q63 0 109 28.5t84 91.5l35 -21q-23 -36 -46.5 -61.5t-51 -42t-59.5 -24t-71 -7.5q-59 0 -106.5 21.5t-81.5 59t-52 87.5t-18 108t18 108.5t52 87.5t81.5 58.5t106.5 21.5q58 0 105.5 -20.5 t81.5 -57t53 -87t19 -111.5h-404z" glyph-name="estimated"/>
<glyph unicode="∂" horiz-adv-x="511" d="M469 362q0 -38 -3.5 -80.5t-12.5 -84.5t-25.5 -79.5t-42.5 -66.5t-62.5 -46t-85.5 -17q-47 0 -85 18.5t-64.5 49t-40.5 71.5t-14 86q0 44 13.5 83t39.5 68t62.5 46t83.5 17t89 -20.5t72 -55.5q0 11 0.5 22.5t0.5 22.5q0 40 -8.5 86t-28.5 85t-53 65t-83 26 q-34 0 -61 -13.5t-53 -33.5l-42 50q33 29 70.5 44.5t82.5 15.5q73 0 121.5 -33.5t77.5 -85.5t40.5 -116t11.5 -124zM389 280q-26 35 -64.5 60t-83.5 25q-33 0 -58.5 -13t-42 -34.5t-25 -49.5t-8.5 -58q0 -29 8 -58t24.5 -52t41.5 -37.5t58 -14.5q42 0 70.5 23.5t46 59 t25.5 76t8 73.5z" glyph-name="partialdiff"/>
<glyph unicode="∆" horiz-adv-x="674" d="M13 0l279 712h83l287 -712h-649zM333 628l-213 -556h430z" glyph-name="Delta"/>
<glyph unicode="∏" horiz-adv-x="719" d="M572 -214v928h-426v-928h-78v1000h582v-1000h-78z" glyph-name="product"/>
<glyph unicode="∑" horiz-adv-x="615" d="M25 -214v64l322 440l-308 432v64h538v-72h-437l301 -424l-319 -432h467v-72h-564z" glyph-name="summation"/>
<glyph unicode="−" horiz-adv-x="600" d="M48 287h504v-68h-504v68z" glyph-name="minus"/>
<glyph unicode="∕" horiz-adv-x="167" d="M269 725h64l-435 -753h-64z" glyph-name="uni2215"/>
<glyph unicode="∙" horiz-adv-x="278" d="M75 311q0 26 19 45t45 19t45 -19t19 -45q0 -24 -19 -44t-44 -20q-26 0 -45.5 19t-19.5 45z" glyph-name="uni2219"/>
<glyph unicode="√" horiz-adv-x="504" d="M303 -214h-75l-162 334l-47 -22l-28 60l112 52l151 -317l184 893h76z" glyph-name="radical"/>
<glyph unicode="∞" horiz-adv-x="759" d="M717 255q0 -33 -10 -61.5t-29 -50t-46.5 -33.5t-61.5 -12q-29 0 -55 9.5t-49.5 25.5t-45 35t-40.5 39q-21 -19 -42 -38.5t-44 -35t-49 -25t-56 -9.5q-33 0 -60.5 11.5t-46.5 32t-29.5 48.5t-10.5 61q0 32 10 60.5t28.5 49.5t45.5 33.5t61 12.5q30 0 56.5 -10t50.5 -26.5 t45 -37t41 -40.5l40.5 40.5t43.5 37.5t49 27.5t56 10.5q34 0 61 -12t46.5 -33t30 -49t10.5 -61zM652 252q0 38 -21 64t-61 26q-21 0 -41 -9t-39 -23t-36 -30t-31 -29q16 -15 32.5 -30t35 -27t39 -20t43.5 -8q38 0 58.5 25t20.5 61zM337 251q-14 13 -31.5 28.5t-37 29 t-40.5 23t-41 9.5q-38 0 -59 -27t-21 -62q0 -38 22 -62t61 -24q20 0 40.5 8t39.5 21t36 27.5t31 28.5z" glyph-name="infinity"/>
<glyph unicode="∫" horiz-adv-x="554" d="M420 730q0 -18 -12.5 -28t-29.5 -10q-12 0 -20 6.5t-14 15t-11 15t-11 6.5q-15 0 -22 -20t-8 -40t-1 -34q0 -9 0.5 -25t0.5 -22l1 -39v-511q0 -35 -1 -79t-12.5 -84t-37.5 -67t-75 -27q-11 0 -23.5 3t-22.5 9.5t-16.5 16t-6.5 23.5t11.5 25t25.5 11q12 0 19.5 -6.5 t13 -14.5t10 -14.5t9.5 -6.5q13 0 19.5 22t8 45.5t1.5 42.5q0 6 -0.5 21t-0.5 20v22v495q0 24 -0.5 44.5t-0.5 30.5q0 21 1.5 47t7.5 56.5t20 54t37.5 38t60.5 14.5q13 0 27 -3t25.5 -9.5t19 -17.5t7.5 -26z" glyph-name="integral"/>
<glyph unicode="≈" horiz-adv-x="593" d="M561 415q-3 -28 -11.5 -54.5t-24.5 -46.5t-39 -32.5t-55 -12.5q-33 0 -69.5 11t-73 24.5t-70 24.5t-58.5 11q-32 0 -51.5 -24t-24.5 -53h-51q3 27 12 53.5t24 47.5t38 34t55 13t68 -11t72 -24.5t70 -24.5t64 -11q34 0 51.5 22.5t23.5 52.5h50zM560 234q-3 -28 -11.5 -54 t-24 -46.5t-38.5 -32.5t-55 -12t-69 11t-74 24.5t-70.5 25t-58.5 11.5q-32 0 -51.5 -24.5t-23.5 -53.5h-52q4 27 12.5 53.5t24 47.5t38 34t54.5 13q33 0 68.5 -11t71.5 -24.5t70 -24.5t64 -11q34 0 51.5 22t23.5 52h50z" glyph-name="approxequal"/>
<glyph unicode="≠" horiz-adv-x="593" d="M263 114l-76 -146l-62 32l59 114h-141v72h178l67 127h-245v71h283l77 148l62 -32l-61 -116h146v-71h-183l-67 -127h250v-72h-287z" glyph-name="notequal"/>
<glyph unicode="≤" horiz-adv-x="593" d="M43 266v75l507 187v-78l-408 -146l408 -145v-77zM43 -30v72h507v-72h-507z" glyph-name="lessequal"/>
<glyph unicode="≥" horiz-adv-x="593" d="M43 82v77l408 145l-408 146v78l507 -187v-75zM43 -30v72h507v-72h-507z" glyph-name="greaterequal"/>
<glyph unicode="◊" horiz-adv-x="593" d="M332 -35h-72l-171 391l171 391h72l172 -391zM296 671l-131 -315l131 -315l132 315z" glyph-name="lozenge"/>
<glyph unicode="" horiz-adv-x="512" d="M512 718v-718h-512v718h512zM462 50v617h-412v-617h412zM225 234l-2 17q0 55 13 81t46 59q32 31 41 47.5t9 35.5q0 36 -22.5 60.5t-53.5 24.5t-53.5 -22t-28.5 -73l-50 8q7 71 44 104t91 33q53 0 88.5 -36t35.5 -95q0 -32 -12.5 -58.5t-50.5 -61.5q-37 -33 -43 -52 t-6 -72h-46zM222 117v67h56v-67h-56z" glyph-name="uniF8FF"/>
<glyph horiz-adv-x="222" d="M136 922h109l-131 -143h-64z" glyph-name="acute.cap"/>
<glyph horiz-adv-x="222" d="M5 919q24 -83 112 -83q43 0 63 22t36 61h51q-11 -64 -51 -101t-107 -37q-69 -1 -107 35t-47 103h50z" glyph-name="breve.cap"/>
<glyph horiz-adv-x="222" d="M106 714h109l-75 -143h-60z" glyph-name="caron.alt"/>
<glyph horiz-adv-x="222" d="M158 779h-93l-104 143h84l69 -96l70 96h77z" glyph-name="caron.cap"/>
<glyph horiz-adv-x="222" d="M106 714h109l-75 -143h-60z" glyph-name="carontwo"/>
<glyph horiz-adv-x="222" d="M64 922h93l104 -143h-84l-69 96l-70 -96h-77z" glyph-name="circumflex.cap"/>
<glyph horiz-adv-x="278" d="M81 -50h111v-77q0 -43 -27.5 -63t-71.5 -20v35q22 6 29 12t9 12.5t2 12.5h-52v88z" glyph-name="commaaccent"/>
<glyph horiz-adv-x="278" d="M194 626h-111v77q0 43 27 63t72 20v-35q-15 -4 -23.5 -8.5t-12 -9.5t-4 -10t-0.5 -9h52v-88z" glyph-name="commaaccent.alt"/>
<glyph horiz-adv-x="278" d="M194 626h-111v77q0 43 27.5 63t71.5 20v-35q-22 -6 -29 -12t-9 -12.5t-2 -12.5h52v-88z" glyph-name="commaaccenttwo"/>
<glyph horiz-adv-x="222" d="M160 897h90v-104h-90v104zM-28 897h90v-104h-90v104z" glyph-name="dieresis.cap"/>
<glyph horiz-adv-x="222" d="M156 793h-90v104h90v-104z" glyph-name="dotaccent.cap"/>
<glyph horiz-adv-x="222" d="M154 -66q0 -69 -33.5 -100.5t-90.5 -31.5q-11 0 -22 1t-22 3v73q9 -2 17 -2h18q28 0 38 15.5t10 55.5v569h85v-583z" glyph-name="dotlessj"/>
<glyph horiz-adv-x="222" d="M-23 922h109l86 -143h-64z" glyph-name="grave.cap"/>
<glyph horiz-adv-x="222" d="M33 922h105l-120 -143h-66zM189 922h105l-120 -143h-66z" glyph-name="hungarumlaut.cap"/>
<glyph horiz-adv-x="222" d="M-59 872h341v-55h-341v55z" glyph-name="macron.cap"/>
<glyph horiz-adv-x="222" d="M44 860q0 -29 19 -48.5t48 -19.5t48 19.5t19 48.5t-19 48.5t-48 19.5t-48 -19.5t-19 -48.5zM-2 861q0 23 9 43.5t24.5 35.5t36 24t43.5 9t43.5 -9t36 -24t24.5 -35.5t9 -43.5t-9 -43.5t-24.5 -35.5t-36 -24t-43.5 -9t-43.5 9t-36 24t-24.5 35.5t-9 43.5z" glyph-name="ring.cap"/>
<glyph horiz-adv-x="222" d="M285 907q-6 -44 -32 -79q-13 -16 -29 -24t-40 -8q-21 0 -39 6t-36 14q-18 7 -35 13t-31 6q-19 0 -31 -12q-6 -5 -10 -11t-8 -19h-52q10 46 34 78t72 32q20 -1 38 -7t35 -14t33 -13q16 -6 33 -6q18 0 29 12t17 32h52z" glyph-name="tilde.cap"/>
</font>
</defs>
</svg>
