<?xml version="1.0"?>
<svg xmlns="http://www.w3.org/2000/svg" xmlns:xlink="http://www.w3.org/1999/xlink" version="1.1" x="0px" y="0px" viewBox="0 0 64 80" enable-background="new 0 0 64 64" xml:space="preserve">
<g fill="white">
  <polygon points="51.539,4.501 51.539,12.458 59.497,12.458   "/>
  <polygon points="29.6,21.643 29.6,29.957 36.8,25.8   "/>
  <path d="M59.5,13.458h-8.961V4.497H4.5v55.005h55V13.458z M20.6,18.4c0-0.66,0.54-1.2,1.2-1.2h20.4c0.66,0,1.2,0.54,1.2,1.2v14.8    c0,0.66-0.54,1.2-1.2,1.2H21.8c-0.66,0-1.2-0.54-1.2-1.2V18.4z M52,46.8H12V46h40V46.8z M52,44.4H12v-0.8h40V44.4z M52,42H12v-0.8    h40V42z M52,39.6H12v-0.8h40V39.6z"/>
</g>
</svg>
