<?xml version="1.0"?>
<svg xmlns="http://www.w3.org/2000/svg" xmlns:xlink="http://www.w3.org/1999/xlink" version="1.1" x="0px" y="0px" viewBox="0 0 64 80" enable-background="new 0 0 64 64" xml:space="preserve">
<g fill="white">
  <polygon points="59.497,12.458 51.539,4.5 51.539,12.458   "/>
  <path d="M59.5,13.458h-8.961V4.497H4.5v55.005h55V13.458z M12,17.2h17.6V18H12V17.2z M12,19.6h17.6v0.8H12V19.6z M12,22h17.6v0.8    H12V22z M12,24.4h17.6v0.8H12V24.4z M12,26.8h17.6v0.8H12V26.8z M12,29.2h17.6V30H12V29.2z M12,31.6h17.6v0.8H12V31.6z M52,46.8    H12V46h40V46.8z M52,44.4H12v-0.8h40V44.4z M52,42H12v-0.8h40V42z M52,39.6H12v-0.8h40V39.6z M52,37.2H12v-0.8h40V37.2z M52,34.8    H12V34h40V34.8z M52,30H34.4V17.2H52V30z"/>
</g>
</svg>
