<?xml version="1.0"?>
<svg xmlns="http://www.w3.org/2000/svg" xmlns:xlink="http://www.w3.org/1999/xlink" version="1.1" x="0px" y="0px" viewBox="0 0 64 80" enable-background="new 0 0 64 64" xml:space="preserve">
<g fill="white">
  <polygon points="51.539,12.458 59.497,12.458 51.539,4.5   "/>
  <path d="M50.539,4.497H4.5v55.005h55V13.458h-8.961V4.497z M20.8,46H12v-0.8h8.8V46z M20.8,43.6H12v-0.8h8.8V43.6z M20.8,41.2H12    v-0.8h8.8V41.2z M20.8,34.8H12V34h8.8V34.8z M20.8,32.4H12v-0.8h8.8V32.4z M20.8,30H12v-0.8h8.8V30z M20.8,23.6H12v-0.8h8.8V23.6z     M20.8,21.2H12v-0.8h8.8V21.2z M20.8,18.8H12V18h8.8V18.8z M31.2,46.8h-7.111v-7.2H31.2V46.8z M31.2,35.6h-7.111v-7.2H31.2V35.6z     M31.2,24.4h-7.111v-7.2H31.2V24.4z M52,17.2v29.6H34.4V17.2H52z"/>
</g>
</svg>
