<?xml version="1.0"?>
<svg xmlns="http://www.w3.org/2000/svg" xmlns:xlink="http://www.w3.org/1999/xlink" version="1.1" x="0px" y="0px" viewBox="0 0 64 80" enable-background="new 0 0 64 64" xml:space="preserve">
<g fill="white">
  <polygon points="51.539,12.458 59.497,12.458 51.539,4.5   "/>
  <path d="M50.539,4.497H4.5v55.005h55V13.458h-8.961V4.497z M51.995,48h-40v-8.8h40V48z M51.995,36h-40v-0.8h40V36z M51.995,33.6    h-40v-0.8h40V33.6z M51.995,31.2h-40v-0.8h40V31.2z M51.995,28.8h-40V28h40V28.8z M51.995,26.4h-40v-0.8h40V26.4z M51.995,24h-40    v-0.8h40V24z M51.995,21.6h-40v-0.8h40V21.6z M51.995,19.2h-40v-0.8h40V19.2z M51.995,16v0.8h-40V16H51.995z"/>
</g>
</svg>
