<?xml version="1.0"?>
<svg xmlns="http://www.w3.org/2000/svg" xmlns:xlink="http://www.w3.org/1999/xlink" version="1.1" x="0px" y="0px" viewBox="0 0 64 80" enable-background="new 0 0 64 64" xml:space="preserve">
<g fill="white">
  <polygon points="51.539,12.458 59.497,12.458 51.539,4.5   "/>
  <path d="M50.539,4.497H4.5v55.005h55V13.458h-8.961V4.497z M29.595,48h-17.6v-0.8h17.6V48z M29.595,45.6h-17.6v-0.8h17.6V45.6z     M29.595,43.2h-17.6v-0.8h17.6V43.2z M29.595,40.8h-17.6V40h17.6V40.8z M29.595,38.4h-17.6v-0.8h17.6V38.4z M29.595,36h-17.6v-0.8    h17.6V36z M29.595,33.6h-17.6v-0.8h17.6V33.6z M29.595,31.2h-17.6v-0.8h17.6V31.2z M29.595,28.8h-17.6V28h17.6V28.8z M29.595,26.4    h-17.6v-0.8h17.6V26.4z M29.595,24h-17.6v-0.8h17.6V24z M29.595,21.6h-17.6v-0.8h17.6V21.6z M29.595,19.2h-17.6v-0.8h17.6V19.2z     M29.595,16.8h-17.6V16h17.6V16.8z M51.995,48h-17.6v-0.8h17.6V48z M51.995,45.6h-17.6v-0.8h17.6V45.6z M51.995,43.2h-17.6v-0.8    h17.6V43.2z M51.995,40.8h-17.6V40h17.6V40.8z M51.995,38.4h-17.6v-0.8h17.6V38.4z M51.995,36h-17.6v-0.8h17.6V36z M51.995,33.6    h-17.6v-0.8h17.6V33.6z M51.995,31.2h-17.6v-0.8h17.6V31.2z M51.995,28.8h-17.6V28h17.6V28.8z M51.995,26.4h-17.6v-0.8h17.6V26.4z     M51.995,24h-17.6v-0.8h17.6V24z M51.995,21.6h-17.6v-0.8h17.6V21.6z M51.995,19.2h-17.6v-0.8h17.6V19.2z M51.995,16v0.8h-17.6V16    H51.995z"/>
</g>
</svg>
