<?xml version="1.0"?>
<svg xmlns="http://www.w3.org/2000/svg" xmlns:xlink="http://www.w3.org/1999/xlink" version="1.1" x="0px" y="0px" viewBox="0 0 64 80" enable-background="new 0 0 64 64" xml:space="preserve">
<g fill="white">
  <polygon points="51.539,12.458 59.497,12.458 51.539,4.501   "/>
  <path d="M50.539,4.497H4.5v55.005h55V13.458h-8.961V4.497z M25.882,16.4H37.6v8.8H25.882V16.4z M12,16.4h11.435v8.8H12V16.4z     M52,47.6H12v-0.8h40V47.6z M52,45.2H12v-0.8h40V45.2z M52,42.8H12V42h40V42.8z M52,40.4H12v-0.8h40V40.4z M52,38H12v-0.8h40V38z     M52,35.6H12v-0.8h40V35.6z M52,33.2H12v-0.8h40V33.2z M52,30.8H12V30h40V30.8z M52,28.4H12v-0.8h40V28.4z M52,16.4v8.8H40.128    v-8.8H52z"/>
</g>
</svg>
