<?xml version="1.0"?>
<svg xmlns="http://www.w3.org/2000/svg" xmlns:xlink="http://www.w3.org/1999/xlink" version="1.1" x="0px" y="0px" viewBox="0 0 64 80" enable-background="new 0 0 64 64" xml:space="preserve">
<g fill="white">
  <polygon points="51.539,4.5 51.539,12.458 59.497,12.458   "/>
  <path d="M59.5,13.458h-8.961V4.497H4.5v55.005h55V13.458z M52,47.2H12v-0.8h40V47.2z M52,44.8H12V44h40V44.8z M52,42.4H12v-0.8h40    V42.4z M52,40H12v-0.8h40V40z M52,37.6H12v-0.8h40V37.6z M52,35.2H12v-0.8h40V35.2z M52,32.8H12V32h40V32.8z M52,30.4H12v-0.8h40    V30.4z M52,25.6H12v-8.8h40V25.6z"/>
</g>
</svg>
