<?xml version="1.0"?>
<svg xmlns="http://www.w3.org/2000/svg" xmlns:xlink="http://www.w3.org/1999/xlink" version="1.1" x="0px" y="0px" viewBox="0 0 64 80" enable-background="new 0 0 64 64" xml:space="preserve">
<g fill="white">
  <polygon points="51.539,12.458 59.497,12.458 51.539,4.501   "/>
  <path d="M4.5,4.497v55.005h55V13.458h-8.961V4.497H4.5z M29.6,48H12v-0.8h17.6V48z M29.6,45.6H12v-0.8h17.6V45.6z M29.6,43.2H12    v-0.8h17.6V43.2z M29.6,40.8H12V40h17.6V40.8z M29.6,38.4H12v-0.8h17.6V38.4z M29.6,36H12v-0.8h17.6V36z M29.6,33.6H12v-0.8h17.6    V33.6z M29.6,28H12V16h17.6V28z M52,48H34.4v-0.8H52V48z M52,45.6H34.4v-0.8H52V45.6z M52,43.2H34.4v-0.8H52V43.2z M52,40.8H34.4    V40H52V40.8z M52,38.4H34.4v-0.8H52V38.4z M52,36H34.4v-0.8H52V36z M52,33.6H34.4v-0.8H52V33.6z M52,16v12H34.4V16H52z"/>
</g>
</svg>
